rawline-500.ufo
<glyph name="exclam" format="2">
  <advance width="536"/>
  <unicode hex="0021"/>
  <outline>
    <contour>
      <point x="178" y="492" type="line"/>
      <point x="178" y="1468" type="line"/>
      <point x="358" y="1468" type="line"/>
      <point x="358" y="492" type="line"/>
    </contour>
    <contour>
      <point x="178" y="0" type="line"/>
      <point x="178" y="254" type="line"/>
      <point x="358" y="254" type="line"/>
      <point x="358" y="0" type="line"/>
    </contour>
  </outline>
</glyph>
<glyph name="quotedbl" format="2">
  <advance width="663"/>
  <unicode hex="0022"/>
  <outline>
    <contour>
      <point x="137" y="1028" type="line"/>
      <point x="137" y="1470" type="line"/>
      <point x="293" y="1470" type="line"/>
      <point x="293" y="1028" type="line"/>
    </contour>
    <contour>
      <point x="371" y="1028" type="line"/>
      <point x="371" y="1470" type="line"/>
      <point x="526" y="1470" type="line"/>
      <point x="526" y="1028" type="line"/>
    </contour>
  </outline>
</glyph>
<glyph name="numbersign" format="2">
  <advance width="1417"/>
  <unicode hex="0023"/>
  <outline>
    <contour>
      <point x="1341" y="915" type="line"/>
      <point x="1067" y="915" type="line"/>
      <point x="979" y="551" type="line"/>
      <point x="1251" y="551" type="line"/>
      <point x="1251" y="412" type="line"/>
      <point x="946" y="412" type="line"/>
      <point x="846" y="0" type="line"/>
      <point x="696" y="0" type="line"/>
      <point x="799" y="412" type="line"/>
      <point x="455" y="412" type="line"/>
      <point x="354" y="0" type="line"/>
      <point x="205" y="0" type="line"/>
      <point x="307" y="412" type="line"/>
      <point x="76" y="412" type="line"/>
      <point x="76" y="551" type="line"/>
      <point x="340" y="551" type="line"/>
      <point x="428" y="915" type="line"/>
      <point x="166" y="915" type="line"/>
      <point x="166" y="1047" type="line"/>
      <point x="461" y="1047" type="line"/>
      <point x="559" y="1454" type="line"/>
      <point x="709" y="1454" type="line"/>
      <point x="608" y="1047" type="line"/>
      <point x="952" y="1047" type="line"/>
      <point x="1051" y="1454" type="line"/>
      <point x="1200" y="1454" type="line"/>
      <point x="1100" y="1047" type="line"/>
      <point x="1341" y="1047" type="line"/>
    </contour>
    <contour>
      <point x="831" y="551" type="line"/>
      <point x="920" y="915" type="line"/>
      <point x="575" y="915" type="line"/>
      <point x="487" y="551" type="line"/>
    </contour>
  </outline>
</glyph>
<glyph name="dollar" format="2">
  <advance width="1273"/>
  <unicode hex="0024"/>
  <anchor x="655" y="1477" name="Anchor-1"/>
  <anchor x="662" y="0" name="Anchor-0"/>
  <outline>
    <contour>
      <point x="1192" y="391" type="qcurve" smooth="yes"/>
      <point x="1192" y="260"/>
      <point x="1061" y="78"/>
      <point x="844" y="-9"/>
      <point x="698" y="-14" type="qcurve"/>
      <point x="698" y="-219" type="line"/>
      <point x="584" y="-219" type="line"/>
      <point x="584" y="-10" type="line"/>
      <point x="290" y="11"/>
      <point x="72" y="190" type="qcurve"/>
      <point x="160" y="346" type="line"/>
      <point x="224" y="279"/>
      <point x="460" y="169"/>
      <point x="594" y="156" type="qcurve"/>
      <point x="594" y="647" type="line" smooth="yes"/>
      <point x="591" y="648"/>
      <point x="578" y="650"/>
      <point x="575" y="651" type="qcurve" smooth="yes"/>
      <point x="480" y="674"/>
      <point x="348" y="719"/>
      <point x="233" y="782"/>
      <point x="165" y="859"/>
      <point x="127" y="965"/>
      <point x="127" y="1034" type="qcurve" smooth="yes"/>
      <point x="127" y="1222"/>
      <point x="378" y="1447"/>
      <point x="584" y="1462" type="qcurve"/>
      <point x="584" y="1669" type="line"/>
      <point x="698" y="1669" type="line"/>
      <point x="698" y="1462" type="line"/>
      <point x="942" y="1448"/>
      <point x="1126" y="1298" type="qcurve"/>
      <point x="1040" y="1149" type="line"/>
      <point x="991" y="1205"/>
      <point x="799" y="1291"/>
      <point x="686" y="1298" type="qcurve"/>
      <point x="686" y="811" type="line" smooth="yes"/>
      <point x="688" y="810"/>
      <point x="698" y="808"/>
      <point x="700" y="807" type="qcurve" smooth="yes"/>
      <point x="798" y="785"/>
      <point x="938" y="740"/>
      <point x="1068" y="673"/>
      <point x="1146" y="589"/>
      <point x="1192" y="468"/>
    </contour>
    <contour>
      <point x="317" y="1063" type="qcurve" smooth="yes"/>
      <point x="317" y="968"/>
      <point x="444" y="870"/>
      <point x="594" y="831" type="qcurve"/>
      <point x="594" y="1298" type="line"/>
      <point x="455" y="1289"/>
      <point x="317" y="1167"/>
    </contour>
    <contour>
      <point x="686" y="152" type="line"/>
      <point x="834" y="155"/>
      <point x="995" y="268"/>
      <point x="995" y="373" type="qcurve" smooth="yes"/>
      <point x="995" y="472"/>
      <point x="848" y="580"/>
      <point x="686" y="623" type="qcurve"/>
    </contour>
  </outline>
</glyph>
<glyph name="percent" format="2">
  <advance width="1501"/>
  <unicode hex="0025"/>
  <outline>
    <contour>
      <point x="76" y="1300"/>
      <point x="260" y="1475"/>
      <point x="391" y="1475" type="qcurve" smooth="yes"/>
      <point x="523" y="1475"/>
      <point x="707" y="1301"/>
      <point x="707" y="1051"/>
      <point x="523" y="877"/>
      <point x="391" y="877" type="qcurve" smooth="yes"/>
      <point x="260" y="877"/>
      <point x="76" y="1052"/>
    </contour>
    <contour>
      <point x="145" y="68" type="line"/>
      <point x="719" y="758" type="line"/>
      <point x="1268" y="1464" type="line"/>
      <point x="1356" y="1389" type="line"/>
      <point x="788" y="702" type="line"/>
      <point x="231" y="-10" type="line"/>
    </contour>
    <contour>
      <point x="575" y="1176" type="qcurve" smooth="yes"/>
      <point x="575" y="1258"/>
      <point x="465" y="1376"/>
      <point x="391" y="1376" type="qcurve" smooth="yes"/>
      <point x="315" y="1376"/>
      <point x="207" y="1256"/>
      <point x="207" y="1176" type="qcurve" smooth="yes"/>
      <point x="207" y="1093"/>
      <point x="316" y="975"/>
      <point x="391" y="975" type="qcurve" smooth="yes"/>
      <point x="467" y="975"/>
      <point x="575" y="1096"/>
    </contour>
    <contour>
      <point x="795" y="403"/>
      <point x="979" y="578"/>
      <point x="1110" y="578" type="qcurve" smooth="yes"/>
      <point x="1242" y="578"/>
      <point x="1425" y="404"/>
      <point x="1425" y="154"/>
      <point x="1242" y="-20"/>
      <point x="1110" y="-20" type="qcurve" smooth="yes"/>
      <point x="979" y="-20"/>
      <point x="795" y="155"/>
    </contour>
    <contour>
      <point x="1294" y="361"/>
      <point x="1184" y="479"/>
      <point x="1110" y="479" type="qcurve" smooth="yes"/>
      <point x="1034" y="479"/>
      <point x="926" y="359"/>
      <point x="926" y="279" type="qcurve" smooth="yes"/>
      <point x="926" y="196"/>
      <point x="1035" y="78"/>
      <point x="1110" y="78" type="qcurve" smooth="yes"/>
      <point x="1186" y="78"/>
      <point x="1294" y="197"/>
    </contour>
  </outline>
</glyph>
<glyph name="ampersand" format="2">
  <advance width="1394"/>
  <unicode hex="0026"/>
  <outline>
    <contour>
      <point x="1384" y="0" type="line"/>
      <point x="1147" y="0" type="line"/>
      <point x="995" y="160" type="line"/>
      <point x="815" y="-20"/>
      <point x="563" y="-20" type="qcurve" smooth="yes"/>
      <point x="361" y="-20"/>
      <point x="92" y="211"/>
      <point x="92" y="385" type="qcurve" smooth="yes"/>
      <point x="92" y="455"/>
      <point x="137" y="581"/>
      <point x="222" y="685"/>
      <point x="317" y="767"/>
      <point x="381" y="809" type="qcurve"/>
      <point x="278" y="923"/>
      <point x="197" y="1070"/>
      <point x="197" y="1145" type="qcurve" smooth="yes"/>
      <point x="197" y="1286"/>
      <point x="411" y="1473"/>
      <point x="571" y="1473" type="qcurve" smooth="yes"/>
      <point x="721" y="1473"/>
      <point x="926" y="1309"/>
      <point x="926" y="1176" type="qcurve" smooth="yes"/>
      <point x="926" y="1116"/>
      <point x="883" y="1010"/>
      <point x="793" y="915"/>
      <point x="699" y="840"/>
      <point x="627" y="793" type="qcurve"/>
      <point x="999" y="403" type="line"/>
      <point x="1079" y="557"/>
      <point x="1079" y="750" type="qcurve"/>
      <point x="1229" y="750" type="line"/>
      <point x="1229" y="493"/>
      <point x="1104" y="293" type="qcurve"/>
    </contour>
    <contour>
      <point x="571" y="1335" type="qcurve" smooth="yes"/>
      <point x="481" y="1335"/>
      <point x="362" y="1226"/>
      <point x="362" y="1149" type="qcurve" smooth="yes"/>
      <point x="362" y="1104"/>
      <point x="426" y="1004"/>
      <point x="522" y="901" type="qcurve"/>
      <point x="645" y="981"/>
      <point x="760" y="1099"/>
      <point x="760" y="1243"/>
      <point x="653" y="1335"/>
    </contour>
    <contour>
      <point x="582" y="123" type="qcurve" smooth="yes"/>
      <point x="764" y="123"/>
      <point x="897" y="262" type="qcurve"/>
      <point x="485" y="698" type="line"/>
      <point x="379" y="624"/>
      <point x="266" y="474"/>
      <point x="266" y="383" type="qcurve" smooth="yes"/>
      <point x="266" y="264"/>
      <point x="453" y="123"/>
    </contour>
  </outline>
</glyph>
<glyph name="quotesingle" format="2">
  <advance width="430"/>
  <unicode hex="0027"/>
  <outline>
    <contour>
      <point x="137" y="1026" type="line"/>
      <point x="137" y="1470" type="line"/>
      <point x="293" y="1470" type="line"/>
      <point x="293" y="1026" type="line"/>
    </contour>
  </outline>
</glyph>
<glyph name="parenleft" format="2">
  <advance width="579"/>
  <unicode hex="0028"/>
  <outline>
    <contour>
      <point x="377" y="1524" type="qcurve"/>
      <point x="516" y="1462" type="line"/>
      <point x="421" y="1319"/>
      <point x="254" y="884"/>
      <point x="254" y="702" type="qcurve" smooth="yes"/>
      <point x="254" y="389"/>
      <point x="512" y="-16" type="qcurve"/>
      <point x="379" y="-86" type="line"/>
      <point x="86" y="350"/>
      <point x="86" y="709" type="qcurve" smooth="yes"/>
      <point x="86" y="842"/>
      <point x="169" y="1131"/>
      <point x="286" y="1371"/>
    </contour>
  </outline>
</glyph>
<glyph name="parenright" format="2">
  <advance width="579"/>
  <unicode hex="0029"/>
  <outline>
    <contour>
      <point x="201" y="-86" type="qcurve"/>
      <point x="68" y="-16" type="line"/>
      <point x="326" y="389"/>
      <point x="326" y="702" type="qcurve" smooth="yes"/>
      <point x="326" y="827"/>
      <point x="235" y="1138"/>
      <point x="121" y="1375"/>
      <point x="63" y="1462" type="qcurve"/>
      <point x="203" y="1524" type="line"/>
      <point x="294" y="1371"/>
      <point x="411" y="1131"/>
      <point x="494" y="842"/>
      <point x="494" y="709" type="qcurve" smooth="yes"/>
      <point x="494" y="350"/>
    </contour>
  </outline>
</glyph>
<glyph name="asterisk" format="2">
  <advance width="673"/>
  <unicode hex="002A"/>
  <outline>
    <contour>
      <point x="172" y="1102" type="line"/>
      <point x="262" y="1235" type="line"/>
      <point x="121" y="1280" type="line"/>
      <point x="147" y="1366" type="line"/>
      <point x="291" y="1311" type="line"/>
      <point x="285" y="1462" type="line"/>
      <point x="389" y="1462" type="line"/>
      <point x="383" y="1311" type="line"/>
      <point x="526" y="1366" type="line"/>
      <point x="553" y="1280" type="line"/>
      <point x="412" y="1235" type="line"/>
      <point x="504" y="1102" type="line"/>
      <point x="426" y="1051" type="line"/>
      <point x="338" y="1188" type="line"/>
      <point x="248" y="1051" type="line"/>
    </contour>
  </outline>
</glyph>
<glyph name="plus" format="2">
  <advance width="851"/>
  <unicode hex="002B"/>
  <outline>
    <contour>
      <point x="750" y="801" type="line"/>
      <point x="750" y="653" type="line"/>
      <point x="508" y="653" type="line"/>
      <point x="508" y="391" type="line"/>
      <point x="344" y="391" type="line"/>
      <point x="344" y="653" type="line"/>
      <point x="102" y="653" type="line"/>
      <point x="102" y="801" type="line"/>
      <point x="344" y="801" type="line"/>
      <point x="344" y="1063" type="line"/>
      <point x="508" y="1063" type="line"/>
      <point x="508" y="801" type="line"/>
    </contour>
  </outline>
</glyph>
<glyph name="comma" format="2">
  <advance width="432"/>
  <unicode hex="002C"/>
  <outline>
    <contour>
      <point x="152" y="-166" type="line"/>
      <point x="193" y="16" type="line"/>
      <point x="131" y="16" type="line"/>
      <point x="131" y="229" type="line"/>
      <point x="301" y="229" type="line"/>
      <point x="301" y="16" type="line"/>
      <point x="240" y="-166" type="line"/>
    </contour>
  </outline>
</glyph>
<glyph name="hyphen" format="2">
  <advance width="866"/>
  <unicode hex="002D"/>
  <outline>
    <contour>
      <point x="131" y="477" type="line"/>
      <point x="131" y="641" type="line"/>
      <point x="735" y="641" type="line"/>
      <point x="735" y="477" type="line"/>
    </contour>
  </outline>
</glyph>
<glyph name="period" format="2">
  <advance width="413"/>
  <unicode hex="002E"/>
  <outline>
    <contour>
      <point x="131" y="0" type="line"/>
      <point x="131" y="229" type="line"/>
      <point x="283" y="229" type="line"/>
      <point x="283" y="0" type="line"/>
    </contour>
  </outline>
</glyph>
<glyph name="slash" format="2">
  <advance width="1296"/>
  <unicode hex="002F"/>
  <outline>
    <contour>
      <point x="1239" y="1454" type="line"/>
      <point x="256" y="0" type="line"/>
      <point x="55" y="0" type="line"/>
      <point x="1036" y="1454" type="line"/>
    </contour>
  </outline>
</glyph>
<glyph name="zero" format="2">
  <advance width="1413"/>
  <unicode hex="0030"/>
  <outline>
    <contour>
      <point x="96" y="717" type="qcurve" smooth="yes"/>
      <point x="96" y="822"/>
      <point x="150" y="1033"/>
      <point x="256" y="1222"/>
      <point x="401" y="1368"/>
      <point x="597" y="1454"/>
      <point x="707" y="1454" type="qcurve" smooth="yes"/>
      <point x="805" y="1454"/>
      <point x="979" y="1389"/>
      <point x="1110" y="1277"/>
      <point x="1216" y="1132"/>
      <point x="1282" y="966"/>
      <point x="1317" y="797"/>
      <point x="1317" y="717" type="qcurve" smooth="yes"/>
      <point x="1317" y="611"/>
      <point x="1263" y="399"/>
      <point x="1157" y="212"/>
      <point x="1013" y="67"/>
      <point x="817" y="-19"/>
      <point x="707" y="-20" type="qcurve" smooth="yes"/>
      <point x="591" y="-18"/>
      <point x="389" y="74"/>
      <point x="247" y="223"/>
      <point x="145" y="413"/>
      <point x="96" y="617"/>
    </contour>
    <contour>
      <point x="707" y="145" type="qcurve" smooth="yes"/>
      <point x="790" y="145"/>
      <point x="933" y="218"/>
      <point x="1030" y="336"/>
      <point x="1098" y="487"/>
      <point x="1130" y="642"/>
      <point x="1130" y="717" type="qcurve" smooth="yes"/>
      <point x="1130" y="818"/>
      <point x="1072" y="1019"/>
      <point x="968" y="1185"/>
      <point x="804" y="1288"/>
      <point x="707" y="1288" type="qcurve" smooth="yes"/>
      <point x="604" y="1288"/>
      <point x="436" y="1178"/>
      <point x="336" y="1005"/>
      <point x="283" y="811"/>
      <point x="283" y="717" type="qcurve" smooth="yes"/>
      <point x="286" y="614"/>
      <point x="342" y="416"/>
      <point x="443" y="248"/>
      <point x="607" y="145"/>
    </contour>
  </outline>
</glyph>
<glyph name="colon" format="2">
  <advance width="411"/>
  <unicode hex="003A"/>
  <outline>
    <contour>
      <point x="131" y="831" type="line"/>
      <point x="131" y="1061" type="line"/>
      <point x="281" y="1061" type="line"/>
      <point x="281" y="831" type="line"/>
    </contour>
    <contour>
      <point x="131" y="0" type="line"/>
      <point x="131" y="229" type="line"/>
      <point x="281" y="229" type="line"/>
      <point x="281" y="0" type="line"/>
    </contour>
  </outline>
</glyph>
<glyph name="semicolon" format="2">
  <advance width="452"/>
  <unicode hex="003B"/>
  <outline>
    <contour>
      <point x="141" y="831" type="line"/>
      <point x="141" y="1061" type="line"/>
      <point x="291" y="1061" type="line"/>
      <point x="291" y="831" type="line"/>
    </contour>
    <contour>
      <point x="162" y="-166" type="line"/>
      <point x="203" y="16" type="line"/>
      <point x="141" y="16" type="line"/>
      <point x="141" y="229" type="line"/>
      <point x="311" y="229" type="line"/>
      <point x="311" y="16" type="line"/>
      <point x="250" y="-166" type="line"/>
    </contour>
  </outline>
</glyph>
<glyph name="less" format="2">
  <advance width="1044"/>
  <unicode hex="003C"/>
  <outline>
    <contour>
      <point x="68" y="573" type="line"/>
      <point x="928" y="1092" type="line"/>
      <point x="928" y="899" type="line"/>
      <point x="330" y="530" type="line"/>
      <point x="928" y="168" type="line"/>
      <point x="928" y="-33" type="line"/>
      <point x="68" y="479" type="line"/>
    </contour>
  </outline>
</glyph>
<glyph name="equal" format="2">
  <advance width="899"/>
  <unicode hex="003D"/>
  <outline>
    <contour>
      <point x="137" y="641" type="line"/>
      <point x="137" y="764" type="line"/>
      <point x="762" y="764" type="line"/>
      <point x="762" y="641" type="line"/>
    </contour>
    <contour>
      <point x="137" y="367" type="line"/>
      <point x="137" y="489" type="line"/>
      <point x="762" y="489" type="line"/>
      <point x="762" y="367" type="line"/>
    </contour>
  </outline>
</glyph>
<glyph name="greater" format="2">
  <advance width="1044"/>
  <unicode hex="003E"/>
  <outline>
    <contour>
      <point x="977" y="479" type="line"/>
      <point x="117" y="-33" type="line"/>
      <point x="117" y="168" type="line"/>
      <point x="715" y="530" type="line"/>
      <point x="117" y="899" type="line"/>
      <point x="117" y="1092" type="line"/>
      <point x="977" y="573" type="line"/>
    </contour>
  </outline>
</glyph>
<glyph name="question" format="2">
  <advance width="980"/>
  <unicode hex="003F"/>
  <outline>
    <contour>
      <point x="295" y="432" type="line"/>
      <point x="295" y="546"/>
      <point x="376" y="710"/>
      <point x="467" y="768" type="qcurve" smooth="yes"/>
      <point x="481" y="777"/>
      <point x="561" y="823"/>
      <point x="608" y="852"/>
      <point x="677" y="909"/>
      <point x="716" y="963"/>
      <point x="745" y="1042"/>
      <point x="745" y="1087" type="qcurve" smooth="yes"/>
      <point x="745" y="1197"/>
      <point x="597" y="1323"/>
      <point x="494" y="1323" type="qcurve" smooth="yes"/>
      <point x="396" y="1323"/>
      <point x="234" y="1211"/>
      <point x="190" y="1128" type="qcurve"/>
      <point x="70" y="1208" type="line"/>
      <point x="124" y="1331"/>
      <point x="360" y="1473"/>
      <point x="498" y="1473" type="qcurve" smooth="yes"/>
      <point x="576" y="1473"/>
      <point x="719" y="1424"/>
      <point x="836" y="1330"/>
      <point x="905" y="1176"/>
      <point x="905" y="1079" type="qcurve" smooth="yes"/>
      <point x="905" y="1019"/>
      <point x="876" y="919"/>
      <point x="834" y="851"/>
      <point x="758" y="786"/>
      <point x="697" y="747"/>
      <point x="647" y="719" type="qcurve" smooth="yes"/>
      <point x="616" y="702"/>
      <point x="591" y="688"/>
      <point x="537" y="652"/>
      <point x="513" y="627"/>
      <point x="476" y="581"/>
      <point x="459" y="535"/>
      <point x="446" y="470"/>
      <point x="446" y="432" type="qcurve"/>
    </contour>
    <contour>
      <point x="299" y="0" type="line"/>
      <point x="299" y="238" type="line"/>
      <point x="451" y="238" type="line"/>
      <point x="451" y="0" type="line"/>
    </contour>
  </outline>
</glyph>
<glyph name="at" format="2">
  <advance width="1720"/>
  <unicode hex="0040"/>
  <outline>
    <contour>
      <point x="1610" y="455" type="qcurve" smooth="yes"/>
      <point x="1610" y="423"/>
      <point x="1606" y="358"/>
      <point x="1591" y="257"/>
      <point x="1567" y="169"/>
      <point x="1520" y="76"/>
      <point x="1458" y="10"/>
      <point x="1363" y="-33"/>
      <point x="1305" y="-33" type="qcurve" smooth="yes"/>
      <point x="1255" y="-33"/>
      <point x="1185" y="-3"/>
      <point x="1148" y="53"/>
      <point x="1130" y="111"/>
      <point x="1126" y="150" type="qcurve"/>
      <point x="1064" y="85"/>
      <point x="881" y="4"/>
      <point x="778" y="4" type="qcurve" smooth="yes"/>
      <point x="632" y="4"/>
      <point x="467" y="160"/>
      <point x="467" y="283" type="qcurve" smooth="yes"/>
      <point x="467" y="345"/>
      <point x="512" y="444"/>
      <point x="586" y="508"/>
      <point x="687" y="550"/>
      <point x="793" y="567"/>
      <point x="850" y="567" type="qcurve" smooth="yes"/>
      <point x="976" y="567"/>
      <point x="1102" y="520" type="qcurve"/>
      <point x="1102" y="592"/>
      <point x="1079" y="697"/>
      <point x="1025" y="782"/>
      <point x="926" y="825"/>
      <point x="854" y="825" type="qcurve" smooth="yes"/>
      <point x="696" y="825"/>
      <point x="571" y="731" type="qcurve"/>
      <point x="530" y="831" type="line"/>
      <point x="686" y="936"/>
      <point x="870" y="936" type="qcurve" smooth="yes"/>
      <point x="936" y="936"/>
      <point x="1043" y="909"/>
      <point x="1114" y="865"/>
      <point x="1167" y="796"/>
      <point x="1195" y="727"/>
      <point x="1212" y="636"/>
      <point x="1217" y="561"/>
      <point x="1217" y="514" type="qcurve" smooth="yes"/>
      <point x="1217" y="270" type="line" smooth="yes"/>
      <point x="1217" y="218"/>
      <point x="1223" y="151"/>
      <point x="1244" y="87"/>
      <point x="1287" y="57"/>
      <point x="1321" y="57" type="qcurve" smooth="yes"/>
      <point x="1368" y="57"/>
      <point x="1442" y="115"/>
      <point x="1485" y="201"/>
      <point x="1514" y="314"/>
      <point x="1524" y="413"/>
      <point x="1524" y="459" type="qcurve" smooth="yes"/>
      <point x="1524" y="652"/>
      <point x="1351" y="970"/>
      <point x="1043" y="1153"/>
      <point x="854" y="1153" type="qcurve" smooth="yes"/>
      <point x="667" y="1153"/>
      <point x="359" y="978"/>
      <point x="180" y="665"/>
      <point x="180" y="471" type="qcurve" smooth="yes"/>
      <point x="180" y="358"/>
      <point x="243" y="149"/>
      <point x="362" y="-21"/>
      <point x="522" y="-148"/>
      <point x="727" y="-217"/>
      <point x="840" y="-217" type="qcurve" smooth="yes"/>
      <point x="989" y="-217"/>
      <point x="1155" y="-139" type="qcurve"/>
      <point x="1184" y="-217" type="line"/>
      <point x="1019" y="-299"/>
      <point x="838" y="-299" type="qcurve" smooth="yes"/>
      <point x="687" y="-299"/>
      <point x="413" y="-183"/>
      <point x="212" y="18"/>
      <point x="94" y="306"/>
      <point x="94" y="471" type="qcurve" smooth="yes"/>
      <point x="94" y="608"/>
      <point x="176" y="852"/>
      <point x="321" y="1034"/>
      <point x="512" y="1167"/>
      <point x="739" y="1235"/>
      <point x="858" y="1235" type="qcurve" smooth="yes"/>
      <point x="1009" y="1235"/>
      <point x="1282" y="1124"/>
      <point x="1488" y="925"/>
      <point x="1610" y="629"/>
    </contour>
    <contour>
      <point x="1100" y="350" type="qcurve" smooth="yes"/>
      <point x="1100" y="426" type="line"/>
      <point x="1093" y="427"/>
      <point x="1009" y="452"/>
      <point x="903" y="471"/>
      <point x="848" y="471" type="qcurve" smooth="yes"/>
      <point x="732" y="471"/>
      <point x="584" y="385"/>
      <point x="584" y="291" type="qcurve" smooth="yes"/>
      <point x="584" y="213"/>
      <point x="695" y="111"/>
      <point x="786" y="111" type="qcurve" smooth="yes"/>
      <point x="883" y="111"/>
      <point x="975" y="156" type="qcurve" smooth="yes"/>
      <point x="1048" y="190"/>
      <point x="1100" y="287"/>
    </contour>
  </outline>
</glyph>
<glyph name="A" format="2">
  <advance width="1386"/>
  <unicode hex="0041"/>
  <anchor x="0" y="0" name="Anchor-11"/>
  <anchor x="0" y="0" name="Anchor-10"/>
  <anchor x="694" y="1450" name="Anchor-9"/>
  <anchor x="1366" y="0" name="Anchor-8"/>
  <anchor x="713" y="0" name="Anchor-7"/>
  <outline>
    <contour>
      <point x="616" y="1454" type="line"/>
      <point x="772" y="1454" type="line"/>
      <point x="1366" y="0" type="line"/>
      <point x="1169" y="0" type="line"/>
      <point x="997" y="426" type="line"/>
      <point x="387" y="426" type="line"/>
      <point x="217" y="0" type="line"/>
      <point x="20" y="0" type="line"/>
    </contour>
    <contour>
      <point x="956" y="569" type="line"/>
      <point x="694" y="1241" type="line"/>
      <point x="424" y="569" type="line"/>
    </contour>
  </outline>
</glyph>
<glyph name="B" format="2">
  <advance width="1374"/>
  <unicode hex="0042"/>
  <outline>
    <contour>
      <point x="864" y="0" type="qcurve" smooth="yes"/>
      <point x="174" y="0" type="line"/>
      <point x="174" y="1454" type="line"/>
      <point x="897" y="1454" type="line" smooth="yes"/>
      <point x="995" y="1454"/>
      <point x="1151" y="1343"/>
      <point x="1229" y="1176"/>
      <point x="1229" y="1083" type="qcurve" smooth="yes"/>
      <point x="1229" y="973"/>
      <point x="1118" y="788"/>
      <point x="1020" y="745" type="qcurve"/>
      <point x="1145" y="708"/>
      <point x="1290" y="510"/>
      <point x="1290" y="375" type="qcurve" smooth="yes"/>
      <point x="1290" y="210"/>
      <point x="1043" y="0"/>
    </contour>
    <contour>
      <point x="358" y="1294" type="line"/>
      <point x="358" y="809" type="line"/>
      <point x="821" y="809" type="line" smooth="yes"/>
      <point x="917" y="809"/>
      <point x="1047" y="950"/>
      <point x="1047" y="1051" type="qcurve" smooth="yes"/>
      <point x="1047" y="1154"/>
      <point x="926" y="1294"/>
      <point x="834" y="1294" type="qcurve" smooth="yes"/>
    </contour>
    <contour>
      <point x="879" y="659" type="qcurve" smooth="yes"/>
      <point x="358" y="659" type="line"/>
      <point x="358" y="160" type="line"/>
      <point x="864" y="160" type="line" smooth="yes"/>
      <point x="964" y="160"/>
      <point x="1104" y="308"/>
      <point x="1104" y="408" type="qcurve" smooth="yes"/>
      <point x="1104" y="510"/>
      <point x="974" y="659"/>
    </contour>
  </outline>
</glyph>
<glyph name="K" format="2">
  <advance width="1335"/>
  <unicode hex="004B"/>
  <anchor x="0" y="0" name="Anchor-11"/>
  <anchor x="0" y="0" name="Anchor-10"/>
  <anchor x="0" y="0" name="Anchor-9"/>
  <anchor x="0" y="0" name="Anchor-8"/>
  <anchor x="692" y="0" name="Anchor-7"/>
  <outline>
    <contour>
      <point x="174" y="0" type="line"/>
      <point x="174" y="1452" type="line"/>
      <point x="358" y="1452" type="line"/>
      <point x="358" y="649" type="line"/>
      <point x="1108" y="1454" type="line"/>
      <point x="1307" y="1454" type="line"/>
      <point x="723" y="813" type="line"/>
      <point x="1339" y="0" type="line"/>
      <point x="1133" y="0" type="line"/>
      <point x="606" y="702" type="line"/>
      <point x="358" y="444" type="line"/>
      <point x="358" y="0" type="line"/>
    </contour>
  </outline>
</glyph>
<glyph name="V" format="2">
  <advance width="1392"/>
  <unicode hex="0056"/>
  <outline>
    <contour>
      <point x="215" y="1454" type="line"/>
      <point x="696" y="231" type="line"/>
      <point x="1176" y="1454" type="line"/>
      <point x="1370" y="1454" type="line"/>
      <point x="780" y="0" type="line"/>
      <point x="612" y="0" type="line"/>
      <point x="20" y="1454" type="line"/>
    </contour>
  </outline>
</glyph>
<glyph name="W" format="2">
  <advance width="2148"/>
  <unicode hex="0057"/>
  <anchor x="0" y="0" name="Anchor-11"/>
  <anchor x="0" y="0" name="Anchor-10"/>
  <anchor x="1073" y="1450" name="Anchor-9"/>
  <anchor x="0" y="0" name="Anchor-8"/>
  <anchor x="0" y="0" name="Anchor-7"/>
  <outline>
    <contour>
      <point x="707" y="1446" type="line"/>
      <point x="881" y="1446" type="line"/>
      <point x="1073" y="940" type="line"/>
      <point x="1268" y="1446" type="line"/>
      <point x="1442" y="1446" type="line"/>
      <point x="1190" y="813" type="line"/>
      <point x="1440" y="213" type="line"/>
      <point x="1931" y="1454" type="line"/>
      <point x="2132" y="1454" type="line"/>
      <point x="1524" y="0" type="line"/>
      <point x="1364" y="0" type="line"/>
      <point x="1075" y="686" type="line"/>
      <point x="784" y="0" type="line"/>
      <point x="625" y="0" type="line"/>
      <point x="18" y="1454" type="line"/>
      <point x="217" y="1454" type="line"/>
      <point x="711" y="213" type="line"/>
      <point x="958" y="813" type="line"/>
    </contour>
  </outline>
</glyph>
<glyph name="X" format="2">
  <advance width="1304"/>
  <unicode hex="0058"/>
  <outline>
    <contour>
      <point x="215" y="1454" type="line"/>
      <point x="653" y="852" type="line"/>
      <point x="1092" y="1454" type="line"/>
      <point x="1298" y="1454" type="line"/>
      <point x="756" y="717" type="line"/>
      <point x="1282" y="0" type="line"/>
      <point x="1075" y="0" type="line"/>
      <point x="653" y="582" type="line"/>
      <point x="231" y="0" type="line"/>
      <point x="23" y="0" type="line"/>
      <point x="549" y="717" type="line"/>
      <point x="6" y="1454" type="line"/>
    </contour>
  </outline>
</glyph>
<glyph name="Y" format="2">
  <advance width="1341"/>
  <unicode hex="0059"/>
  <anchor x="0" y="0" name="Anchor-11"/>
  <anchor x="0" y="0" name="Anchor-10"/>
  <anchor x="670" y="1450" name="Anchor-9"/>
  <anchor x="0" y="0" name="Anchor-8"/>
  <anchor x="672" y="0" name="Anchor-7"/>
  <outline>
    <contour>
      <point x="229" y="1454" type="line"/>
      <point x="670" y="696" type="line"/>
      <point x="1114" y="1454" type="line"/>
      <point x="1315" y="1454" type="line"/>
      <point x="762" y="530" type="line"/>
      <point x="762" y="0" type="line"/>
      <point x="578" y="0" type="line"/>
      <point x="578" y="535" type="line"/>
      <point x="27" y="1454" type="line"/>
    </contour>
  </outline>
</glyph>
<glyph name="bracketleft" format="2">
  <advance width="552"/>
  <unicode hex="005B"/>
  <outline>
    <contour>
      <point x="172" y="-82" type="line"/>
      <point x="172" y="1516" type="line"/>
      <point x="459" y="1516" type="line"/>
      <point x="459" y="1368" type="line"/>
      <point x="340" y="1368" type="line"/>
      <point x="340" y="66" type="line"/>
      <point x="459" y="66" type="line"/>
      <point x="459" y="-82" type="line"/>
    </contour>
  </outline>
</glyph>
<glyph name="bracketright" format="2">
  <advance width="552"/>
  <unicode hex="005D"/>
  <outline>
    <contour>
      <point x="94" y="-82" type="line"/>
      <point x="94" y="66" type="line"/>
      <point x="213" y="66" type="line"/>
      <point x="213" y="1368" type="line"/>
      <point x="94" y="1368" type="line"/>
      <point x="94" y="1516" type="line"/>
      <point x="381" y="1516" type="line"/>
      <point x="381" y="-82" type="line"/>
    </contour>
  </outline>
</glyph>
<glyph name="asciicircum" format="2">
  <advance width="1132"/>
  <unicode hex="005E"/>
  <outline>
    <contour>
      <point x="86" y="621" type="line"/>
      <point x="492" y="1454" type="line"/>
      <point x="643" y="1454" type="line"/>
      <point x="1047" y="621" type="line"/>
      <point x="893" y="621" type="line"/>
      <point x="567" y="1292" type="line"/>
      <point x="236" y="621" type="line"/>
    </contour>
  </outline>
</glyph>
<glyph name="underscore" format="2">
  <advance width="1030"/>
  <unicode hex="005F"/>
  <outline>
    <contour>
      <point x="129" y="-164" type="line"/>
      <point x="129" y="0" type="line"/>
      <point x="901" y="0" type="line"/>
      <point x="901" y="-164" type="line"/>
    </contour>
  </outline>
</glyph>
<glyph name="grave" format="2">
  <advance width="475"/>
  <unicode hex="0060"/>
  <outline>
    <contour>
      <point x="98" y="1495" type="line"/>
      <point x="276" y="1495" type="line"/>
      <point x="397" y="1288" type="line"/>
      <point x="281" y="1247" type="line"/>
    </contour>
  </outline>
</glyph>
<glyph name="b" format="2">
  <advance width="1275"/>
  <unicode hex="0062"/>
  <outline>
    <contour>
      <point x="305" y="201" type="qcurve"/>
      <point x="305" y="0" type="line"/>
      <point x="145" y="0" type="line"/>
      <point x="145" y="1495" type="line"/>
      <point x="326" y="1495" type="line"/>
      <point x="326" y="856" type="line"/>
      <point x="476" y="1087"/>
      <point x="721" y="1087" type="qcurve" smooth="yes"/>
      <point x="862" y="1087"/>
      <point x="1085" y="927"/>
      <point x="1200" y="675"/>
      <point x="1200" y="530" type="qcurve" smooth="yes"/>
      <point x="1200" y="381"/>
      <point x="1068" y="129"/>
      <point x="835" y="-20"/>
      <point x="694" y="-20" type="qcurve" smooth="yes"/>
      <point x="572" y="-20"/>
      <point x="365" y="101"/>
    </contour>
    <contour>
      <point x="1016" y="530" type="qcurve" smooth="yes"/>
      <point x="1016" y="635"/>
      <point x="929" y="818"/>
      <point x="766" y="932"/>
      <point x="666" y="932" type="qcurve" smooth="yes"/>
      <point x="556" y="932"/>
      <point x="377" y="790"/>
      <point x="326" y="682" type="qcurve"/>
      <point x="326" y="373" type="line"/>
      <point x="345" y="276"/>
      <point x="548" y="135"/>
      <point x="649" y="135" type="qcurve" smooth="yes"/>
      <point x="806" y="135"/>
      <point x="1016" y="372"/>
    </contour>
  </outline>
</glyph>
<glyph name="f" format="2">
  <advance width="702"/>
  <unicode hex="0066"/>
  <outline>
    <contour>
      <point x="203" y="0" type="line"/>
      <point x="203" y="928" type="line"/>
      <point x="57" y="928" type="line"/>
      <point x="57" y="1069" type="line"/>
      <point x="203" y="1069" type="line"/>
      <point x="203" y="1092" type="line" smooth="yes"/>
      <point x="203" y="1288"/>
      <point x="379" y="1516"/>
      <point x="530" y="1516" type="qcurve" smooth="yes"/>
      <point x="660" y="1516"/>
      <point x="766" y="1450" type="qcurve"/>
      <point x="721" y="1317" type="line"/>
      <point x="656" y="1362"/>
      <point x="478" y="1362"/>
      <point x="383" y="1226"/>
      <point x="383" y="1098" type="qcurve" smooth="yes"/>
      <point x="383" y="1069" type="line"/>
      <point x="668" y="1069" type="line"/>
      <point x="668" y="928" type="line"/>
      <point x="383" y="928" type="line"/>
      <point x="383" y="0" type="line"/>
    </contour>
  </outline>
</glyph>
<glyph name="i" format="2">
  <advance width="471"/>
  <unicode hex="0069"/>
  <anchor x="0" y="0" name="Anchor-11"/>
  <anchor x="0" y="0" name="Anchor-10"/>
  <anchor x="0" y="0" name="Anchor-9"/>
  <anchor x="326" y="0" name="Anchor-8"/>
  <anchor x="236" y="0" name="Anchor-7"/>
  <outline>
    <contour>
      <point x="145" y="1270" type="line"/>
      <point x="145" y="1495" type="line"/>
      <point x="326" y="1495" type="line"/>
      <point x="326" y="1270" type="line"/>
    </contour>
    <contour>
      <point x="145" y="0" type="line"/>
      <point x="145" y="1069" type="line"/>
      <point x="326" y="1069" type="line"/>
      <point x="326" y="0" type="line"/>
    </contour>
  </outline>
</glyph>
<glyph name="k" format="2">
  <advance width="1103"/>
  <unicode hex="006B"/>
  <anchor x="0" y="0" name="Anchor-11"/>
  <anchor x="0" y="0" name="Anchor-10"/>
  <anchor x="0" y="0" name="Anchor-9"/>
  <anchor x="0" y="0" name="Anchor-8"/>
  <anchor x="573" y="0" name="Anchor-7"/>
  <outline>
    <contour>
      <point x="899" y="0" type="line"/>
      <point x="528" y="520" type="line"/>
      <point x="326" y="330" type="line"/>
      <point x="326" y="0" type="line"/>
      <point x="145" y="0" type="line"/>
      <point x="145" y="1495" type="line"/>
      <point x="326" y="1495" type="line"/>
      <point x="326" y="518" type="line"/>
      <point x="879" y="1067" type="line"/>
      <point x="1073" y="1067" type="line"/>
      <point x="647" y="625" type="line"/>
      <point x="1094" y="0" type="line"/>
    </contour>
  </outline>
</glyph>
<glyph name="m" format="2">
  <advance width="1892"/>
  <unicode hex="006D"/>
  <anchor x="0" y="0" name="Anchor-11"/>
  <anchor x="0" y="0" name="Anchor-10"/>
  <anchor x="946" y="1069" name="Anchor-9"/>
  <anchor x="0" y="0" name="Anchor-8"/>
  <anchor x="946" y="0" name="Anchor-7"/>
  <outline>
    <contour>
      <point x="1757" y="0" type="line"/>
      <point x="1577" y="0" type="line"/>
      <point x="1577" y="598" type="line" smooth="yes"/>
      <point x="1577" y="926"/>
      <point x="1362" y="926" type="qcurve" smooth="yes"/>
      <point x="1254" y="926"/>
      <point x="1077" y="769"/>
      <point x="1040" y="643" type="qcurve"/>
      <point x="1040" y="0" type="line"/>
      <point x="860" y="0" type="line"/>
      <point x="860" y="598" type="line" smooth="yes"/>
      <point x="860" y="766"/>
      <point x="754" y="926"/>
      <point x="540" y="926"/>
      <point x="363" y="771"/>
      <point x="326" y="645" type="qcurve"/>
      <point x="326" y="0" type="line"/>
      <point x="145" y="0" type="line"/>
      <point x="145" y="1069" type="line"/>
      <point x="309" y="1069" type="line"/>
      <point x="309" y="840" type="line"/>
      <point x="374" y="959"/>
      <point x="585" y="1087"/>
      <point x="845" y="1087"/>
      <point x="1007" y="945"/>
      <point x="1026" y="827" type="qcurve"/>
      <point x="1170" y="1087"/>
      <point x="1434" y="1087" type="qcurve" smooth="yes"/>
      <point x="1757" y="1087"/>
      <point x="1757" y="639" type="qcurve" smooth="yes"/>
    </contour>
  </outline>
</glyph>
<glyph name="v" format="2">
  <advance width="1103"/>
  <unicode hex="0076"/>
  <outline>
    <contour>
      <point x="453" y="0" type="line"/>
      <point x="33" y="1069" type="line"/>
      <point x="221" y="1069" type="line"/>
      <point x="557" y="172" type="line"/>
      <point x="893" y="1069" type="line"/>
      <point x="1069" y="1069" type="line"/>
      <point x="649" y="0" type="line"/>
    </contour>
  </outline>
</glyph>
<glyph name="braceleft" format="2">
  <advance width="555"/>
  <unicode hex="007B"/>
  <outline>
    <contour>
      <point x="346" y="1368" type="line"/>
      <point x="346" y="868" type="line" smooth="yes"/>
      <point x="346" y="791"/>
      <point x="287" y="737" type="qcurve"/>
      <point x="316" y="711"/>
      <point x="346" y="637"/>
      <point x="346" y="606" type="qcurve" smooth="yes"/>
      <point x="346" y="84" type="line"/>
      <point x="459" y="84" type="line"/>
      <point x="459" y="-63" type="line"/>
      <point x="229" y="-63" type="line" smooth="yes"/>
      <point x="211" y="-63"/>
      <point x="182" y="-34"/>
      <point x="182" y="-2" type="qcurve" smooth="yes"/>
      <point x="182" y="553" type="line" smooth="yes"/>
      <point x="182" y="598"/>
      <point x="134" y="668"/>
      <point x="96" y="674" type="qcurve"/>
      <point x="96" y="805" type="line"/>
      <point x="135" y="805"/>
      <point x="182" y="884"/>
      <point x="182" y="922" type="qcurve" smooth="yes"/>
      <point x="182" y="1454" type="line" smooth="yes"/>
      <point x="182" y="1487"/>
      <point x="213" y="1516"/>
      <point x="229" y="1516" type="qcurve" smooth="yes"/>
      <point x="459" y="1516" type="line"/>
      <point x="459" y="1368" type="line"/>
    </contour>
  </outline>
</glyph>
<glyph name="braceright" format="2">
  <advance width="555"/>
  <unicode hex="007D"/>
  <outline>
    <contour>
      <point x="96" y="1368" type="line"/>
      <point x="96" y="1516" type="line"/>
      <point x="326" y="1516" type="line" smooth="yes"/>
      <point x="341" y="1516"/>
      <point x="373" y="1487"/>
      <point x="373" y="1454" type="qcurve" smooth="yes"/>
      <point x="373" y="922" type="line" smooth="yes"/>
      <point x="373" y="884"/>
      <point x="420" y="805"/>
      <point x="459" y="805" type="qcurve"/>
      <point x="459" y="674" type="line"/>
      <point x="420" y="668"/>
      <point x="373" y="599"/>
      <point x="373" y="553" type="qcurve" smooth="yes"/>
      <point x="373" y="-2" type="line" smooth="yes"/>
      <point x="373" y="-34"/>
      <point x="343" y="-63"/>
      <point x="326" y="-63" type="qcurve" smooth="yes"/>
      <point x="96" y="-63" type="line"/>
      <point x="96" y="84" type="line"/>
      <point x="209" y="84" type="line"/>
      <point x="209" y="606" type="line" smooth="yes"/>
      <point x="209" y="638"/>
      <point x="238" y="711"/>
      <point x="268" y="737" type="qcurve"/>
      <point x="209" y="791"/>
      <point x="209" y="868" type="qcurve" smooth="yes"/>
      <point x="209" y="1368" type="line"/>
    </contour>
  </outline>
</glyph>
<glyph name="asciitilde" format="2">
  <advance width="1089"/>
  <unicode hex="007E"/>
  <outline>
    <contour>
      <point x="373" y="715" type="qcurve" smooth="yes"/>
      <point x="417" y="715"/>
      <point x="512" y="678"/>
      <point x="582" y="635"/>
      <point x="672" y="598"/>
      <point x="711" y="598" type="qcurve" smooth="yes"/>
      <point x="741" y="598"/>
      <point x="791" y="618"/>
      <point x="822" y="647"/>
      <point x="843" y="679"/>
      <point x="852" y="701"/>
      <point x="852" y="705" type="qcurve"/>
      <point x="958" y="705" type="line"/>
      <point x="958" y="698"/>
      <point x="944" y="654"/>
      <point x="906" y="588"/>
      <point x="853" y="528"/>
      <point x="762" y="485"/>
      <point x="709" y="485" type="qcurve" smooth="yes"/>
      <point x="662" y="485"/>
      <point x="562" y="521"/>
      <point x="491" y="564"/>
      <point x="405" y="600"/>
      <point x="371" y="600" type="qcurve" smooth="yes"/>
      <point x="343" y="600"/>
      <point x="295" y="577"/>
      <point x="267" y="545"/>
      <point x="248" y="510"/>
      <point x="240" y="487"/>
      <point x="240" y="485" type="qcurve"/>
      <point x="133" y="485" type="line"/>
      <point x="133" y="497"/>
      <point x="148" y="546"/>
      <point x="185" y="614"/>
      <point x="237" y="673"/>
      <point x="323" y="715"/>
    </contour>
  </outline>
</glyph>
<glyph name="exclamdown" format="2">
  <advance width="532"/>
  <unicode hex="00A1"/>
  <outline>
    <contour>
      <point x="356" y="1462" type="line"/>
      <point x="356" y="1208" type="line"/>
      <point x="176" y="1208" type="line"/>
      <point x="176" y="1462" type="line"/>
    </contour>
    <contour>
      <point x="356" y="971" type="line"/>
      <point x="356" y="-6" type="line"/>
      <point x="176" y="-6" type="line"/>
      <point x="176" y="971" type="line"/>
    </contour>
  </outline>
</glyph>
<glyph name="cent" format="2">
  <advance width="1167"/>
  <unicode hex="00A2"/>
  <outline>
    <contour>
      <point x="565" y="-246" type="line"/>
      <point x="565" y="-18" type="line"/>
      <point x="429" y="-7"/>
      <point x="206" y="157"/>
      <point x="86" y="398"/>
      <point x="86" y="528" type="qcurve" smooth="yes"/>
      <point x="86" y="667"/>
      <point x="199" y="907"/>
      <point x="420" y="1069"/>
      <point x="565" y="1085" type="qcurve"/>
      <point x="565" y="1321" type="line"/>
      <point x="655" y="1321" type="line"/>
      <point x="655" y="1085" type="line"/>
      <point x="802" y="1081"/>
      <point x="1018" y="947"/>
      <point x="1079" y="827" type="qcurve"/>
      <point x="905" y="772" type="line"/>
      <point x="865" y="844"/>
      <point x="734" y="921"/>
      <point x="655" y="926" type="qcurve"/>
      <point x="655" y="139" type="line"/>
      <point x="734" y="146"/>
      <point x="893" y="236"/>
      <point x="913" y="301" type="qcurve"/>
      <point x="1090" y="248" type="line"/>
      <point x="1065" y="184"/>
      <point x="962" y="79"/>
      <point x="838" y="15"/>
      <point x="711" y="-20"/>
      <point x="655" y="-20" type="qcurve"/>
      <point x="655" y="-246" type="line"/>
    </contour>
    <contour>
      <point x="565" y="147" type="qcurve"/>
      <point x="565" y="920" type="line"/>
      <point x="431" y="903"/>
      <point x="270" y="672"/>
      <point x="270" y="528" type="qcurve" smooth="yes"/>
      <point x="270" y="390"/>
      <point x="437" y="172"/>
    </contour>
  </outline>
</glyph>
<glyph name="sterling" format="2">
  <advance width="1048"/>
  <unicode hex="00A3"/>
  <outline>
    <contour>
      <point x="922" y="162" type="qcurve"/>
      <point x="967" y="25" type="line"/>
      <point x="855" y="-31"/>
      <point x="739" y="-31" type="qcurve" smooth="yes"/>
      <point x="678" y="-31"/>
      <point x="451" y="20"/>
      <point x="387" y="20" type="qcurve" smooth="yes"/>
      <point x="270" y="20"/>
      <point x="154" y="-16" type="qcurve"/>
      <point x="109" y="115" type="line"/>
      <point x="240" y="239"/>
      <point x="352" y="432"/>
      <point x="352" y="532" type="qcurve" smooth="yes"/>
      <point x="352" y="582"/>
      <point x="340" y="629" type="qcurve"/>
      <point x="109" y="629" type="line"/>
      <point x="109" y="768" type="line"/>
      <point x="289" y="768" type="line"/>
      <point x="277" y="792"/>
      <point x="215" y="907"/>
      <point x="186" y="968"/>
      <point x="158" y="1065"/>
      <point x="158" y="1110" type="qcurve" smooth="yes"/>
      <point x="158" y="1257"/>
      <point x="385" y="1464"/>
      <point x="545" y="1464" type="qcurve" smooth="yes"/>
      <point x="660" y="1464"/>
      <point x="866" y="1349"/>
      <point x="932" y="1249" type="qcurve"/>
      <point x="831" y="1139" type="line"/>
      <point x="781" y="1219"/>
      <point x="623" y="1315"/>
      <point x="541" y="1315" type="qcurve" smooth="yes"/>
      <point x="449" y="1315"/>
      <point x="324" y="1188"/>
      <point x="324" y="1096" type="qcurve" smooth="yes"/>
      <point x="324" y="1046"/>
      <point x="362" y="946"/>
      <point x="441" y="803"/>
      <point x="457" y="768" type="qcurve"/>
      <point x="823" y="768" type="line"/>
      <point x="823" y="629" type="line"/>
      <point x="502" y="629" type="line"/>
      <point x="510" y="590"/>
      <point x="510" y="541" type="qcurve" smooth="yes"/>
      <point x="510" y="441"/>
      <point x="419" y="259"/>
      <point x="309" y="141" type="qcurve"/>
      <point x="388" y="162"/>
      <point x="461" y="162" type="qcurve" smooth="yes"/>
      <point x="518" y="162"/>
      <point x="702" y="125"/>
      <point x="748" y="125" type="qcurve" smooth="yes"/>
      <point x="818" y="125"/>
    </contour>
  </outline>
</glyph>
<glyph name="currency" format="2">
  <advance width="1101"/>
  <unicode hex="00A4"/>
  <outline>
    <contour>
      <point x="328" y="995" type="line"/>
      <point x="422" y="1067"/>
      <point x="551" y="1067" type="qcurve" smooth="yes"/>
      <point x="676" y="1067"/>
      <point x="774" y="995" type="qcurve"/>
      <point x="920" y="1143" type="line"/>
      <point x="1004" y="1059" type="line"/>
      <point x="856" y="911" type="line"/>
      <point x="924" y="815"/>
      <point x="924" y="690" type="qcurve" smooth="yes"/>
      <point x="924" y="567"/>
      <point x="854" y="469" type="qcurve"/>
      <point x="1004" y="322" type="line"/>
      <point x="930" y="248" type="line"/>
      <point x="778" y="389" type="line"/>
      <point x="681" y="315"/>
      <point x="551" y="315" type="qcurve" smooth="yes"/>
      <point x="422" y="315"/>
      <point x="322" y="389" type="qcurve"/>
      <point x="172" y="248" type="line"/>
      <point x="98" y="322" type="line"/>
      <point x="246" y="469" type="line"/>
      <point x="178" y="569"/>
      <point x="178" y="690" type="qcurve" smooth="yes"/>
      <point x="178" y="817"/>
      <point x="244" y="911" type="qcurve"/>
      <point x="98" y="1059" type="line"/>
      <point x="182" y="1143" type="line"/>
    </contour>
    <contour>
      <point x="645" y="440"/>
      <point x="776" y="586"/>
      <point x="776" y="692" type="qcurve" smooth="yes"/>
      <point x="776" y="797"/>
      <point x="645" y="940"/>
      <point x="457" y="940"/>
      <point x="326" y="795"/>
      <point x="326" y="688" type="qcurve" smooth="yes"/>
      <point x="326" y="584"/>
      <point x="457" y="440"/>
    </contour>
  </outline>
</glyph>
<glyph name="yen" format="2">
  <advance width="1406"/>
  <unicode hex="00A5"/>
  <outline>
    <contour>
      <point x="930" y="772" type="line"/>
      <point x="1096" y="772" type="line"/>
      <point x="1096" y="649" type="line"/>
      <point x="862" y="649" type="line"/>
      <point x="793" y="530" type="line"/>
      <point x="793" y="473" type="line"/>
      <point x="1098" y="473" type="line"/>
      <point x="1098" y="350" type="line"/>
      <point x="793" y="350" type="line"/>
      <point x="793" y="0" type="line"/>
      <point x="608" y="0" type="line"/>
      <point x="608" y="350" type="line"/>
      <point x="307" y="350" type="line"/>
      <point x="307" y="473" type="line"/>
      <point x="608" y="473" type="line"/>
      <point x="608" y="535" type="line"/>
      <point x="543" y="649" type="line"/>
      <point x="307" y="649" type="line"/>
      <point x="307" y="772" type="line"/>
      <point x="477" y="772" type="line"/>
      <point x="59" y="1454" type="line"/>
      <point x="260" y="1454" type="line"/>
      <point x="700" y="696" type="line"/>
      <point x="1145" y="1454" type="line"/>
      <point x="1348" y="1454" type="line"/>
    </contour>
  </outline>
</glyph>
<glyph name="brokenbar" format="2">
  <advance width="495"/>
  <unicode hex="00A6"/>
  <outline>
    <contour>
      <point x="326" y="1587" type="line"/>
      <point x="326" y="762" type="line"/>
      <point x="170" y="762" type="line"/>
      <point x="170" y="1587" type="line"/>
    </contour>
    <contour>
      <point x="326" y="559" type="line"/>
      <point x="326" y="-266" type="line"/>
      <point x="170" y="-266" type="line"/>
      <point x="170" y="559" type="line"/>
    </contour>
  </outline>
</glyph>
<glyph name="section" format="2">
  <advance width="1058"/>
  <unicode hex="00A7"/>
  <outline>
    <contour>
      <point x="969" y="199" type="qcurve" smooth="yes"/>
      <point x="969" y="105"/>
      <point x="889" y="-46"/>
      <point x="760" y="-134"/>
      <point x="615" y="-180"/>
      <point x="543" y="-180" type="qcurve" smooth="yes"/>
      <point x="305" y="-180"/>
      <point x="125" y="14" type="qcurve"/>
      <point x="242" y="125" type="line"/>
      <point x="378" y="-8"/>
      <point x="537" y="-8" type="qcurve" smooth="yes"/>
      <point x="634" y="-8"/>
      <point x="782" y="102"/>
      <point x="782" y="193" type="qcurve" smooth="yes"/>
      <point x="782" y="232"/>
      <point x="753" y="291"/>
      <point x="712" y="325"/>
      <point x="646" y="346"/>
      <point x="590" y="354"/>
      <point x="553" y="356" type="qcurve" smooth="yes"/>
      <point x="365" y="367"/>
      <point x="145" y="543"/>
      <point x="145" y="698" type="qcurve" smooth="yes"/>
      <point x="145" y="800"/>
      <point x="195" y="866" type="qcurve"/>
      <point x="153" y="900"/>
      <point x="96" y="1025"/>
      <point x="96" y="1102" type="qcurve" smooth="yes"/>
      <point x="96" y="1203"/>
      <point x="213" y="1372"/>
      <point x="401" y="1464"/>
      <point x="506" y="1464" type="qcurve" smooth="yes"/>
      <point x="756" y="1464"/>
      <point x="901" y="1251" type="qcurve"/>
      <point x="762" y="1186" type="line"/>
      <point x="730" y="1245"/>
      <point x="595" y="1303"/>
      <point x="516" y="1303" type="qcurve" smooth="yes"/>
      <point x="420" y="1303"/>
      <point x="279" y="1193"/>
      <point x="279" y="1104" type="qcurve" smooth="yes"/>
      <point x="279" y="923"/>
      <point x="518" y="920" type="qcurve" smooth="yes"/>
      <point x="597" y="919"/>
      <point x="740" y="883"/>
      <point x="864" y="810"/>
      <point x="938" y="680"/>
      <point x="938" y="594" type="qcurve" smooth="yes"/>
      <point x="938" y="538"/>
      <point x="906" y="440"/>
      <point x="881" y="412" type="qcurve"/>
      <point x="969" y="352"/>
    </contour>
    <contour>
      <point x="713" y="461" type="qcurve"/>
      <point x="737" y="481"/>
      <point x="766" y="552"/>
      <point x="766" y="590" type="qcurve" smooth="yes"/>
      <point x="766" y="640"/>
      <point x="721" y="714"/>
      <point x="646" y="753"/>
      <point x="566" y="772"/>
      <point x="524" y="772" type="qcurve" smooth="yes"/>
      <point x="433" y="772"/>
      <point x="367" y="799" type="qcurve"/>
      <point x="322" y="754"/>
      <point x="322" y="676" type="qcurve" smooth="yes"/>
      <point x="322" y="622"/>
      <point x="364" y="547"/>
      <point x="428" y="512"/>
      <point x="517" y="490"/>
      <point x="598" y="484"/>
      <point x="687" y="471"/>
    </contour>
  </outline>
</glyph>
<glyph name="dieresis" format="2">
  <advance width="753"/>
  <unicode hex="00A8"/>
  <anchor x="377" y="1475" name="Anchor-13"/>
  <outline>
    <contour>
      <point x="135" y="1278" type="line"/>
      <point x="135" y="1487" type="line"/>
      <point x="287" y="1487" type="line"/>
      <point x="287" y="1278" type="line"/>
    </contour>
    <contour>
      <point x="467" y="1278" type="line"/>
      <point x="467" y="1487" type="line"/>
      <point x="618" y="1487" type="line"/>
      <point x="618" y="1278" type="line"/>
    </contour>
  </outline>
</glyph>
<glyph name="copyright" format="2">
  <advance width="1712"/>
  <unicode hex="00A9"/>
  <outline>
    <contour>
      <point x="96" y="727" type="qcurve" smooth="yes"/>
      <point x="96" y="935"/>
      <point x="292" y="1273"/>
      <point x="638" y="1464"/>
      <point x="852" y="1464" type="qcurve" smooth="yes"/>
      <point x="982" y="1464"/>
      <point x="1217" y="1392"/>
      <point x="1404" y="1259"/>
      <point x="1542" y="1079"/>
      <point x="1616" y="852"/>
      <point x="1616" y="727" type="qcurve" smooth="yes"/>
      <point x="1616" y="570"/>
      <point x="1500" y="295"/>
      <point x="1298" y="99"/>
      <point x="1014" y="-14"/>
      <point x="852" y="-14" type="qcurve" smooth="yes"/>
      <point x="692" y="-14"/>
      <point x="411" y="99"/>
      <point x="211" y="295"/>
      <point x="96" y="570"/>
    </contour>
    <contour>
      <point x="1520" y="723" type="qcurve" smooth="yes"/>
      <point x="1520" y="906"/>
      <point x="1347" y="1204"/>
      <point x="1041" y="1374"/>
      <point x="852" y="1374" type="qcurve" smooth="yes"/>
      <point x="666" y="1374"/>
      <point x="363" y="1205"/>
      <point x="190" y="907"/>
      <point x="190" y="725" type="qcurve" smooth="yes"/>
      <point x="190" y="544"/>
      <point x="362" y="246"/>
      <point x="665" y="76"/>
      <point x="852" y="76" type="qcurve" smooth="yes"/>
      <point x="1038" y="76"/>
      <point x="1343" y="238"/>
      <point x="1520" y="535"/>
    </contour>
    <contour>
      <point x="379" y="727" type="qcurve" smooth="yes"/>
      <point x="379" y="799"/>
      <point x="416" y="936"/>
      <point x="494" y="1060"/>
      <point x="604" y="1153"/>
      <point x="764" y="1208"/>
      <point x="858" y="1208" type="qcurve" smooth="yes"/>
      <point x="1002" y="1208"/>
      <point x="1221" y="1084"/>
      <point x="1270" y="971" type="qcurve"/>
      <point x="1096" y="915" type="line"/>
      <point x="1061" y="990"/>
      <point x="928" y="1053"/>
      <point x="858" y="1053" type="qcurve" smooth="yes"/>
      <point x="720" y="1053"/>
      <point x="563" y="858"/>
      <point x="563" y="727" type="qcurve" smooth="yes"/>
      <point x="563" y="629"/>
      <point x="657" y="476"/>
      <point x="791" y="403"/>
      <point x="862" y="403" type="qcurve" smooth="yes"/>
      <point x="936" y="403"/>
      <point x="1077" y="482"/>
      <point x="1108" y="547" type="qcurve"/>
      <point x="1282" y="494" type="line"/>
      <point x="1244" y="400"/>
      <point x="1017" y="248"/>
      <point x="868" y="248" type="qcurve" smooth="yes"/>
      <point x="735" y="248"/>
      <point x="513" y="367"/>
      <point x="379" y="588"/>
    </contour>
  </outline>
</glyph>
<glyph name="ordfeminine" format="2">
  <advance width="897"/>
  <unicode hex="00AA"/>
  <anchor x="0" y="0" name="Anchor-11"/>
  <anchor x="0" y="0" name="Anchor-10"/>
  <anchor x="522" y="1063" name="Anchor-9"/>
  <anchor x="0" y="0" name="Anchor-8"/>
  <anchor x="918" y="23" name="Anchor-7"/>
  <outline>
    <contour>
      <point x="94" y="932" type="qcurve" smooth="yes"/>
      <point x="94" y="1033"/>
      <point x="265" y="1161"/>
      <point x="399" y="1161" type="qcurve" smooth="yes"/>
      <point x="515" y="1161"/>
      <point x="596" y="1126" type="qcurve"/>
      <point x="596" y="1178" type="line" smooth="yes"/>
      <point x="596" y="1261"/>
      <point x="501" y="1354"/>
      <point x="414" y="1354" type="qcurve" smooth="yes"/>
      <point x="307" y="1354"/>
      <point x="182" y="1270" type="qcurve"/>
      <point x="135" y="1362" type="line"/>
      <point x="278" y="1456"/>
      <point x="426" y="1456" type="qcurve" smooth="yes"/>
      <point x="575" y="1456"/>
      <point x="741" y="1302"/>
      <point x="741" y="1161" type="qcurve" smooth="yes"/>
      <point x="741" y="893" type="line" smooth="yes"/>
      <point x="741" y="868"/>
      <point x="761" y="845"/>
      <point x="784" y="844" type="qcurve"/>
      <point x="784" y="717" type="line"/>
      <point x="744" y="711"/>
      <point x="721" y="711" type="qcurve" smooth="yes"/>
      <point x="678" y="711"/>
      <point x="626" y="755"/>
      <point x="621" y="791" type="qcurve" smooth="yes"/>
      <point x="618" y="838" type="line"/>
      <point x="567" y="774"/>
      <point x="422" y="705"/>
      <point x="338" y="705" type="qcurve" smooth="yes"/>
      <point x="235" y="705"/>
      <point x="94" y="836"/>
    </contour>
    <contour>
      <point x="569" y="891" type="qcurve"/>
      <point x="596" y="915"/>
      <point x="596" y="944" type="qcurve" smooth="yes"/>
      <point x="596" y="1042" type="line"/>
      <point x="527" y="1073"/>
      <point x="424" y="1073" type="qcurve" smooth="yes"/>
      <point x="337" y="1073"/>
      <point x="231" y="1002"/>
      <point x="231" y="944" type="qcurve" smooth="yes"/>
      <point x="231" y="888"/>
      <point x="316" y="813"/>
      <point x="379" y="813" type="qcurve" smooth="yes"/>
      <point x="437" y="813"/>
      <point x="541" y="856"/>
    </contour>
  </outline>
</glyph>
<glyph name="guillemotleft" format="2">
  <advance width="1220"/>
  <unicode hex="00AB"/>
  <outline>
    <contour>
      <point x="82" y="573" type="line"/>
      <point x="600" y="944" type="line"/>
      <point x="600" y="793" type="line"/>
      <point x="227" y="530" type="line"/>
      <point x="600" y="274" type="line"/>
      <point x="600" y="123" type="line"/>
      <point x="82" y="479" type="line"/>
    </contour>
    <contour>
      <point x="578" y="573" type="line"/>
      <point x="1096" y="944" type="line"/>
      <point x="1096" y="793" type="line"/>
      <point x="723" y="530" type="line"/>
      <point x="1096" y="274" type="line"/>
      <point x="1096" y="123" type="line"/>
      <point x="578" y="479" type="line"/>
    </contour>
  </outline>
</glyph>
<glyph name="logicalnot" format="2">
  <advance width="1210"/>
  <unicode hex="00AC"/>
  <outline>
    <contour>
      <point x="1067" y="768" type="line"/>
      <point x="1067" y="246" type="line"/>
      <point x="911" y="246" type="line"/>
      <point x="911" y="604" type="line"/>
      <point x="137" y="604" type="line"/>
      <point x="137" y="768" type="line"/>
    </contour>
  </outline>
</glyph>
<glyph name="sfthyphen" format="2">
  <advance width="1191"/>
  <unicode hex="00AD"/>
  <outline>
    <contour>
      <point x="131" y="477" type="line"/>
      <point x="131" y="641" type="line"/>
      <point x="1061" y="641" type="line"/>
      <point x="1061" y="477" type="line"/>
    </contour>
  </outline>
</glyph>
<glyph name="registered" format="2">
  <advance width="1712"/>
  <unicode hex="00AE"/>
  <outline>
    <contour>
      <point x="96" y="727" type="qcurve" smooth="yes"/>
      <point x="96" y="883"/>
      <point x="211" y="1157"/>
      <point x="411" y="1352"/>
      <point x="693" y="1464"/>
      <point x="1015" y="1464"/>
      <point x="1298" y="1352"/>
      <point x="1500" y="1157"/>
      <point x="1616" y="883"/>
      <point x="1616" y="727" type="qcurve" smooth="yes"/>
      <point x="1616" y="570"/>
      <point x="1500" y="295"/>
      <point x="1298" y="99"/>
      <point x="1015" y="-14"/>
      <point x="693" y="-14"/>
      <point x="411" y="99"/>
      <point x="211" y="295"/>
      <point x="96" y="570"/>
    </contour>
    <contour>
      <point x="1518" y="725" type="qcurve" smooth="yes"/>
      <point x="1518" y="906"/>
      <point x="1346" y="1204"/>
      <point x="1041" y="1374"/>
      <point x="854" y="1374" type="qcurve" smooth="yes"/>
      <point x="714" y="1374"/>
      <point x="468" y="1274"/>
      <point x="295" y="1101"/>
      <point x="195" y="862"/>
      <point x="195" y="727" type="qcurve" smooth="yes"/>
      <point x="195" y="590"/>
      <point x="295" y="349"/>
      <point x="468" y="175"/>
      <point x="714" y="74"/>
      <point x="854" y="74" type="qcurve" smooth="yes"/>
      <point x="1039" y="74"/>
      <point x="1342" y="237"/>
      <point x="1518" y="536"/>
    </contour>
    <contour>
      <point x="537" y="1186" type="line"/>
      <point x="930" y="1186" type="line" smooth="yes"/>
      <point x="1047" y="1186"/>
      <point x="1208" y="1003"/>
      <point x="1208" y="891" type="qcurve" smooth="yes"/>
      <point x="1208" y="795"/>
      <point x="1099" y="639"/>
      <point x="1012" y="618" type="qcurve"/>
      <point x="1235" y="266" type="line"/>
      <point x="1085" y="266" type="line"/>
      <point x="877" y="598" type="line"/>
      <point x="670" y="598" type="line"/>
      <point x="670" y="266" type="line"/>
      <point x="537" y="266" type="line"/>
    </contour>
    <contour>
      <point x="924" y="715" type="line" smooth="yes"/>
      <point x="996" y="715"/>
      <point x="1077" y="813"/>
      <point x="1077" y="891" type="qcurve" smooth="yes"/>
      <point x="1077" y="968"/>
      <point x="986" y="1065"/>
      <point x="918" y="1065" type="qcurve" smooth="yes"/>
      <point x="670" y="1065" type="line"/>
      <point x="670" y="715" type="line"/>
    </contour>
  </outline>
</glyph>
<glyph name="macron" format="2">
  <advance width="825"/>
  <unicode hex="00AF"/>
  <anchor x="414" y="1458" name="Anchor-13"/>
  <outline>
    <contour>
      <point x="115" y="1339" type="line"/>
      <point x="115" y="1458" type="line"/>
      <point x="713" y="1458" type="line"/>
      <point x="713" y="1339" type="line"/>
    </contour>
  </outline>
</glyph>
<glyph name="degree" format="2">
  <advance width="557"/>
  <unicode hex="00B0"/>
  <outline>
    <contour>
      <point x="279" y="1483" type="qcurve" smooth="yes"/>
      <point x="357" y="1483"/>
      <point x="461" y="1380"/>
      <point x="461" y="1305" type="qcurve" smooth="yes"/>
      <point x="461" y="1224"/>
      <point x="357" y="1118"/>
      <point x="279" y="1118" type="qcurve" smooth="yes"/>
      <point x="202" y="1118"/>
      <point x="96" y="1226"/>
      <point x="96" y="1305" type="qcurve" smooth="yes"/>
      <point x="96" y="1380"/>
      <point x="202" y="1483"/>
    </contour>
    <contour>
      <point x="193" y="1265"/>
      <point x="217" y="1241" type="qcurve" smooth="yes"/>
      <point x="244" y="1214"/>
      <point x="279" y="1214" type="qcurve" smooth="yes"/>
      <point x="316" y="1214"/>
      <point x="340" y="1241" type="qcurve" smooth="yes"/>
      <point x="365" y="1266"/>
      <point x="365" y="1300" type="qcurve" smooth="yes"/>
      <point x="365" y="1333"/>
      <point x="340" y="1362" type="qcurve" smooth="yes"/>
      <point x="319" y="1386"/>
      <point x="279" y="1386" type="qcurve" smooth="yes"/>
      <point x="241" y="1386"/>
      <point x="217" y="1362" type="qcurve" smooth="yes"/>
      <point x="193" y="1335"/>
    </contour>
  </outline>
</glyph>
<glyph name="plusminus" format="2">
  <advance width="954"/>
  <unicode hex="00B1"/>
  <outline>
    <contour>
      <point x="817" y="827" type="line"/>
      <point x="817" y="680" type="line"/>
      <point x="559" y="680" type="line"/>
      <point x="559" y="401" type="line"/>
      <point x="395" y="401" type="line"/>
      <point x="395" y="680" type="line"/>
      <point x="137" y="680" type="line"/>
      <point x="137" y="827" type="line"/>
      <point x="395" y="827" type="line"/>
      <point x="395" y="1106" type="line"/>
      <point x="559" y="1106" type="line"/>
      <point x="559" y="827" type="line"/>
    </contour>
    <contour>
      <point x="137" y="104" type="line"/>
      <point x="137" y="252" type="line"/>
      <point x="817" y="252" type="line"/>
      <point x="817" y="104" type="line"/>
    </contour>
  </outline>
</glyph>
<glyph name="twosuperior" format="2">
  <advance width="811"/>
  <unicode hex="00B2"/>
  <outline>
    <contour>
      <point x="70" y="819" type="line"/>
      <point x="70" y="976"/>
      <point x="191" y="1148"/>
      <point x="330" y="1204" type="qcurve" smooth="yes"/>
      <point x="346" y="1210"/>
      <point x="423" y="1238"/>
      <point x="460" y="1253"/>
      <point x="523" y="1282"/>
      <point x="556" y="1307"/>
      <point x="592" y="1343"/>
      <point x="608" y="1386"/>
      <point x="608" y="1411" type="qcurve" smooth="yes"/>
      <point x="608" y="1473"/>
      <point x="505" y="1550"/>
      <point x="410" y="1550" type="qcurve" smooth="yes"/>
      <point x="255" y="1550"/>
      <point x="152" y="1442" type="qcurve"/>
      <point x="78" y="1522" type="line"/>
      <point x="90" y="1539"/>
      <point x="142" y="1581"/>
      <point x="227" y="1629"/>
      <point x="355" y="1661"/>
      <point x="426" y="1661" type="qcurve" smooth="yes"/>
      <point x="575" y="1661"/>
      <point x="735" y="1523"/>
      <point x="735" y="1409" type="qcurve" smooth="yes"/>
      <point x="735" y="1360"/>
      <point x="695" y="1278"/>
      <point x="644" y="1228"/>
      <point x="554" y="1181"/>
      <point x="499" y="1162"/>
      <point x="453" y="1147" type="qcurve" smooth="yes"/>
      <point x="248" y="1080"/>
      <point x="248" y="930" type="qcurve"/>
      <point x="721" y="930" type="line"/>
      <point x="721" y="819" type="line"/>
    </contour>
  </outline>
</glyph>
<glyph name="threesuperior" format="2">
  <advance width="806"/>
  <unicode hex="00B3"/>
  <outline>
    <contour>
      <point x="66" y="983" type="qcurve"/>
      <point x="131" y="1061" type="line"/>
      <point x="138" y="1013"/>
      <point x="283" y="922"/>
      <point x="387" y="922" type="qcurve" smooth="yes"/>
      <point x="485" y="922"/>
      <point x="616" y="995"/>
      <point x="616" y="1055" type="qcurve" smooth="yes"/>
      <point x="616" y="1122"/>
      <point x="453" y="1194"/>
      <point x="311" y="1194" type="qcurve" smooth="yes"/>
      <point x="264" y="1194" type="line"/>
      <point x="264" y="1298" type="line"/>
      <point x="311" y="1298" type="line" smooth="yes"/>
      <point x="442" y="1298"/>
      <point x="588" y="1362"/>
      <point x="588" y="1425" type="qcurve" smooth="yes"/>
      <point x="588" y="1484"/>
      <point x="467" y="1556"/>
      <point x="383" y="1556" type="qcurve" smooth="yes"/>
      <point x="302" y="1556"/>
      <point x="180" y="1497"/>
      <point x="147" y="1446" type="qcurve"/>
      <point x="72" y="1534" type="line"/>
      <point x="111" y="1593"/>
      <point x="283" y="1661"/>
      <point x="383" y="1661" type="qcurve" smooth="yes"/>
      <point x="523" y="1661"/>
      <point x="709" y="1530"/>
      <point x="709" y="1432" type="qcurve" smooth="yes"/>
      <point x="709" y="1362"/>
      <point x="612" y="1270"/>
      <point x="520" y="1251" type="qcurve"/>
      <point x="615" y="1238"/>
      <point x="731" y="1119"/>
      <point x="731" y="1038" type="qcurve" smooth="yes"/>
      <point x="731" y="966"/>
      <point x="634" y="859"/>
      <point x="481" y="807"/>
      <point x="389" y="807" type="qcurve" smooth="yes"/>
      <point x="261" y="807"/>
      <point x="86" y="902"/>
    </contour>
  </outline>
</glyph>
<glyph name="acute" format="2">
  <advance width="475"/>
  <unicode hex="00B4"/>
  <anchor x="248" y="1495" name="Anchor-13"/>
  <outline>
    <contour>
      <point x="217" y="1247" type="line"/>
      <point x="98" y="1288" type="line"/>
      <point x="217" y="1495" type="line"/>
      <point x="397" y="1495" type="line"/>
    </contour>
  </outline>
</glyph>
<glyph name="mu" format="2">
  <advance width="1286"/>
  <unicode hex="00B5"/>
  <outline>
    <contour>
      <point x="160" y="1069" type="line"/>
      <point x="340" y="1069" type="line"/>
      <point x="340" y="463" type="line" smooth="yes"/>
      <point x="340" y="135"/>
      <point x="571" y="135" type="qcurve" smooth="yes"/>
      <point x="680" y="135"/>
      <point x="876" y="278"/>
      <point x="922" y="399" type="qcurve"/>
      <point x="922" y="1069" type="line"/>
      <point x="1102" y="1069" type="line"/>
      <point x="1102" y="221" type="line" smooth="yes"/>
      <point x="1102" y="187"/>
      <point x="1128" y="158"/>
      <point x="1159" y="156" type="qcurve"/>
      <point x="1159" y="0" type="line"/>
      <point x="1118" y="-6"/>
      <point x="1075" y="-6" type="qcurve" smooth="yes"/>
      <point x="1020" y="-6"/>
      <point x="946" y="68"/>
      <point x="946" y="117" type="qcurve" smooth="yes"/>
      <point x="946" y="229" type="line"/>
      <point x="894" y="126"/>
      <point x="678" y="-20"/>
      <point x="561" y="-20" type="qcurve" smooth="yes"/>
      <point x="472" y="-20"/>
      <point x="355" y="67"/>
      <point x="330" y="137" type="qcurve"/>
      <point x="340" y="-434" type="line"/>
      <point x="160" y="-434" type="line"/>
    </contour>
  </outline>
</glyph>
<glyph name="paragraph" format="2">
  <advance width="1265"/>
  <unicode hex="00B6"/>
  <outline>
    <contour>
      <point x="649" y="1454" type="qcurve" smooth="yes"/>
      <point x="1176" y="1454" type="line"/>
      <point x="1176" y="1315" type="line"/>
      <point x="1032" y="1315" type="line"/>
      <point x="1032" y="-164" type="line"/>
      <point x="877" y="-164" type="line"/>
      <point x="877" y="459" type="line"/>
      <point x="739" y="459" type="line"/>
      <point x="739" y="-164" type="line"/>
      <point x="584" y="-164" type="line"/>
      <point x="584" y="459" type="line"/>
      <point x="349" y="462"/>
      <point x="72" y="727"/>
      <point x="72" y="952" type="qcurve" smooth="yes"/>
      <point x="72" y="1189"/>
      <point x="376" y="1454"/>
    </contour>
    <contour>
      <point x="584" y="598" type="qcurve"/>
      <point x="584" y="1315" type="line"/>
      <point x="413" y="1312"/>
      <point x="225" y="1121"/>
      <point x="225" y="956" type="qcurve" smooth="yes"/>
      <point x="225" y="790"/>
      <point x="427" y="608"/>
    </contour>
    <contour>
      <point x="877" y="1315" type="line"/>
      <point x="739" y="1315" type="line"/>
      <point x="739" y="598" type="line"/>
      <point x="877" y="598" type="line"/>
    </contour>
  </outline>
</glyph>
<glyph name="cedilla" format="2">
  <advance width="606"/>
  <unicode hex="00B8"/>
  <outline>
    <contour>
      <point x="305" y="-381" type="qcurve" smooth="yes"/>
      <point x="182" y="-381"/>
      <point x="68" y="-324" type="qcurve"/>
      <point x="117" y="-223" type="line"/>
      <point x="205" y="-268"/>
      <point x="274" y="-268" type="qcurve" smooth="yes"/>
      <point x="338" y="-268"/>
      <point x="408" y="-217"/>
      <point x="408" y="-119"/>
      <point x="340" y="-40"/>
      <point x="270" y="0" type="qcurve"/>
      <point x="336" y="47" type="line"/>
      <point x="429" y="-10"/>
      <point x="522" y="-121"/>
      <point x="522" y="-199" type="qcurve" smooth="yes"/>
      <point x="522" y="-284"/>
      <point x="407" y="-381"/>
    </contour>
  </outline>
</glyph>
<glyph name="onesuperior" format="2">
  <advance width="573"/>
  <unicode hex="00B9"/>
  <outline>
    <contour>
      <point x="530" y="932" type="line"/>
      <point x="530" y="819" type="line"/>
      <point x="100" y="819" type="line"/>
      <point x="100" y="932" type="line"/>
      <point x="264" y="932" type="line"/>
      <point x="264" y="1534" type="line"/>
      <point x="239" y="1503"/>
      <point x="115" y="1434"/>
      <point x="70" y="1434" type="qcurve"/>
      <point x="70" y="1546" type="line"/>
      <point x="94" y="1546"/>
      <point x="151" y="1569"/>
      <point x="199" y="1601"/>
      <point x="240" y="1635"/>
      <point x="263" y="1659"/>
      <point x="264" y="1661" type="qcurve" smooth="yes"/>
      <point x="379" y="1661" type="line"/>
      <point x="379" y="932" type="line"/>
    </contour>
  </outline>
</glyph>
<glyph name="ordmasculine" format="2">
  <advance width="917"/>
  <unicode hex="00BA"/>
  <anchor x="0" y="0" name="Anchor-11"/>
  <anchor x="0" y="0" name="Anchor-10"/>
  <anchor x="588" y="1063" name="Anchor-9"/>
  <anchor x="0" y="0" name="Anchor-8"/>
  <anchor x="586" y="0" name="Anchor-7"/>
  <outline>
    <contour>
      <point x="86" y="1079" type="qcurve" smooth="yes"/>
      <point x="86" y="1236"/>
      <point x="295" y="1456"/>
      <point x="623" y="1456"/>
      <point x="831" y="1236"/>
      <point x="831" y="1079" type="qcurve" smooth="yes"/>
      <point x="831" y="925"/>
      <point x="623" y="705"/>
      <point x="295" y="705"/>
      <point x="86" y="925"/>
    </contour>
    <contour>
      <point x="553" y="829"/>
      <point x="684" y="975"/>
      <point x="684" y="1081" type="qcurve" smooth="yes"/>
      <point x="684" y="1186"/>
      <point x="553" y="1329"/>
      <point x="365" y="1329"/>
      <point x="233" y="1184"/>
      <point x="233" y="1077" type="qcurve" smooth="yes"/>
      <point x="233" y="973"/>
      <point x="365" y="829"/>
    </contour>
  </outline>
</glyph>
<glyph name="guillemotright" format="2">
  <advance width="1220"/>
  <unicode hex="00BB"/>
  <outline>
    <contour>
      <point x="643" y="479" type="line"/>
      <point x="125" y="123" type="line"/>
      <point x="125" y="274" type="line"/>
      <point x="498" y="530" type="line"/>
      <point x="125" y="793" type="line"/>
      <point x="125" y="944" type="line"/>
      <point x="643" y="573" type="line"/>
    </contour>
    <contour>
      <point x="1139" y="479" type="line"/>
      <point x="621" y="123" type="line"/>
      <point x="621" y="274" type="line"/>
      <point x="993" y="530" type="line"/>
      <point x="621" y="793" type="line"/>
      <point x="621" y="944" type="line"/>
      <point x="1139" y="573" type="line"/>
    </contour>
  </outline>
</glyph>
<glyph name="onequarter" format="2">
  <advance width="1691"/>
  <unicode hex="00BC"/>
  <outline>
    <contour>
      <point x="530" y="768" type="line"/>
      <point x="530" y="655" type="line"/>
      <point x="100" y="655" type="line"/>
      <point x="100" y="768" type="line"/>
      <point x="264" y="768" type="line"/>
      <point x="264" y="1370" type="line"/>
      <point x="239" y="1339"/>
      <point x="115" y="1270"/>
      <point x="70" y="1270" type="qcurve"/>
      <point x="70" y="1382" type="line"/>
      <point x="94" y="1382"/>
      <point x="151" y="1405"/>
      <point x="199" y="1437"/>
      <point x="240" y="1471"/>
      <point x="263" y="1495"/>
      <point x="264" y="1497" type="qcurve" smooth="yes"/>
      <point x="379" y="1497" type="line"/>
      <point x="379" y="768" type="line"/>
    </contour>
    <contour>
      <point x="139" y="68" type="line"/>
      <point x="713" y="758" type="line"/>
      <point x="1262" y="1464" type="line"/>
      <point x="1350" y="1389" type="line"/>
      <point x="782" y="702" type="line"/>
      <point x="225" y="-10" type="line"/>
    </contour>
    <contour>
      <point x="1399" y="0" type="line"/>
      <point x="1399" y="205" type="line"/>
      <point x="936" y="205" type="line"/>
      <point x="936" y="313" type="line"/>
      <point x="1434" y="831" type="line"/>
      <point x="1511" y="831" type="line"/>
      <point x="1511" y="315" type="line"/>
      <point x="1632" y="315" type="line"/>
      <point x="1632" y="205" type="line"/>
      <point x="1511" y="205" type="line"/>
      <point x="1511" y="0" type="line"/>
    </contour>
    <contour>
      <point x="1053" y="315" type="line"/>
      <point x="1403" y="315" type="line"/>
      <point x="1403" y="684" type="line"/>
    </contour>
  </outline>
</glyph>
<glyph name="onehalf" format="2">
  <advance width="1708"/>
  <unicode hex="00BD"/>
  <outline>
    <contour>
      <point x="530" y="768" type="line"/>
      <point x="530" y="655" type="line"/>
      <point x="100" y="655" type="line"/>
      <point x="100" y="768" type="line"/>
      <point x="264" y="768" type="line"/>
      <point x="264" y="1370" type="line"/>
      <point x="239" y="1339"/>
      <point x="115" y="1270"/>
      <point x="70" y="1270" type="qcurve"/>
      <point x="70" y="1382" type="line"/>
      <point x="94" y="1382"/>
      <point x="151" y="1405"/>
      <point x="199" y="1437"/>
      <point x="240" y="1471"/>
      <point x="263" y="1495"/>
      <point x="264" y="1497" type="qcurve" smooth="yes"/>
      <point x="379" y="1497" type="line"/>
      <point x="379" y="768" type="line"/>
    </contour>
    <contour>
      <point x="139" y="68" type="line"/>
      <point x="713" y="758" type="line"/>
      <point x="1262" y="1464" type="line"/>
      <point x="1350" y="1389" type="line"/>
      <point x="782" y="702" type="line"/>
      <point x="225" y="-10" type="line"/>
    </contour>
    <contour>
      <point x="985" y="0" type="line"/>
      <point x="985" y="158"/>
      <point x="1102" y="330"/>
      <point x="1237" y="385" type="qcurve" smooth="yes"/>
      <point x="1254" y="392"/>
      <point x="1324" y="418"/>
      <point x="1363" y="434"/>
      <point x="1421" y="461"/>
      <point x="1454" y="487"/>
      <point x="1488" y="522"/>
      <point x="1503" y="565"/>
      <point x="1503" y="590" type="qcurve" smooth="yes"/>
      <point x="1503" y="654"/>
      <point x="1404" y="731"/>
      <point x="1313" y="731" type="qcurve" smooth="yes"/>
      <point x="1164" y="731"/>
      <point x="1063" y="621" type="qcurve"/>
      <point x="993" y="702" type="line"/>
      <point x="1006" y="719"/>
      <point x="1055" y="761"/>
      <point x="1137" y="810"/>
      <point x="1260" y="842"/>
      <point x="1329" y="842" type="qcurve" smooth="yes"/>
      <point x="1473" y="842"/>
      <point x="1626" y="704"/>
      <point x="1626" y="588" type="qcurve" smooth="yes"/>
      <point x="1626" y="547"/>
      <point x="1603" y="477"/>
      <point x="1554" y="425"/>
      <point x="1510" y="389"/>
      <point x="1434" y="356"/>
      <point x="1394" y="340"/>
      <point x="1356" y="328" type="qcurve" smooth="yes"/>
      <point x="1159" y="262"/>
      <point x="1159" y="111" type="qcurve"/>
      <point x="1628" y="111" type="line"/>
      <point x="1628" y="0" type="line"/>
    </contour>
  </outline>
</glyph>
<glyph name="threequarters" format="2">
  <advance width="1925"/>
  <unicode hex="00BE"/>
  <outline>
    <contour>
      <point x="66" y="819" type="qcurve"/>
      <point x="131" y="897" type="line"/>
      <point x="138" y="849"/>
      <point x="283" y="758"/>
      <point x="387" y="758" type="qcurve" smooth="yes"/>
      <point x="485" y="758"/>
      <point x="616" y="831"/>
      <point x="616" y="891" type="qcurve" smooth="yes"/>
      <point x="616" y="958"/>
      <point x="453" y="1030"/>
      <point x="311" y="1030" type="qcurve" smooth="yes"/>
      <point x="264" y="1030" type="line"/>
      <point x="264" y="1135" type="line"/>
      <point x="311" y="1135" type="line" smooth="yes"/>
      <point x="442" y="1135"/>
      <point x="588" y="1199"/>
      <point x="588" y="1262" type="qcurve" smooth="yes"/>
      <point x="588" y="1321"/>
      <point x="467" y="1393"/>
      <point x="383" y="1393" type="qcurve" smooth="yes"/>
      <point x="302" y="1393"/>
      <point x="180" y="1333"/>
      <point x="147" y="1282" type="qcurve"/>
      <point x="72" y="1370" type="line"/>
      <point x="111" y="1429"/>
      <point x="283" y="1497"/>
      <point x="383" y="1497" type="qcurve" smooth="yes"/>
      <point x="523" y="1497"/>
      <point x="709" y="1366"/>
      <point x="709" y="1268" type="qcurve" smooth="yes"/>
      <point x="709" y="1198"/>
      <point x="612" y="1106"/>
      <point x="520" y="1087" type="qcurve"/>
      <point x="615" y="1074"/>
      <point x="731" y="955"/>
      <point x="731" y="874" type="qcurve" smooth="yes"/>
      <point x="731" y="802"/>
      <point x="634" y="695"/>
      <point x="481" y="643"/>
      <point x="389" y="643" type="qcurve" smooth="yes"/>
      <point x="261" y="643"/>
      <point x="86" y="738"/>
    </contour>
    <contour>
      <point x="373" y="68" type="line"/>
      <point x="946" y="758" type="line"/>
      <point x="1495" y="1464" type="line"/>
      <point x="1583" y="1389" type="line"/>
      <point x="1016" y="702" type="line"/>
      <point x="459" y="-10" type="line"/>
    </contour>
    <contour>
      <point x="1632" y="0" type="line"/>
      <point x="1632" y="205" type="line"/>
      <point x="1169" y="205" type="line"/>
      <point x="1169" y="313" type="line"/>
      <point x="1667" y="831" type="line"/>
      <point x="1745" y="831" type="line"/>
      <point x="1745" y="315" type="line"/>
      <point x="1866" y="315" type="line"/>
      <point x="1866" y="205" type="line"/>
      <point x="1745" y="205" type="line"/>
      <point x="1745" y="0" type="line"/>
    </contour>
    <contour>
      <point x="1286" y="315" type="line"/>
      <point x="1636" y="315" type="line"/>
      <point x="1636" y="684" type="line"/>
    </contour>
  </outline>
</glyph>
<glyph name="questiondown" format="2">
  <advance width="968"/>
  <unicode hex="00BF"/>
  <outline>
    <contour>
      <point x="674" y="1036" type="line"/>
      <point x="674" y="799" type="line"/>
      <point x="522" y="799" type="line"/>
      <point x="522" y="1036" type="line"/>
    </contour>
    <contour>
      <point x="678" y="604" type="line"/>
      <point x="678" y="490"/>
      <point x="597" y="326"/>
      <point x="506" y="268" type="qcurve" smooth="yes"/>
      <point x="492" y="259"/>
      <point x="412" y="213"/>
      <point x="365" y="183"/>
      <point x="296" y="127"/>
      <point x="257" y="73"/>
      <point x="227" y="-6"/>
      <point x="227" y="-51" type="qcurve" smooth="yes"/>
      <point x="227" y="-161"/>
      <point x="376" y="-287"/>
      <point x="479" y="-287" type="qcurve" smooth="yes"/>
      <point x="577" y="-287"/>
      <point x="738" y="-176"/>
      <point x="782" y="-92" type="qcurve"/>
      <point x="903" y="-172" type="line"/>
      <point x="849" y="-295"/>
      <point x="613" y="-436"/>
      <point x="475" y="-436" type="qcurve" smooth="yes"/>
      <point x="397" y="-436"/>
      <point x="254" y="-387"/>
      <point x="137" y="-294"/>
      <point x="68" y="-140"/>
      <point x="68" y="-43" type="qcurve" smooth="yes"/>
      <point x="68" y="17"/>
      <point x="97" y="117"/>
      <point x="139" y="185"/>
      <point x="215" y="250"/>
      <point x="276" y="289"/>
      <point x="326" y="317" type="qcurve" smooth="yes"/>
      <point x="357" y="334"/>
      <point x="382" y="348"/>
      <point x="435" y="384"/>
      <point x="460" y="410"/>
      <point x="496" y="455"/>
      <point x="513" y="501"/>
      <point x="526" y="566"/>
      <point x="526" y="604" type="qcurve"/>
    </contour>
  </outline>
</glyph>
<glyph name="Agrave" format="2">
  <advance width="1386"/>
  <unicode hex="00C0"/>
  <anchor x="0" y="0" name="Anchor-11"/>
  <anchor x="0" y="0" name="Anchor-10"/>
  <anchor x="631" y="1878" name="Anchor-9"/>
  <anchor x="1366" y="0" name="Anchor-8"/>
  <anchor x="713" y="0" name="Anchor-7"/>
  <outline>
    <contour>
      <point x="481" y="1878" type="line"/>
      <point x="659" y="1878" type="line"/>
      <point x="780" y="1671" type="line"/>
      <point x="664" y="1630" type="line"/>
    </contour>
    <contour>
      <point x="616" y="1454" type="line"/>
      <point x="772" y="1454" type="line"/>
      <point x="1366" y="0" type="line"/>
      <point x="1169" y="0" type="line"/>
      <point x="997" y="426" type="line"/>
      <point x="387" y="426" type="line"/>
      <point x="217" y="0" type="line"/>
      <point x="20" y="0" type="line"/>
    </contour>
    <contour>
      <point x="956" y="569" type="line"/>
      <point x="694" y="1241" type="line"/>
      <point x="424" y="569" type="line"/>
    </contour>
  </outline>
</glyph>
<glyph name="Aacute" format="2">
  <advance width="1386"/>
  <unicode hex="00C1"/>
  <anchor x="0" y="0" name="Anchor-11"/>
  <anchor x="0" y="0" name="Anchor-10"/>
  <anchor x="788" y="1876" name="Anchor-9"/>
  <anchor x="1366" y="0" name="Anchor-8"/>
  <anchor x="713" y="0" name="Anchor-7"/>
  <outline>
    <contour>
      <point x="758" y="1628" type="line"/>
      <point x="639" y="1669" type="line"/>
      <point x="758" y="1876" type="line"/>
      <point x="938" y="1876" type="line"/>
    </contour>
    <contour>
      <point x="616" y="1454" type="line"/>
      <point x="772" y="1454" type="line"/>
      <point x="1366" y="0" type="line"/>
      <point x="1169" y="0" type="line"/>
      <point x="997" y="426" type="line"/>
      <point x="387" y="426" type="line"/>
      <point x="217" y="0" type="line"/>
      <point x="20" y="0" type="line"/>
    </contour>
    <contour>
      <point x="956" y="569" type="line"/>
      <point x="694" y="1241" type="line"/>
      <point x="424" y="569" type="line"/>
    </contour>
  </outline>
</glyph>
<glyph name="Acircumflex" format="2">
  <advance width="1386"/>
  <unicode hex="00C2"/>
  <anchor x="0" y="0" name="Anchor-11"/>
  <anchor x="0" y="0" name="Anchor-10"/>
  <anchor x="694" y="1876" name="Anchor-9"/>
  <anchor x="1366" y="0" name="Anchor-8"/>
  <anchor x="713" y="0" name="Anchor-7"/>
  <outline>
    <contour>
      <point x="422" y="1692" type="line"/>
      <point x="629" y="1876" type="line"/>
      <point x="760" y="1876" type="line"/>
      <point x="967" y="1692" type="line"/>
      <point x="868" y="1642" type="line"/>
      <point x="694" y="1772" type="line"/>
      <point x="520" y="1642" type="line"/>
    </contour>
    <contour>
      <point x="616" y="1454" type="line"/>
      <point x="772" y="1454" type="line"/>
      <point x="1366" y="0" type="line"/>
      <point x="1169" y="0" type="line"/>
      <point x="997" y="426" type="line"/>
      <point x="387" y="426" type="line"/>
      <point x="217" y="0" type="line"/>
      <point x="20" y="0" type="line"/>
    </contour>
    <contour>
      <point x="956" y="569" type="line"/>
      <point x="694" y="1241" type="line"/>
      <point x="424" y="569" type="line"/>
    </contour>
  </outline>
</glyph>
<glyph name="Atilde" format="2">
  <advance width="1386"/>
  <unicode hex="00C3"/>
  <anchor x="0" y="0" name="Anchor-11"/>
  <anchor x="0" y="0" name="Anchor-10"/>
  <anchor x="694" y="1876" name="Anchor-9"/>
  <anchor x="1366" y="0" name="Anchor-8"/>
  <anchor x="713" y="0" name="Anchor-7"/>
  <outline>
    <contour>
      <point x="557" y="1751" type="qcurve" smooth="yes"/>
      <point x="526" y="1751"/>
      <point x="482" y="1724"/>
      <point x="464" y="1685"/>
      <point x="457" y="1660"/>
      <point x="457" y="1653" type="qcurve"/>
      <point x="350" y="1653" type="line"/>
      <point x="350" y="1671"/>
      <point x="369" y="1732"/>
      <point x="411" y="1809"/>
      <point x="497" y="1864"/>
      <point x="553" y="1864" type="qcurve" smooth="yes"/>
      <point x="602" y="1864"/>
      <point x="692" y="1820"/>
      <point x="776" y="1776"/>
      <point x="817" y="1776" type="qcurve" smooth="yes"/>
      <point x="846" y="1776"/>
      <point x="891" y="1796"/>
      <point x="914" y="1822"/>
      <point x="928" y="1853"/>
      <point x="932" y="1871"/>
      <point x="932" y="1876" type="qcurve"/>
      <point x="1038" y="1876" type="line"/>
      <point x="1038" y="1864"/>
      <point x="1027" y="1820"/>
      <point x="996" y="1757"/>
      <point x="950" y="1703"/>
      <point x="870" y="1665"/>
      <point x="821" y="1665" type="qcurve" smooth="yes"/>
      <point x="769" y="1665"/>
      <point x="674" y="1708"/>
      <point x="593" y="1751"/>
    </contour>
    <contour>
      <point x="616" y="1454" type="line"/>
      <point x="772" y="1454" type="line"/>
      <point x="1366" y="0" type="line"/>
      <point x="1169" y="0" type="line"/>
      <point x="997" y="426" type="line"/>
      <point x="387" y="426" type="line"/>
      <point x="217" y="0" type="line"/>
      <point x="20" y="0" type="line"/>
    </contour>
    <contour>
      <point x="956" y="569" type="line"/>
      <point x="694" y="1241" type="line"/>
      <point x="424" y="569" type="line"/>
    </contour>
  </outline>
</glyph>
<glyph name="Aring" format="2">
  <advance width="1386"/>
  <unicode hex="00C5"/>
  <anchor x="0" y="0" name="Anchor-11"/>
  <anchor x="0" y="0" name="Anchor-10"/>
  <anchor x="694" y="1923" name="Anchor-9"/>
  <anchor x="1366" y="0" name="Anchor-8"/>
  <anchor x="713" y="0" name="Anchor-7"/>
  <outline>
    <contour>
      <point x="694" y="1923" type="qcurve" smooth="yes"/>
      <point x="781" y="1923"/>
      <point x="889" y="1824"/>
      <point x="889" y="1743" type="qcurve" smooth="yes"/>
      <point x="889" y="1664"/>
      <point x="781" y="1567"/>
      <point x="694" y="1567" type="qcurve" smooth="yes"/>
      <point x="609" y="1567"/>
      <point x="500" y="1664"/>
      <point x="500" y="1743" type="qcurve" smooth="yes"/>
      <point x="500" y="1824"/>
      <point x="608" y="1923"/>
    </contour>
    <contour>
      <point x="598" y="1743" type="qcurve" smooth="yes"/>
      <point x="598" y="1702"/>
      <point x="653" y="1647"/>
      <point x="694" y="1647" type="qcurve" smooth="yes"/>
      <point x="734" y="1647"/>
      <point x="793" y="1702"/>
      <point x="793" y="1743" type="qcurve" smooth="yes"/>
      <point x="793" y="1789"/>
      <point x="737" y="1841"/>
      <point x="694" y="1841" type="qcurve" smooth="yes"/>
      <point x="653" y="1841"/>
      <point x="598" y="1789"/>
    </contour>
    <contour>
      <point x="616" y="1454" type="line"/>
      <point x="772" y="1454" type="line"/>
      <point x="1366" y="0" type="line"/>
      <point x="1169" y="0" type="line"/>
      <point x="997" y="426" type="line"/>
      <point x="387" y="426" type="line"/>
      <point x="217" y="0" type="line"/>
      <point x="20" y="0" type="line"/>
    </contour>
    <contour>
      <point x="956" y="569" type="line"/>
      <point x="694" y="1241" type="line"/>
      <point x="424" y="569" type="line"/>
    </contour>
  </outline>
</glyph>
<glyph name="Ecircumflex" format="2">
  <advance width="1239"/>
  <unicode hex="00CA"/>
  <anchor x="0" y="0" name="Anchor-11"/>
  <anchor x="0" y="0" name="Anchor-10"/>
  <anchor x="684" y="1876" name="Anchor-9"/>
  <anchor x="1161" y="0" name="Anchor-8"/>
  <anchor x="684" y="0" name="Anchor-7"/>
  <outline>
    <contour>
      <point x="412" y="1692" type="line"/>
      <point x="618" y="1876" type="line"/>
      <point x="750" y="1876" type="line"/>
      <point x="956" y="1692" type="line"/>
      <point x="858" y="1642" type="line"/>
      <point x="684" y="1772" type="line"/>
      <point x="510" y="1642" type="line"/>
    </contour>
    <contour>
      <point x="1161" y="164" type="line"/>
      <point x="1161" y="0" type="line"/>
      <point x="174" y="0" type="line"/>
      <point x="174" y="1454" type="line"/>
      <point x="1143" y="1454" type="line"/>
      <point x="1143" y="1290" type="line"/>
      <point x="358" y="1290" type="line"/>
      <point x="358" y="819" type="line"/>
      <point x="1040" y="819" type="line"/>
      <point x="1040" y="666" type="line"/>
      <point x="358" y="666" type="line"/>
      <point x="358" y="164" type="line"/>
    </contour>
  </outline>
</glyph>
<glyph name="Edieresis" format="2">
  <advance width="1239"/>
  <unicode hex="00CB"/>
  <anchor x="0" y="0" name="Anchor-11"/>
  <anchor x="0" y="0" name="Anchor-10"/>
  <anchor x="684" y="1858" name="Anchor-9"/>
  <anchor x="1161" y="0" name="Anchor-8"/>
  <anchor x="684" y="0" name="Anchor-7"/>
  <outline>
    <contour>
      <point x="442" y="1661" type="line"/>
      <point x="442" y="1870" type="line"/>
      <point x="594" y="1870" type="line"/>
      <point x="594" y="1661" type="line"/>
    </contour>
    <contour>
      <point x="774" y="1661" type="line"/>
      <point x="774" y="1870" type="line"/>
      <point x="926" y="1870" type="line"/>
      <point x="926" y="1661" type="line"/>
    </contour>
    <contour>
      <point x="1161" y="164" type="line"/>
      <point x="1161" y="0" type="line"/>
      <point x="174" y="0" type="line"/>
      <point x="174" y="1454" type="line"/>
      <point x="1143" y="1454" type="line"/>
      <point x="1143" y="1290" type="line"/>
      <point x="358" y="1290" type="line"/>
      <point x="358" y="819" type="line"/>
      <point x="1040" y="819" type="line"/>
      <point x="1040" y="666" type="line"/>
      <point x="358" y="666" type="line"/>
      <point x="358" y="164" type="line"/>
    </contour>
  </outline>
</glyph>
<glyph name="Igrave" format="2">
  <advance width="532"/>
  <unicode hex="00CC"/>
  <anchor x="0" y="0" name="Anchor-11"/>
  <anchor x="0" y="0" name="Anchor-10"/>
  <anchor x="203" y="1878" name="Anchor-9"/>
  <anchor x="358" y="0" name="Anchor-8"/>
  <anchor x="266" y="0" name="Anchor-7"/>
  <outline>
    <contour>
      <point x="53" y="1878" type="line"/>
      <point x="231" y="1878" type="line"/>
      <point x="352" y="1671" type="line"/>
      <point x="236" y="1630" type="line"/>
    </contour>
    <contour>
      <point x="174" y="0" type="line"/>
      <point x="174" y="1454" type="line"/>
      <point x="358" y="1454" type="line"/>
      <point x="358" y="0" type="line"/>
    </contour>
  </outline>
</glyph>
<glyph name="Icircumflex" format="2">
  <advance width="532"/>
  <unicode hex="00CE"/>
  <anchor x="0" y="0" name="Anchor-11"/>
  <anchor x="0" y="0" name="Anchor-10"/>
  <anchor x="266" y="1876" name="Anchor-9"/>
  <anchor x="358" y="0" name="Anchor-8"/>
  <anchor x="266" y="0" name="Anchor-7"/>
  <outline>
    <contour>
      <point x="-6" y="1692" type="line"/>
      <point x="201" y="1876" type="line"/>
      <point x="332" y="1876" type="line"/>
      <point x="539" y="1692" type="line"/>
      <point x="440" y="1642" type="line"/>
      <point x="266" y="1772" type="line"/>
      <point x="92" y="1642" type="line"/>
    </contour>
    <contour>
      <point x="174" y="0" type="line"/>
      <point x="174" y="1454" type="line"/>
      <point x="358" y="1454" type="line"/>
      <point x="358" y="0" type="line"/>
    </contour>
  </outline>
</glyph>
<glyph name="Idieresis" format="2">
  <advance width="532"/>
  <unicode hex="00CF"/>
  <anchor x="0" y="0" name="Anchor-11"/>
  <anchor x="0" y="0" name="Anchor-10"/>
  <anchor x="266" y="1858" name="Anchor-9"/>
  <anchor x="358" y="0" name="Anchor-8"/>
  <anchor x="266" y="0" name="Anchor-7"/>
  <outline>
    <contour>
      <point x="25" y="1661" type="line"/>
      <point x="25" y="1870" type="line"/>
      <point x="176" y="1870" type="line"/>
      <point x="176" y="1661" type="line"/>
    </contour>
    <contour>
      <point x="356" y="1661" type="line"/>
      <point x="356" y="1870" type="line"/>
      <point x="508" y="1870" type="line"/>
      <point x="508" y="1661" type="line"/>
    </contour>
    <contour>
      <point x="174" y="0" type="line"/>
      <point x="174" y="1454" type="line"/>
      <point x="358" y="1454" type="line"/>
      <point x="358" y="0" type="line"/>
    </contour>
  </outline>
</glyph>
<glyph name="Ntilde" format="2">
  <advance width="1576"/>
  <unicode hex="00D1"/>
  <anchor x="0" y="0" name="Anchor-11"/>
  <anchor x="0" y="0" name="Anchor-10"/>
  <anchor x="793" y="1876" name="Anchor-9"/>
  <anchor x="0" y="0" name="Anchor-8"/>
  <anchor x="793" y="0" name="Anchor-7"/>
  <outline>
    <contour>
      <point x="655" y="1751" type="qcurve" smooth="yes"/>
      <point x="624" y="1751"/>
      <point x="580" y="1724"/>
      <point x="562" y="1685"/>
      <point x="555" y="1660"/>
      <point x="555" y="1653" type="qcurve"/>
      <point x="449" y="1653" type="line"/>
      <point x="449" y="1671"/>
      <point x="468" y="1732"/>
      <point x="509" y="1809"/>
      <point x="595" y="1864"/>
      <point x="651" y="1864" type="qcurve" smooth="yes"/>
      <point x="700" y="1864"/>
      <point x="790" y="1820"/>
      <point x="874" y="1776"/>
      <point x="915" y="1776" type="qcurve" smooth="yes"/>
      <point x="944" y="1776"/>
      <point x="989" y="1796"/>
      <point x="1012" y="1822"/>
      <point x="1026" y="1853"/>
      <point x="1030" y="1871"/>
      <point x="1030" y="1876" type="qcurve"/>
      <point x="1137" y="1876" type="line"/>
      <point x="1137" y="1864"/>
      <point x="1126" y="1820"/>
      <point x="1095" y="1757"/>
      <point x="1049" y="1703"/>
      <point x="969" y="1665"/>
      <point x="920" y="1665" type="qcurve" smooth="yes"/>
      <point x="868" y="1665"/>
      <point x="772" y="1708"/>
      <point x="691" y="1751"/>
    </contour>
    <contour>
      <point x="358" y="1114" type="line"/>
      <point x="358" y="0" type="line"/>
      <point x="174" y="0" type="line"/>
      <point x="174" y="1454" type="line"/>
      <point x="330" y="1454" type="line"/>
      <point x="1219" y="317" type="line"/>
      <point x="1219" y="1452" type="line"/>
      <point x="1403" y="1452" type="line"/>
      <point x="1403" y="0" type="line"/>
      <point x="1235" y="0" type="line"/>
    </contour>
  </outline>
</glyph>
<glyph name="Otilde" format="2">
  <advance width="1531"/>
  <unicode hex="00D5"/>
  <anchor x="1034" y="1321" name="Anchor-11"/>
  <anchor x="766" y="727" name="Anchor-10"/>
  <anchor x="768" y="1876" name="Anchor-9"/>
  <anchor x="926" y="14" name="Anchor-8"/>
  <anchor x="764" y="0" name="Anchor-7"/>
  <outline>
    <contour>
      <point x="631" y="1751" type="qcurve" smooth="yes"/>
      <point x="606" y="1751"/>
      <point x="567" y="1732"/>
      <point x="546" y="1706"/>
      <point x="533" y="1675"/>
      <point x="530" y="1657"/>
      <point x="530" y="1653" type="qcurve"/>
      <point x="424" y="1653" type="line"/>
      <point x="424" y="1671"/>
      <point x="443" y="1732"/>
      <point x="485" y="1809"/>
      <point x="571" y="1864"/>
      <point x="627" y="1864" type="qcurve" smooth="yes"/>
      <point x="676" y="1864"/>
      <point x="766" y="1820"/>
      <point x="850" y="1776"/>
      <point x="891" y="1776" type="qcurve" smooth="yes"/>
      <point x="920" y="1776"/>
      <point x="965" y="1796"/>
      <point x="988" y="1822"/>
      <point x="1002" y="1853"/>
      <point x="1006" y="1871"/>
      <point x="1006" y="1876" type="qcurve"/>
      <point x="1112" y="1876" type="line"/>
      <point x="1112" y="1864"/>
      <point x="1101" y="1820"/>
      <point x="1070" y="1757"/>
      <point x="1024" y="1703"/>
      <point x="944" y="1665"/>
      <point x="895" y="1665" type="qcurve" smooth="yes"/>
      <point x="843" y="1665"/>
      <point x="748" y="1708"/>
      <point x="667" y="1751"/>
    </contour>
    <contour>
      <point x="80" y="727" type="qcurve" smooth="yes"/>
      <point x="80" y="919"/>
      <point x="258" y="1257"/>
      <point x="577" y="1464"/>
      <point x="768" y="1464" type="qcurve" smooth="yes"/>
      <point x="887" y="1464"/>
      <point x="1103" y="1381"/>
      <point x="1266" y="1237"/>
      <point x="1387" y="1049"/>
      <point x="1450" y="834"/>
      <point x="1450" y="725" type="qcurve" smooth="yes"/>
      <point x="1450" y="532"/>
      <point x="1273" y="196"/>
      <point x="955" y="-10"/>
      <point x="764" y="-10" type="qcurve" smooth="yes"/>
      <point x="616" y="-10"/>
      <point x="356" y="115"/>
      <point x="181" y="322"/>
      <point x="80" y="587"/>
    </contour>
    <contour>
      <point x="766" y="156" type="qcurve" smooth="yes"/>
      <point x="878" y="156"/>
      <point x="1069" y="255"/>
      <point x="1194" y="417"/>
      <point x="1264" y="621"/>
      <point x="1264" y="727" type="qcurve" smooth="yes"/>
      <point x="1264" y="876"/>
      <point x="1140" y="1135"/>
      <point x="909" y="1296"/>
      <point x="766" y="1296" type="qcurve" smooth="yes"/>
      <point x="654" y="1296"/>
      <point x="462" y="1198"/>
      <point x="337" y="1037"/>
      <point x="266" y="834"/>
      <point x="266" y="727" type="qcurve" smooth="yes"/>
      <point x="266" y="616"/>
      <point x="339" y="409"/>
      <point x="467" y="251"/>
      <point x="656" y="156"/>
    </contour>
  </outline>
</glyph>
<glyph name="multiply" format="2">
  <advance width="950"/>
  <unicode hex="00D7"/>
  <outline>
    <contour>
      <point x="827" y="322" type="line"/>
      <point x="713" y="209" type="line"/>
      <point x="475" y="446" type="line"/>
      <point x="238" y="209" type="line"/>
      <point x="125" y="324" type="line"/>
      <point x="360" y="559" type="line"/>
      <point x="129" y="793" type="line"/>
      <point x="244" y="905" type="line"/>
      <point x="475" y="674" type="line"/>
      <point x="709" y="907" type="line"/>
      <point x="821" y="793" type="line"/>
      <point x="590" y="559" type="line"/>
    </contour>
  </outline>
</glyph>
<glyph name="Oslash" format="2">
  <advance width="1531"/>
  <unicode hex="00D8"/>
  <anchor x="1034" y="1321" name="Anchor-11"/>
  <anchor x="766" y="727" name="Anchor-10"/>
  <anchor x="768" y="1450" name="Anchor-9"/>
  <anchor x="926" y="14" name="Anchor-8"/>
  <anchor x="764" y="0" name="Anchor-7"/>
  <outline>
    <contour>
      <point x="1231" y="1266" type="line"/>
      <point x="1335" y="1161"/>
      <point x="1450" y="875"/>
      <point x="1450" y="725" type="qcurve" smooth="yes"/>
      <point x="1450" y="532"/>
      <point x="1273" y="196"/>
      <point x="955" y="-10"/>
      <point x="764" y="-10" type="qcurve" smooth="yes"/>
      <point x="585" y="-10"/>
      <point x="430" y="82" type="qcurve"/>
      <point x="375" y="0" type="line"/>
      <point x="174" y="0" type="line"/>
      <point x="299" y="186" type="line"/>
      <point x="195" y="290"/>
      <point x="80" y="576"/>
      <point x="80" y="727" type="qcurve" smooth="yes"/>
      <point x="80" y="919"/>
      <point x="258" y="1257"/>
      <point x="577" y="1464"/>
      <point x="768" y="1464" type="qcurve" smooth="yes"/>
      <point x="947" y="1464"/>
      <point x="1100" y="1370" type="qcurve"/>
      <point x="1155" y="1454" type="line"/>
      <point x="1358" y="1454" type="line"/>
    </contour>
    <contour>
      <point x="266" y="727" type="qcurve" smooth="yes"/>
      <point x="266" y="502"/>
      <point x="399" y="334" type="qcurve"/>
      <point x="1004" y="1229" type="line"/>
      <point x="895" y="1296"/>
      <point x="766" y="1296" type="qcurve" smooth="yes"/>
      <point x="654" y="1296"/>
      <point x="462" y="1198"/>
      <point x="337" y="1037"/>
      <point x="266" y="834"/>
    </contour>
    <contour>
      <point x="766" y="156" type="qcurve" smooth="yes"/>
      <point x="878" y="156"/>
      <point x="1069" y="255"/>
      <point x="1194" y="417"/>
      <point x="1264" y="621"/>
      <point x="1264" y="727" type="qcurve" smooth="yes"/>
      <point x="1264" y="835"/>
      <point x="1194" y="1038"/>
      <point x="1130" y="1118" type="qcurve"/>
      <point x="526" y="223" type="line"/>
      <point x="632" y="156"/>
    </contour>
  </outline>
</glyph>
<glyph name="Uacute" format="2">
  <advance width="1546"/>
  <unicode hex="00DA"/>
  <anchor x="1438" y="1323" name="Anchor-11"/>
  <anchor x="0" y="0" name="Anchor-10"/>
  <anchor x="868" y="1876" name="Anchor-9"/>
  <anchor x="905" y="2" name="Anchor-8"/>
  <anchor x="774" y="0" name="Anchor-7"/>
  <outline>
    <contour>
      <point x="838" y="1628" type="line"/>
      <point x="719" y="1669" type="line"/>
      <point x="838" y="1876" type="line"/>
      <point x="1018" y="1876" type="line"/>
    </contour>
    <contour>
      <point x="774" y="-10" type="qcurve" smooth="yes"/>
      <point x="639" y="-10"/>
      <point x="425" y="71"/>
      <point x="286" y="207"/>
      <point x="193" y="396"/>
      <point x="154" y="603"/>
      <point x="154" y="719" type="qcurve" smooth="yes"/>
      <point x="154" y="1454" type="line"/>
      <point x="338" y="1454" type="line"/>
      <point x="338" y="719" type="line" smooth="yes"/>
      <point x="338" y="629"/>
      <point x="364" y="471"/>
      <point x="427" y="324"/>
      <point x="524" y="219"/>
      <point x="676" y="156"/>
      <point x="772" y="156" type="qcurve" smooth="yes"/>
      <point x="843" y="156"/>
      <point x="962" y="189"/>
      <point x="1051" y="248"/>
      <point x="1120" y="332"/>
      <point x="1166" y="428"/>
      <point x="1195" y="543"/>
      <point x="1208" y="657"/>
      <point x="1208" y="719" type="qcurve" smooth="yes"/>
      <point x="1208" y="1454" type="line"/>
      <point x="1393" y="1454" type="line"/>
      <point x="1393" y="719" type="line" smooth="yes"/>
      <point x="1393" y="598"/>
      <point x="1351" y="386"/>
      <point x="1256" y="200"/>
      <point x="1114" y="67"/>
      <point x="904" y="-10"/>
    </contour>
  </outline>
</glyph>
<glyph name="Thorn" format="2">
  <advance width="1236"/>
  <unicode hex="00DE"/>
  <outline>
    <contour>
      <point x="1184" y="709" type="qcurve" smooth="yes"/>
      <point x="1184" y="587"/>
      <point x="1079" y="375"/>
      <point x="880" y="242"/>
      <point x="756" y="242" type="qcurve" smooth="yes"/>
      <point x="358" y="242" type="line"/>
      <point x="358" y="0" type="line"/>
      <point x="174" y="0" type="line"/>
      <point x="174" y="1454" type="line"/>
      <point x="358" y="1454" type="line"/>
      <point x="358" y="1174" type="line"/>
      <point x="743" y="1174" type="line" smooth="yes"/>
      <point x="866" y="1174"/>
      <point x="1072" y="1037"/>
      <point x="1184" y="824"/>
    </contour>
    <contour>
      <point x="999" y="709" type="qcurve" smooth="yes"/>
      <point x="999" y="832"/>
      <point x="842" y="1010"/>
      <point x="735" y="1010" type="qcurve" smooth="yes"/>
      <point x="358" y="1010" type="line"/>
      <point x="358" y="406" type="line"/>
      <point x="748" y="406" type="line" smooth="yes"/>
      <point x="860" y="406"/>
      <point x="999" y="585"/>
    </contour>
  </outline>
</glyph>
<glyph name="germandbls" format="2">
  <advance width="1132"/>
  <unicode hex="00DF"/>
  <outline>
    <contour>
      <point x="494" y="154" type="line"/>
      <point x="671" y="157"/>
      <point x="874" y="297"/>
      <point x="874" y="440" type="qcurve" smooth="yes"/>
      <point x="874" y="572"/>
      <point x="704" y="731"/>
      <point x="565" y="731" type="qcurve" smooth="yes"/>
      <point x="526" y="731" type="line"/>
      <point x="526" y="895" type="line"/>
      <point x="563" y="895" type="line" smooth="yes"/>
      <point x="662" y="895"/>
      <point x="784" y="1011"/>
      <point x="784" y="1106" type="qcurve" smooth="yes"/>
      <point x="784" y="1204"/>
      <point x="657" y="1307"/>
      <point x="563" y="1307" type="qcurve" smooth="yes"/>
      <point x="482" y="1307"/>
      <point x="367" y="1227"/>
      <point x="317" y="1105"/>
      <point x="317" y="1030" type="qcurve" smooth="yes"/>
      <point x="317" y="0" type="line"/>
      <point x="145" y="0" type="line"/>
      <point x="145" y="1059" type="line" smooth="yes"/>
      <point x="145" y="1237"/>
      <point x="384" y="1462"/>
      <point x="569" y="1462" type="qcurve" smooth="yes"/>
      <point x="736" y="1462"/>
      <point x="956" y="1279"/>
      <point x="956" y="1133" type="qcurve" smooth="yes"/>
      <point x="956" y="1025"/>
      <point x="837" y="846"/>
      <point x="752" y="823" type="qcurve"/>
      <point x="896" y="793"/>
      <point x="1061" y="575"/>
      <point x="1061" y="426" type="qcurve" smooth="yes"/>
      <point x="1061" y="222"/>
      <point x="751" y="-4"/>
      <point x="494" y="-12" type="qcurve"/>
    </contour>
  </outline>
</glyph>
<glyph name="atilde" format="2">
  <advance width="1134"/>
  <unicode hex="00E3"/>
  <anchor x="0" y="0" name="Anchor-11"/>
  <anchor x="0" y="0" name="Anchor-10"/>
  <anchor x="545" y="1495" name="Anchor-9"/>
  <anchor x="1049" y="0" name="Anchor-8"/>
  <anchor x="612" y="0" name="Anchor-7"/>
  <outline>
    <contour>
      <point x="408" y="1370" type="qcurve" smooth="yes"/>
      <point x="383" y="1370"/>
      <point x="344" y="1351"/>
      <point x="323" y="1325"/>
      <point x="310" y="1294"/>
      <point x="307" y="1276"/>
      <point x="307" y="1272" type="qcurve"/>
      <point x="201" y="1272" type="line"/>
      <point x="201" y="1290"/>
      <point x="220" y="1351"/>
      <point x="261" y="1428"/>
      <point x="347" y="1483"/>
      <point x="403" y="1483" type="qcurve" smooth="yes"/>
      <point x="452" y="1483"/>
      <point x="543" y="1439"/>
      <point x="627" y="1395"/>
      <point x="668" y="1395" type="qcurve" smooth="yes"/>
      <point x="697" y="1395"/>
      <point x="742" y="1415"/>
      <point x="765" y="1441"/>
      <point x="779" y="1472"/>
      <point x="782" y="1490"/>
      <point x="782" y="1495" type="qcurve"/>
      <point x="889" y="1495" type="line"/>
      <point x="889" y="1483"/>
      <point x="878" y="1439"/>
      <point x="847" y="1376"/>
      <point x="801" y="1322"/>
      <point x="721" y="1284"/>
      <point x="672" y="1284" type="qcurve" smooth="yes"/>
      <point x="620" y="1284"/>
      <point x="525" y="1327"/>
      <point x="444" y="1370"/>
    </contour>
    <contour>
      <point x="61" y="309" type="qcurve" smooth="yes"/>
      <point x="61" y="460"/>
      <point x="314" y="643"/>
      <point x="518" y="643" type="qcurve" smooth="yes"/>
      <point x="684" y="643"/>
      <point x="811" y="598" type="qcurve"/>
      <point x="811" y="676" type="line" smooth="yes"/>
      <point x="811" y="800"/>
      <point x="662" y="940"/>
      <point x="528" y="940" type="qcurve" smooth="yes"/>
      <point x="371" y="940"/>
      <point x="188" y="817" type="qcurve"/>
      <point x="123" y="944" type="line"/>
      <point x="334" y="1087"/>
      <point x="549" y="1087" type="qcurve" smooth="yes"/>
      <point x="754" y="1087"/>
      <point x="991" y="859"/>
      <point x="991" y="657" type="qcurve" smooth="yes"/>
      <point x="991" y="205" type="line" smooth="yes"/>
      <point x="991" y="171"/>
      <point x="1018" y="141"/>
      <point x="1049" y="139" type="qcurve"/>
      <point x="1049" y="0" type="line"/>
      <point x="1000" y="-8"/>
      <point x="971" y="-8" type="qcurve" smooth="yes"/>
      <point x="911" y="-8"/>
      <point x="843" y="57"/>
      <point x="840" y="100" type="qcurve" smooth="yes"/>
      <point x="836" y="168" type="line"/>
      <point x="767" y="80"/>
      <point x="544" y="-20"/>
      <point x="430" y="-20" type="qcurve" smooth="yes"/>
      <point x="270" y="-20"/>
      <point x="61" y="170"/>
    </contour>
    <contour>
      <point x="758" y="233" type="qcurve" smooth="yes"/>
      <point x="782" y="260"/>
      <point x="811" y="321"/>
      <point x="811" y="342" type="qcurve" smooth="yes"/>
      <point x="811" y="475" type="line"/>
      <point x="681" y="526"/>
      <point x="541" y="526" type="qcurve" smooth="yes"/>
      <point x="402" y="526"/>
      <point x="233" y="417"/>
      <point x="233" y="324" type="qcurve" smooth="yes"/>
      <point x="233" y="241"/>
      <point x="363" y="115"/>
      <point x="477" y="115" type="qcurve" smooth="yes"/>
      <point x="559" y="115"/>
      <point x="712" y="180"/>
    </contour>
  </outline>
</glyph>
<glyph name="aring" format="2">
  <advance width="1134"/>
  <unicode hex="00E5"/>
  <anchor x="0" y="0" name="Anchor-11"/>
  <anchor x="0" y="0" name="Anchor-10"/>
  <anchor x="545" y="1542" name="Anchor-9"/>
  <anchor x="1049" y="0" name="Anchor-8"/>
  <anchor x="612" y="0" name="Anchor-7"/>
  <outline>
    <contour>
      <point x="545" y="1542" type="qcurve" smooth="yes"/>
      <point x="632" y="1542"/>
      <point x="739" y="1443"/>
      <point x="739" y="1362" type="qcurve" smooth="yes"/>
      <point x="739" y="1283"/>
      <point x="632" y="1186"/>
      <point x="545" y="1186" type="qcurve" smooth="yes"/>
      <point x="459" y="1186"/>
      <point x="350" y="1283"/>
      <point x="350" y="1362" type="qcurve" smooth="yes"/>
      <point x="350" y="1443"/>
      <point x="459" y="1542"/>
    </contour>
    <contour>
      <point x="449" y="1362" type="qcurve" smooth="yes"/>
      <point x="449" y="1321"/>
      <point x="504" y="1266"/>
      <point x="545" y="1266" type="qcurve" smooth="yes"/>
      <point x="585" y="1266"/>
      <point x="643" y="1320"/>
      <point x="643" y="1362" type="qcurve" smooth="yes"/>
      <point x="643" y="1408"/>
      <point x="588" y="1460"/>
      <point x="545" y="1460" type="qcurve" smooth="yes"/>
      <point x="504" y="1460"/>
      <point x="449" y="1408"/>
    </contour>
    <contour>
      <point x="61" y="309" type="qcurve" smooth="yes"/>
      <point x="61" y="460"/>
      <point x="314" y="643"/>
      <point x="518" y="643" type="qcurve" smooth="yes"/>
      <point x="684" y="643"/>
      <point x="811" y="598" type="qcurve"/>
      <point x="811" y="676" type="line" smooth="yes"/>
      <point x="811" y="800"/>
      <point x="662" y="940"/>
      <point x="528" y="940" type="qcurve" smooth="yes"/>
      <point x="371" y="940"/>
      <point x="188" y="817" type="qcurve"/>
      <point x="123" y="944" type="line"/>
      <point x="334" y="1087"/>
      <point x="549" y="1087" type="qcurve" smooth="yes"/>
      <point x="754" y="1087"/>
      <point x="991" y="859"/>
      <point x="991" y="657" type="qcurve" smooth="yes"/>
      <point x="991" y="205" type="line" smooth="yes"/>
      <point x="991" y="171"/>
      <point x="1018" y="141"/>
      <point x="1049" y="139" type="qcurve"/>
      <point x="1049" y="0" type="line"/>
      <point x="1000" y="-8"/>
      <point x="971" y="-8" type="qcurve" smooth="yes"/>
      <point x="911" y="-8"/>
      <point x="843" y="57"/>
      <point x="840" y="100" type="qcurve" smooth="yes"/>
      <point x="836" y="168" type="line"/>
      <point x="767" y="80"/>
      <point x="544" y="-20"/>
      <point x="430" y="-20" type="qcurve" smooth="yes"/>
      <point x="270" y="-20"/>
      <point x="61" y="170"/>
    </contour>
    <contour>
      <point x="758" y="233" type="qcurve" smooth="yes"/>
      <point x="782" y="260"/>
      <point x="811" y="321"/>
      <point x="811" y="342" type="qcurve" smooth="yes"/>
      <point x="811" y="475" type="line"/>
      <point x="681" y="526"/>
      <point x="541" y="526" type="qcurve" smooth="yes"/>
      <point x="402" y="526"/>
      <point x="233" y="417"/>
      <point x="233" y="324" type="qcurve" smooth="yes"/>
      <point x="233" y="241"/>
      <point x="363" y="115"/>
      <point x="477" y="115" type="qcurve" smooth="yes"/>
      <point x="559" y="115"/>
      <point x="712" y="180"/>
    </contour>
  </outline>
</glyph>
<glyph name="eacute" format="2">
  <advance width="1210"/>
  <unicode hex="00E9"/>
  <anchor x="0" y="0" name="Anchor-11"/>
  <anchor x="0" y="0" name="Anchor-10"/>
  <anchor x="707" y="1495" name="Anchor-9"/>
  <anchor x="770" y="0" name="Anchor-8"/>
  <anchor x="616" y="0" name="Anchor-7"/>
  <outline>
    <contour>
      <point x="676" y="1247" type="line"/>
      <point x="557" y="1288" type="line"/>
      <point x="676" y="1495" type="line"/>
      <point x="856" y="1495" type="line"/>
    </contour>
    <contour>
      <point x="618" y="-20" type="qcurve" smooth="yes"/>
      <point x="461" y="-20"/>
      <point x="210" y="132"/>
      <point x="74" y="385"/>
      <point x="74" y="535" type="qcurve" smooth="yes"/>
      <point x="74" y="647"/>
      <point x="155" y="849"/>
      <point x="297" y="999"/>
      <point x="503" y="1087"/>
      <point x="739" y="1087"/>
      <point x="942" y="998"/>
      <point x="1078" y="848"/>
      <point x="1155" y="650"/>
      <point x="1155" y="543" type="qcurve" smooth="yes"/>
      <point x="1155" y="497"/>
      <point x="1151" y="473" type="qcurve"/>
      <point x="264" y="473" type="line"/>
      <point x="276" y="317"/>
      <point x="484" y="115"/>
      <point x="625" y="115" type="qcurve" smooth="yes"/>
      <point x="724" y="115"/>
      <point x="897" y="214"/>
      <point x="930" y="293" type="qcurve"/>
      <point x="1085" y="250" type="line"/>
      <point x="1032" y="130"/>
      <point x="777" y="-20"/>
    </contour>
    <contour>
      <point x="258" y="598" type="qcurve"/>
      <point x="987" y="598" type="line"/>
      <point x="974" y="753"/>
      <point x="765" y="952"/>
      <point x="477" y="952"/>
      <point x="268" y="752"/>
    </contour>
  </outline>
</glyph>
<glyph name="igrave" format="2">
  <advance width="471"/>
  <unicode hex="00EC"/>
  <anchor x="0" y="0" name="Anchor-11"/>
  <anchor x="0" y="0" name="Anchor-10"/>
  <anchor x="172" y="1497" name="Anchor-9"/>
  <anchor x="0" y="0" name="Anchor-8"/>
  <anchor x="0" y="0" name="Anchor-7"/>
  <outline>
    <contour>
      <point x="23" y="1497" type="line"/>
      <point x="201" y="1497" type="line"/>
      <point x="322" y="1290" type="line"/>
      <point x="205" y="1249" type="line"/>
    </contour>
    <contour>
      <point x="145" y="0" type="line"/>
      <point x="145" y="1069" type="line"/>
      <point x="326" y="1069" type="line"/>
      <point x="326" y="0" type="line"/>
    </contour>
  </outline>
</glyph>
<glyph name="iacute" format="2">
  <advance width="471"/>
  <unicode hex="00ED"/>
  <anchor x="0" y="0" name="Anchor-11"/>
  <anchor x="0" y="0" name="Anchor-10"/>
  <anchor x="330" y="1495" name="Anchor-9"/>
  <anchor x="0" y="0" name="Anchor-8"/>
  <anchor x="0" y="0" name="Anchor-7"/>
  <outline>
    <contour>
      <point x="299" y="1247" type="line"/>
      <point x="180" y="1288" type="line"/>
      <point x="299" y="1495" type="line"/>
      <point x="479" y="1495" type="line"/>
    </contour>
    <contour>
      <point x="145" y="0" type="line"/>
      <point x="145" y="1069" type="line"/>
      <point x="326" y="1069" type="line"/>
      <point x="326" y="0" type="line"/>
    </contour>
  </outline>
</glyph>
<glyph name="idieresis" format="2">
  <advance width="471"/>
  <unicode hex="00EF"/>
  <anchor x="0" y="0" name="Anchor-11"/>
  <anchor x="0" y="0" name="Anchor-10"/>
  <anchor x="236" y="1477" name="Anchor-9"/>
  <anchor x="0" y="0" name="Anchor-8"/>
  <anchor x="0" y="0" name="Anchor-7"/>
  <outline>
    <contour>
      <point x="-6" y="1280" type="line"/>
      <point x="-6" y="1489" type="line"/>
      <point x="145" y="1489" type="line"/>
      <point x="145" y="1280" type="line"/>
    </contour>
    <contour>
      <point x="326" y="1280" type="line"/>
      <point x="326" y="1489" type="line"/>
      <point x="477" y="1489" type="line"/>
      <point x="477" y="1280" type="line"/>
    </contour>
    <contour>
      <point x="145" y="0" type="line"/>
      <point x="145" y="1069" type="line"/>
      <point x="326" y="1069" type="line"/>
      <point x="326" y="0" type="line"/>
    </contour>
  </outline>
</glyph>
<glyph name="eth" format="2">
  <advance width="1241"/>
  <unicode hex="00F0"/>
  <outline>
    <contour>
      <point x="877" y="1290" type="line"/>
      <point x="1024" y="1134"/>
      <point x="1159" y="766"/>
      <point x="1159" y="594" type="qcurve" smooth="yes"/>
      <point x="1159" y="455"/>
      <point x="1070" y="221"/>
      <point x="919" y="66"/>
      <point x="719" y="-20"/>
      <point x="608" y="-20" type="qcurve" smooth="yes"/>
      <point x="465" y="-20"/>
      <point x="223" y="111"/>
      <point x="80" y="340"/>
      <point x="80" y="477" type="qcurve" smooth="yes"/>
      <point x="80" y="609"/>
      <point x="214" y="836"/>
      <point x="445" y="969"/>
      <point x="580" y="969" type="qcurve" smooth="yes"/>
      <point x="706" y="969"/>
      <point x="919" y="852"/>
      <point x="975" y="754" type="qcurve"/>
      <point x="930" y="1023"/>
      <point x="737" y="1223" type="qcurve"/>
      <point x="518" y="1090" type="line"/>
      <point x="463" y="1165" type="line"/>
      <point x="668" y="1288" type="line"/>
      <point x="537" y="1400"/>
      <point x="362" y="1495" type="qcurve"/>
      <point x="616" y="1495" type="line"/>
      <point x="731" y="1426"/>
      <point x="807" y="1356" type="qcurve"/>
      <point x="979" y="1460" type="line"/>
      <point x="1034" y="1384" type="line"/>
    </contour>
    <contour>
      <point x="614" y="135" type="qcurve" smooth="yes"/>
      <point x="765" y="135"/>
      <point x="975" y="345"/>
      <point x="975" y="489" type="qcurve" smooth="yes"/>
      <point x="975" y="629"/>
      <point x="770" y="821"/>
      <point x="623" y="821" type="qcurve" smooth="yes"/>
      <point x="473" y="821"/>
      <point x="264" y="620"/>
      <point x="264" y="334"/>
      <point x="468" y="135"/>
    </contour>
  </outline>
</glyph>
<glyph name="ntilde" format="2">
  <advance width="1208"/>
  <unicode hex="00F1"/>
  <anchor x="0" y="0" name="Anchor-11"/>
  <anchor x="0" y="0" name="Anchor-10"/>
  <anchor x="621" y="1495" name="Anchor-9"/>
  <anchor x="0" y="0" name="Anchor-8"/>
  <anchor x="602" y="0" name="Anchor-7"/>
  <outline>
    <contour>
      <point x="483" y="1370" type="qcurve" smooth="yes"/>
      <point x="452" y="1370"/>
      <point x="408" y="1343"/>
      <point x="390" y="1304"/>
      <point x="383" y="1279"/>
      <point x="383" y="1272" type="qcurve"/>
      <point x="276" y="1272" type="line"/>
      <point x="276" y="1290"/>
      <point x="295" y="1351"/>
      <point x="337" y="1428"/>
      <point x="423" y="1483"/>
      <point x="479" y="1483" type="qcurve" smooth="yes"/>
      <point x="528" y="1483"/>
      <point x="618" y="1439"/>
      <point x="702" y="1395"/>
      <point x="743" y="1395" type="qcurve" smooth="yes"/>
      <point x="772" y="1395"/>
      <point x="817" y="1415"/>
      <point x="840" y="1441"/>
      <point x="854" y="1472"/>
      <point x="858" y="1490"/>
      <point x="858" y="1495" type="qcurve"/>
      <point x="965" y="1495" type="line"/>
      <point x="965" y="1483"/>
      <point x="954" y="1439"/>
      <point x="923" y="1376"/>
      <point x="877" y="1322"/>
      <point x="797" y="1284"/>
      <point x="748" y="1284" type="qcurve" smooth="yes"/>
      <point x="696" y="1284"/>
      <point x="600" y="1327"/>
      <point x="519" y="1370"/>
    </contour>
    <contour>
      <point x="1073" y="0" type="line"/>
      <point x="893" y="0" type="line"/>
      <point x="893" y="598" type="line" smooth="yes"/>
      <point x="893" y="767"/>
      <point x="789" y="926"/>
      <point x="682" y="926" type="qcurve" smooth="yes"/>
      <point x="570" y="926"/>
      <point x="362" y="765"/>
      <point x="326" y="645" type="qcurve"/>
      <point x="326" y="0" type="line"/>
      <point x="145" y="0" type="line"/>
      <point x="145" y="1069" type="line"/>
      <point x="309" y="1069" type="line"/>
      <point x="309" y="840" type="line"/>
      <point x="372" y="953"/>
      <point x="613" y="1087"/>
      <point x="754" y="1087" type="qcurve" smooth="yes"/>
      <point x="844" y="1087"/>
      <point x="972" y="1021"/>
      <point x="1042" y="896"/>
      <point x="1073" y="741"/>
      <point x="1073" y="639" type="qcurve" smooth="yes"/>
    </contour>
  </outline>
</glyph>
<glyph name="otilde" format="2">
  <advance width="1226"/>
  <unicode hex="00F5"/>
  <anchor x="899" y="938" name="Anchor-11"/>
  <anchor x="614" y="535" name="Anchor-10"/>
  <anchor x="612" y="1495" name="Anchor-9"/>
  <anchor x="762" y="0" name="Anchor-8"/>
  <anchor x="612" y="0" name="Anchor-7"/>
  <outline>
    <contour>
      <point x="475" y="1370" type="qcurve" smooth="yes"/>
      <point x="444" y="1370"/>
      <point x="400" y="1343"/>
      <point x="382" y="1304"/>
      <point x="375" y="1279"/>
      <point x="375" y="1272" type="qcurve"/>
      <point x="268" y="1272" type="line"/>
      <point x="268" y="1290"/>
      <point x="287" y="1351"/>
      <point x="329" y="1428"/>
      <point x="415" y="1483"/>
      <point x="471" y="1483" type="qcurve" smooth="yes"/>
      <point x="520" y="1483"/>
      <point x="610" y="1439"/>
      <point x="694" y="1395"/>
      <point x="735" y="1395" type="qcurve" smooth="yes"/>
      <point x="764" y="1395"/>
      <point x="809" y="1415"/>
      <point x="832" y="1441"/>
      <point x="846" y="1472"/>
      <point x="850" y="1490"/>
      <point x="850" y="1495" type="qcurve"/>
      <point x="956" y="1495" type="line"/>
      <point x="956" y="1483"/>
      <point x="945" y="1439"/>
      <point x="914" y="1376"/>
      <point x="868" y="1322"/>
      <point x="788" y="1284"/>
      <point x="739" y="1284" type="qcurve" smooth="yes"/>
      <point x="687" y="1284"/>
      <point x="592" y="1327"/>
      <point x="511" y="1370"/>
    </contour>
    <contour>
      <point x="74" y="681"/>
      <point x="209" y="934"/>
      <point x="458" y="1087"/>
      <point x="612" y="1087" type="qcurve" smooth="yes"/>
      <point x="767" y="1087"/>
      <point x="1017" y="934"/>
      <point x="1153" y="681"/>
      <point x="1153" y="532" type="qcurve" smooth="yes"/>
      <point x="1153" y="421"/>
      <point x="1074" y="220"/>
      <point x="934" y="69"/>
      <point x="730" y="-20"/>
      <point x="612" y="-20" type="qcurve" smooth="yes"/>
      <point x="455" y="-20"/>
      <point x="207" y="132"/>
      <point x="74" y="383"/>
    </contour>
    <contour>
      <point x="760" y="135"/>
      <point x="969" y="368"/>
      <point x="969" y="535" type="qcurve" smooth="yes"/>
      <point x="969" y="700"/>
      <point x="760" y="932"/>
      <point x="612" y="932" type="qcurve" smooth="yes"/>
      <point x="466" y="932"/>
      <point x="258" y="697"/>
      <point x="258" y="363"/>
      <point x="464" y="135"/>
    </contour>
  </outline>
</glyph>
<glyph name="divide" format="2">
  <advance width="1091"/>
  <unicode hex="00F7"/>
  <outline>
    <contour>
      <point x="469" y="829" type="line"/>
      <point x="469" y="1038" type="line"/>
      <point x="623" y="1038" type="line"/>
      <point x="623" y="829" type="line"/>
    </contour>
    <contour>
      <point x="133" y="514" type="line"/>
      <point x="133" y="662" type="line"/>
      <point x="958" y="662" type="line"/>
      <point x="958" y="514" type="line"/>
    </contour>
    <contour>
      <point x="469" y="135" type="line"/>
      <point x="469" y="344" type="line"/>
      <point x="623" y="344" type="line"/>
      <point x="623" y="135" type="line"/>
    </contour>
  </outline>
</glyph>
<glyph name="oslash" format="2">
  <advance width="1226"/>
  <unicode hex="00F8"/>
  <outline>
    <contour>
      <point x="985" y="940" type="line"/>
      <point x="1065" y="863"/>
      <point x="1153" y="651"/>
      <point x="1153" y="532" type="qcurve" smooth="yes"/>
      <point x="1153" y="421"/>
      <point x="1074" y="220"/>
      <point x="934" y="69"/>
      <point x="730" y="-20"/>
      <point x="612" y="-20" type="qcurve" smooth="yes"/>
      <point x="456" y="-20"/>
      <point x="334" y="55" type="qcurve"/>
      <point x="287" y="-4" type="line"/>
      <point x="133" y="-4" type="line"/>
      <point x="240" y="127" type="line"/>
      <point x="161" y="204"/>
      <point x="74" y="415"/>
      <point x="74" y="532" type="qcurve" smooth="yes"/>
      <point x="74" y="681"/>
      <point x="209" y="934"/>
      <point x="458" y="1087"/>
      <point x="612" y="1087" type="qcurve" smooth="yes"/>
      <point x="765" y="1087"/>
      <point x="889" y="1014" type="qcurve"/>
      <point x="934" y="1073" type="line"/>
      <point x="1090" y="1073" type="line"/>
    </contour>
    <contour>
      <point x="612" y="932" type="qcurve" smooth="yes"/>
      <point x="466" y="932"/>
      <point x="258" y="697"/>
      <point x="258" y="530" type="qcurve" smooth="yes"/>
      <point x="258" y="377"/>
      <point x="352" y="258" type="qcurve"/>
      <point x="782" y="885" type="line"/>
      <point x="705" y="932"/>
    </contour>
    <contour>
      <point x="612" y="135" type="qcurve" smooth="yes"/>
      <point x="760" y="135"/>
      <point x="969" y="368"/>
      <point x="969" y="535" type="qcurve" smooth="yes"/>
      <point x="969" y="692"/>
      <point x="872" y="807" type="qcurve"/>
      <point x="440" y="184" type="line"/>
      <point x="521" y="135"/>
    </contour>
  </outline>
</glyph>
<glyph name="ucircumflex" format="2">
  <advance width="1230"/>
  <unicode hex="00FB"/>
  <anchor x="1110" y="936" name="Anchor-11"/>
  <anchor x="0" y="0" name="Anchor-10"/>
  <anchor x="602" y="1495" name="Anchor-9"/>
  <anchor x="1133" y="0" name="Anchor-8"/>
  <anchor x="623" y="14" name="Anchor-7"/>
  <outline>
    <contour>
      <point x="330" y="1311" type="line"/>
      <point x="537" y="1495" type="line"/>
      <point x="668" y="1495" type="line"/>
      <point x="874" y="1311" type="line"/>
      <point x="776" y="1262" type="line"/>
      <point x="602" y="1391" type="line"/>
      <point x="428" y="1262" type="line"/>
    </contour>
    <contour>
      <point x="135" y="428" type="qcurve" smooth="yes"/>
      <point x="135" y="1069" type="line"/>
      <point x="315" y="1069" type="line"/>
      <point x="315" y="463" type="line" smooth="yes"/>
      <point x="315" y="135"/>
      <point x="543" y="135" type="qcurve" smooth="yes"/>
      <point x="655" y="135"/>
      <point x="848" y="278"/>
      <point x="895" y="399" type="qcurve"/>
      <point x="895" y="1069" type="line"/>
      <point x="1075" y="1069" type="line"/>
      <point x="1075" y="205" type="line" smooth="yes"/>
      <point x="1075" y="171"/>
      <point x="1102" y="141"/>
      <point x="1133" y="139" type="qcurve"/>
      <point x="1133" y="0" type="line"/>
      <point x="1092" y="-6"/>
      <point x="1051" y="-6" type="qcurve" smooth="yes"/>
      <point x="998" y="-6"/>
      <point x="925" y="57"/>
      <point x="924" y="104" type="qcurve" smooth="yes"/>
      <point x="920" y="229" type="line"/>
      <point x="850" y="110"/>
      <point x="614" y="-20"/>
      <point x="475" y="-20" type="qcurve" smooth="yes"/>
      <point x="308" y="-20"/>
      <point x="135" y="207"/>
    </contour>
  </outline>
</glyph>
<glyph name="yacute" format="2">
  <advance width="1116"/>
  <unicode hex="00FD"/>
  <anchor x="0" y="0" name="Anchor-11"/>
  <anchor x="0" y="0" name="Anchor-10"/>
  <anchor x="670" y="1495" name="Anchor-9"/>
  <anchor x="0" y="0" name="Anchor-8"/>
  <anchor x="784" y="0" name="Anchor-7"/>
  <outline>
    <contour>
      <point x="639" y="1247" type="line"/>
      <point x="520" y="1288" type="line"/>
      <point x="639" y="1495" type="line"/>
      <point x="819" y="1495" type="line"/>
    </contour>
    <contour>
      <point x="195" y="-291" type="line"/>
      <point x="265" y="-299"/>
      <point x="289" y="-299" type="qcurve" smooth="yes"/>
      <point x="338" y="-299"/>
      <point x="404" y="-192"/>
      <point x="477" y="0" type="qcurve"/>
      <point x="25" y="1069" type="line"/>
      <point x="215" y="1069" type="line"/>
      <point x="575" y="182" type="line"/>
      <point x="901" y="1069" type="line"/>
      <point x="1079" y="1069" type="line"/>
      <point x="559" y="-281" type="line" smooth="yes"/>
      <point x="528" y="-360"/>
      <point x="389" y="-461"/>
      <point x="281" y="-461" type="qcurve" smooth="yes"/>
      <point x="241" y="-461"/>
      <point x="195" y="-451" type="qcurve"/>
    </contour>
  </outline>
</glyph>
<glyph name="thorn" format="2">
  <advance width="1234"/>
  <unicode hex="00FE"/>
  <outline>
    <contour>
      <point x="635" y="-37" type="qcurve" smooth="yes"/>
      <point x="535" y="-37"/>
      <point x="371" y="55"/>
      <point x="330" y="123" type="qcurve"/>
      <point x="330" y="-436" type="line"/>
      <point x="145" y="-436" type="line"/>
      <point x="145" y="1454" type="line"/>
      <point x="330" y="1454" type="line"/>
      <point x="330" y="920" type="line"/>
      <point x="455" y="1094"/>
      <point x="653" y="1094" type="qcurve" smooth="yes"/>
      <point x="745" y="1094"/>
      <point x="909" y="1028"/>
      <point x="1029" y="915"/>
      <point x="1118" y="770"/>
      <point x="1163" y="607"/>
      <point x="1163" y="526" type="qcurve" smooth="yes"/>
      <point x="1161" y="379"/>
      <point x="1021" y="120"/>
      <point x="778" y="-37"/>
    </contour>
    <contour>
      <point x="643" y="930" type="qcurve" smooth="yes"/>
      <point x="540" y="930"/>
      <point x="380" y="805"/>
      <point x="330" y="705" type="qcurve"/>
      <point x="330" y="354" type="line" smooth="yes"/>
      <point x="330" y="271"/>
      <point x="530" y="127"/>
      <point x="631" y="127" type="qcurve" smooth="yes"/>
      <point x="729" y="127"/>
      <point x="891" y="240"/>
      <point x="979" y="424"/>
      <point x="979" y="528" type="qcurve" smooth="yes"/>
      <point x="979" y="634"/>
      <point x="897" y="817"/>
      <point x="741" y="930"/>
    </contour>
  </outline>
</glyph>
<glyph name="ydieresis" format="2">
  <advance width="1116"/>
  <unicode hex="00FF"/>
  <anchor x="0" y="0" name="Anchor-11"/>
  <anchor x="0" y="0" name="Anchor-10"/>
  <anchor x="575" y="1477" name="Anchor-9"/>
  <anchor x="0" y="0" name="Anchor-8"/>
  <anchor x="784" y="0" name="Anchor-7"/>
  <outline>
    <contour>
      <point x="334" y="1280" type="line"/>
      <point x="334" y="1489" type="line"/>
      <point x="485" y="1489" type="line"/>
      <point x="485" y="1280" type="line"/>
    </contour>
    <contour>
      <point x="666" y="1280" type="line"/>
      <point x="666" y="1489" type="line"/>
      <point x="817" y="1489" type="line"/>
      <point x="817" y="1280" type="line"/>
    </contour>
    <contour>
      <point x="195" y="-291" type="line"/>
      <point x="265" y="-299"/>
      <point x="289" y="-299" type="qcurve" smooth="yes"/>
      <point x="338" y="-299"/>
      <point x="404" y="-192"/>
      <point x="477" y="0" type="qcurve"/>
      <point x="25" y="1069" type="line"/>
      <point x="215" y="1069" type="line"/>
      <point x="575" y="182" type="line"/>
      <point x="901" y="1069" type="line"/>
      <point x="1079" y="1069" type="line"/>
      <point x="559" y="-281" type="line" smooth="yes"/>
      <point x="528" y="-360"/>
      <point x="389" y="-461"/>
      <point x="281" y="-461" type="qcurve" smooth="yes"/>
      <point x="241" y="-461"/>
      <point x="195" y="-451" type="qcurve"/>
    </contour>
  </outline>
</glyph>
<glyph name="Aogonek" format="2">
  <advance width="1386"/>
  <unicode hex="0104"/>
  <anchor x="0" y="0" name="Anchor-11"/>
  <anchor x="0" y="0" name="Anchor-10"/>
  <anchor x="694" y="1450" name="Anchor-9"/>
  <anchor x="1366" y="0" name="Anchor-8"/>
  <anchor x="713" y="0" name="Anchor-7"/>
  <outline>
    <contour>
      <point x="1206" y="-195" type="qcurve" smooth="yes"/>
      <point x="1206" y="-234"/>
      <point x="1286" y="-267"/>
      <point x="1366" y="-272" type="qcurve"/>
      <point x="1325" y="-387" type="line"/>
      <point x="1085" y="-370"/>
      <point x="1085" y="-219" type="qcurve" smooth="yes"/>
      <point x="1085" y="-106"/>
      <point x="1223" y="0" type="qcurve"/>
      <point x="1169" y="0" type="line"/>
      <point x="997" y="426" type="line"/>
      <point x="387" y="426" type="line"/>
      <point x="217" y="0" type="line"/>
      <point x="20" y="0" type="line"/>
      <point x="616" y="1454" type="line"/>
      <point x="772" y="1454" type="line"/>
      <point x="1366" y="0" type="line"/>
      <point x="1282" y="-64"/>
      <point x="1206" y="-157"/>
    </contour>
    <contour>
      <point x="424" y="569" type="line"/>
      <point x="956" y="569" type="line"/>
      <point x="694" y="1241" type="line"/>
    </contour>
  </outline>
</glyph>
<glyph name="aogonek" format="2">
  <advance width="1134"/>
  <unicode hex="0105"/>
  <anchor x="0" y="0" name="Anchor-11"/>
  <anchor x="0" y="0" name="Anchor-10"/>
  <anchor x="545" y="1069" name="Anchor-9"/>
  <anchor x="1049" y="0" name="Anchor-8"/>
  <anchor x="612" y="0" name="Anchor-7"/>
  <outline>
    <contour>
      <point x="1049" y="0" type="line"/>
      <point x="965" y="-64"/>
      <point x="889" y="-157"/>
      <point x="889" y="-195" type="qcurve" smooth="yes"/>
      <point x="889" y="-234"/>
      <point x="969" y="-267"/>
      <point x="1049" y="-272" type="qcurve"/>
      <point x="1008" y="-387" type="line"/>
      <point x="768" y="-370"/>
      <point x="768" y="-219" type="qcurve" smooth="yes"/>
      <point x="768" y="-105"/>
      <point x="909" y="4" type="qcurve"/>
      <point x="877" y="17"/>
      <point x="842" y="70"/>
      <point x="840" y="100" type="qcurve" smooth="yes"/>
      <point x="836" y="168" type="line"/>
      <point x="767" y="80"/>
      <point x="544" y="-20"/>
      <point x="430" y="-20" type="qcurve" smooth="yes"/>
      <point x="270" y="-20"/>
      <point x="61" y="170"/>
      <point x="61" y="309" type="qcurve" smooth="yes"/>
      <point x="61" y="460"/>
      <point x="314" y="643"/>
      <point x="518" y="643" type="qcurve" smooth="yes"/>
      <point x="684" y="643"/>
      <point x="811" y="598" type="qcurve"/>
      <point x="811" y="676" type="line" smooth="yes"/>
      <point x="811" y="800"/>
      <point x="662" y="940"/>
      <point x="528" y="940" type="qcurve" smooth="yes"/>
      <point x="371" y="940"/>
      <point x="188" y="817" type="qcurve"/>
      <point x="123" y="944" type="line"/>
      <point x="334" y="1087"/>
      <point x="549" y="1087" type="qcurve" smooth="yes"/>
      <point x="754" y="1087"/>
      <point x="991" y="859"/>
      <point x="991" y="657" type="qcurve" smooth="yes"/>
      <point x="991" y="205" type="line" smooth="yes"/>
      <point x="991" y="171"/>
      <point x="1018" y="141"/>
      <point x="1049" y="139" type="qcurve"/>
    </contour>
    <contour>
      <point x="811" y="342" type="qcurve" smooth="yes"/>
      <point x="811" y="475" type="line"/>
      <point x="681" y="526"/>
      <point x="541" y="526" type="qcurve" smooth="yes"/>
      <point x="402" y="526"/>
      <point x="233" y="417"/>
      <point x="233" y="324" type="qcurve" smooth="yes"/>
      <point x="233" y="241"/>
      <point x="363" y="115"/>
      <point x="477" y="115" type="qcurve" smooth="yes"/>
      <point x="559" y="115"/>
      <point x="712" y="180"/>
      <point x="758" y="233" type="qcurve" smooth="yes"/>
      <point x="782" y="260"/>
      <point x="811" y="321"/>
    </contour>
  </outline>
</glyph>
<glyph name="Ccircumflex" format="2">
  <advance width="1396"/>
  <unicode hex="0108"/>
  <anchor x="0" y="0" name="Anchor-11"/>
  <anchor x="0" y="0" name="Anchor-10"/>
  <anchor x="770" y="1876" name="Anchor-9"/>
  <anchor x="0" y="0" name="Anchor-8"/>
  <anchor x="764" y="0" name="Anchor-7"/>
  <outline>
    <contour>
      <point x="498" y="1692" type="line"/>
      <point x="705" y="1876" type="line"/>
      <point x="836" y="1876" type="line"/>
      <point x="1042" y="1692" type="line"/>
      <point x="944" y="1642" type="line"/>
      <point x="770" y="1772" type="line"/>
      <point x="596" y="1642" type="line"/>
    </contour>
    <contour>
      <point x="772" y="1462" type="qcurve" smooth="yes"/>
      <point x="960" y="1462"/>
      <point x="1243" y="1289"/>
      <point x="1313" y="1145" type="qcurve"/>
      <point x="1167" y="1051" type="line"/>
      <point x="1136" y="1117"/>
      <point x="1042" y="1216"/>
      <point x="933" y="1270"/>
      <point x="822" y="1296"/>
      <point x="764" y="1296" type="qcurve" smooth="yes"/>
      <point x="647" y="1296"/>
      <point x="453" y="1196"/>
      <point x="332" y="1033"/>
      <point x="266" y="834"/>
      <point x="266" y="729" type="qcurve" smooth="yes"/>
      <point x="266" y="578"/>
      <point x="396" y="315"/>
      <point x="629" y="154"/>
      <point x="770" y="154" type="qcurve" smooth="yes"/>
      <point x="850" y="154"/>
      <point x="1003" y="205"/>
      <point x="1146" y="324"/>
      <point x="1186" y="410" type="qcurve"/>
      <point x="1339" y="326" type="line"/>
      <point x="1295" y="222"/>
      <point x="1104" y="65"/>
      <point x="877" y="-12"/>
      <point x="762" y="-12" type="qcurve" smooth="yes"/>
      <point x="617" y="-12"/>
      <point x="359" y="118"/>
      <point x="183" y="330"/>
      <point x="80" y="599"/>
      <point x="80" y="737" type="qcurve" smooth="yes"/>
      <point x="80" y="843"/>
      <point x="139" y="1052"/>
      <point x="257" y="1237"/>
      <point x="420" y="1379"/>
      <point x="645" y="1462"/>
    </contour>
  </outline>
</glyph>
<glyph name="ccircumflex" format="2">
  <advance width="1134"/>
  <unicode hex="0109"/>
  <anchor x="0" y="0" name="Anchor-11"/>
  <anchor x="0" y="0" name="Anchor-10"/>
  <anchor x="614" y="1495" name="Anchor-9"/>
  <anchor x="0" y="0" name="Anchor-8"/>
  <anchor x="618" y="0" name="Anchor-7"/>
  <outline>
    <contour>
      <point x="342" y="1311" type="line"/>
      <point x="549" y="1495" type="line"/>
      <point x="680" y="1495" type="line"/>
      <point x="887" y="1311" type="line"/>
      <point x="788" y="1262" type="line"/>
      <point x="614" y="1391" type="line"/>
      <point x="440" y="1262" type="line"/>
    </contour>
    <contour>
      <point x="618" y="-20" type="qcurve" smooth="yes"/>
      <point x="461" y="-20"/>
      <point x="210" y="133"/>
      <point x="74" y="387"/>
      <point x="74" y="537" type="qcurve" smooth="yes"/>
      <point x="74" y="688"/>
      <point x="207" y="937"/>
      <point x="457" y="1087"/>
      <point x="616" y="1087" type="qcurve" smooth="yes"/>
      <point x="772" y="1087"/>
      <point x="1007" y="948"/>
      <point x="1067" y="827" type="qcurve"/>
      <point x="891" y="772" type="line"/>
      <point x="850" y="847"/>
      <point x="701" y="932"/>
      <point x="612" y="932" type="qcurve" smooth="yes"/>
      <point x="462" y="932"/>
      <point x="258" y="706"/>
      <point x="258" y="537" type="qcurve" smooth="yes"/>
      <point x="258" y="369"/>
      <point x="467" y="135"/>
      <point x="614" y="135" type="qcurve" smooth="yes"/>
      <point x="707" y="135"/>
      <point x="874" y="233"/>
      <point x="899" y="301" type="qcurve"/>
      <point x="1075" y="248" type="line"/>
      <point x="1027" y="129"/>
      <point x="777" y="-20"/>
    </contour>
  </outline>
</glyph>
<glyph name="Dcaron" format="2">
  <advance width="1466"/>
  <unicode hex="010E"/>
  <anchor x="0" y="0" name="Anchor-11"/>
  <anchor x="733" y="727" name="Anchor-10"/>
  <anchor x="696" y="1876" name="Anchor-9"/>
  <anchor x="0" y="0" name="Anchor-8"/>
  <anchor x="733" y="0" name="Anchor-7"/>
  <outline>
    <contour>
      <point x="522" y="1876" type="line"/>
      <point x="696" y="1747" type="line"/>
      <point x="870" y="1876" type="line"/>
      <point x="969" y="1827" type="line"/>
      <point x="762" y="1642" type="line"/>
      <point x="631" y="1642" type="line"/>
      <point x="424" y="1827" type="line"/>
    </contour>
    <contour>
      <point x="174" y="0" type="line"/>
      <point x="174" y="1454" type="line"/>
      <point x="678" y="1454" type="line" smooth="yes"/>
      <point x="849" y="1454"/>
      <point x="1119" y="1341"/>
      <point x="1290" y="1142"/>
      <point x="1380" y="881"/>
      <point x="1380" y="729" type="qcurve" smooth="yes"/>
      <point x="1380" y="398"/>
      <point x="998" y="0"/>
      <point x="678" y="0" type="qcurve" smooth="yes"/>
    </contour>
    <contour>
      <point x="678" y="1290" type="qcurve" smooth="yes"/>
      <point x="358" y="1290" type="line"/>
      <point x="358" y="164" type="line"/>
      <point x="678" y="164" type="line" smooth="yes"/>
      <point x="842" y="164"/>
      <point x="1078" y="313"/>
      <point x="1194" y="566"/>
      <point x="1194" y="729" type="qcurve" smooth="yes"/>
      <point x="1194" y="981"/>
      <point x="920" y="1290"/>
    </contour>
  </outline>
</glyph>
<glyph name="dcaron" format="2">
  <advance width="1288"/>
  <unicode hex="010F"/>
  <anchor x="1227" y="1069" name="Anchor-11"/>
  <anchor x="645" y="535" name="Anchor-10"/>
  <anchor x="645" y="1069" name="Anchor-9"/>
  <anchor x="0" y="0" name="Anchor-8"/>
  <anchor x="645" y="0" name="Anchor-7"/>
  <outline>
    <contour>
      <point x="76" y="532" type="qcurve" smooth="yes"/>
      <point x="76" y="683"/>
      <point x="199" y="936"/>
      <point x="423" y="1087"/>
      <point x="561" y="1087" type="qcurve" smooth="yes"/>
      <point x="685" y="1087"/>
      <point x="890" y="958"/>
      <point x="952" y="856" type="qcurve"/>
      <point x="952" y="1495" type="line"/>
      <point x="1133" y="1495" type="line"/>
      <point x="1133" y="205" type="line" smooth="yes"/>
      <point x="1133" y="171"/>
      <point x="1159" y="140"/>
      <point x="1190" y="139" type="qcurve"/>
      <point x="1190" y="0" type="line"/>
      <point x="1138" y="-8"/>
      <point x="1110" y="-8" type="qcurve" smooth="yes"/>
      <point x="1057" y="-8"/>
      <point x="977" y="65"/>
      <point x="977" y="111" type="qcurve" smooth="yes"/>
      <point x="977" y="201" type="line"/>
      <point x="914" y="99"/>
      <point x="702" y="-20"/>
      <point x="586" y="-20" type="qcurve" smooth="yes"/>
      <point x="441" y="-20"/>
      <point x="205" y="133"/>
      <point x="76" y="385"/>
    </contour>
    <contour>
      <point x="1319" y="1247" type="line"/>
      <point x="1200" y="1288" type="line"/>
      <point x="1319" y="1495" type="line"/>
      <point x="1499" y="1495" type="line"/>
    </contour>
    <contour>
      <point x="952" y="375" type="qcurve"/>
      <point x="952" y="682" type="line"/>
      <point x="914" y="786"/>
      <point x="714" y="932"/>
      <point x="510" y="932"/>
      <point x="347" y="816"/>
      <point x="262" y="633"/>
      <point x="262" y="530" type="qcurve" smooth="yes"/>
      <point x="262" y="367"/>
      <point x="475" y="135"/>
      <point x="629" y="135" type="qcurve" smooth="yes"/>
      <point x="730" y="135"/>
      <point x="932" y="279"/>
    </contour>
  </outline>
</glyph>
<glyph name="Dcroat" format="2">
  <advance width="1478"/>
  <unicode hex="0110"/>
  <anchor x="0" y="0" name="Anchor-11"/>
  <anchor x="745" y="727" name="Anchor-10"/>
  <anchor x="709" y="1450" name="Anchor-9"/>
  <anchor x="0" y="0" name="Anchor-8"/>
  <anchor x="745" y="0" name="Anchor-7"/>
  <outline>
    <contour>
      <point x="690" y="1454" type="line" smooth="yes"/>
      <point x="827" y="1454"/>
      <point x="1057" y="1380"/>
      <point x="1222" y="1248"/>
      <point x="1337" y="1067"/>
      <point x="1393" y="850"/>
      <point x="1393" y="729" type="qcurve" smooth="yes"/>
      <point x="1393" y="398"/>
      <point x="1010" y="0"/>
      <point x="690" y="0" type="qcurve" smooth="yes"/>
      <point x="186" y="0" type="line"/>
      <point x="186" y="662" type="line"/>
      <point x="70" y="662" type="line"/>
      <point x="70" y="801" type="line"/>
      <point x="186" y="801" type="line"/>
      <point x="186" y="1454" type="line"/>
    </contour>
    <contour>
      <point x="690" y="164" type="line" smooth="yes"/>
      <point x="854" y="164"/>
      <point x="1090" y="313"/>
      <point x="1206" y="566"/>
      <point x="1206" y="729" type="qcurve" smooth="yes"/>
      <point x="1206" y="981"/>
      <point x="932" y="1290"/>
      <point x="690" y="1290" type="qcurve" smooth="yes"/>
      <point x="371" y="1290" type="line"/>
      <point x="371" y="801" type="line"/>
      <point x="700" y="801" type="line"/>
      <point x="700" y="662" type="line"/>
      <point x="371" y="662" type="line"/>
      <point x="371" y="164" type="line"/>
    </contour>
  </outline>
</glyph>
<glyph name="Ebreve" format="2">
  <advance width="1239"/>
  <unicode hex="0114"/>
  <anchor x="0" y="0" name="Anchor-11"/>
  <anchor x="0" y="0" name="Anchor-10"/>
  <anchor x="684" y="1876" name="Anchor-9"/>
  <anchor x="1161" y="0" name="Anchor-8"/>
  <anchor x="684" y="0" name="Anchor-7"/>
  <outline>
    <contour>
      <point x="803" y="1876" type="qcurve"/>
      <point x="905" y="1876" type="line"/>
      <point x="905" y="1779"/>
      <point x="778" y="1649"/>
      <point x="590" y="1649"/>
      <point x="463" y="1779"/>
      <point x="463" y="1876" type="qcurve"/>
      <point x="567" y="1876" type="line"/>
      <point x="567" y="1821"/>
      <point x="638" y="1737"/>
      <point x="684" y="1737" type="qcurve" smooth="yes"/>
      <point x="729" y="1737"/>
      <point x="797" y="1816"/>
    </contour>
    <contour>
      <point x="1161" y="164" type="line"/>
      <point x="1161" y="0" type="line"/>
      <point x="174" y="0" type="line"/>
      <point x="174" y="1454" type="line"/>
      <point x="1143" y="1454" type="line"/>
      <point x="1143" y="1290" type="line"/>
      <point x="358" y="1290" type="line"/>
      <point x="358" y="819" type="line"/>
      <point x="1040" y="819" type="line"/>
      <point x="1040" y="666" type="line"/>
      <point x="358" y="666" type="line"/>
      <point x="358" y="164" type="line"/>
    </contour>
  </outline>
</glyph>
<glyph name="Edot" format="2">
  <advance width="1239"/>
  <unicode hex="0116"/>
  <anchor x="0" y="0" name="Anchor-11"/>
  <anchor x="0" y="0" name="Anchor-10"/>
  <anchor x="684" y="1876" name="Anchor-9"/>
  <anchor x="1161" y="0" name="Anchor-8"/>
  <anchor x="684" y="0" name="Anchor-7"/>
  <outline>
    <contour>
      <point x="602" y="1659" type="line"/>
      <point x="602" y="1876" type="line"/>
      <point x="766" y="1876" type="line"/>
      <point x="766" y="1659" type="line"/>
    </contour>
    <contour>
      <point x="1161" y="164" type="line"/>
      <point x="1161" y="0" type="line"/>
      <point x="174" y="0" type="line"/>
      <point x="174" y="1454" type="line"/>
      <point x="1143" y="1454" type="line"/>
      <point x="1143" y="1290" type="line"/>
      <point x="358" y="1290" type="line"/>
      <point x="358" y="819" type="line"/>
      <point x="1040" y="819" type="line"/>
      <point x="1040" y="666" type="line"/>
      <point x="358" y="666" type="line"/>
      <point x="358" y="164" type="line"/>
    </contour>
  </outline>
</glyph>
<glyph name="Eogonek" format="2">
  <advance width="1239"/>
  <unicode hex="0118"/>
  <anchor x="0" y="0" name="Anchor-11"/>
  <anchor x="0" y="0" name="Anchor-10"/>
  <anchor x="684" y="1450" name="Anchor-9"/>
  <anchor x="1161" y="0" name="Anchor-8"/>
  <anchor x="684" y="0" name="Anchor-7"/>
  <outline>
    <contour>
      <point x="1161" y="0" type="line"/>
      <point x="1077" y="-64"/>
      <point x="1001" y="-157"/>
      <point x="1001" y="-195" type="qcurve" smooth="yes"/>
      <point x="1001" y="-234"/>
      <point x="1081" y="-267"/>
      <point x="1161" y="-272" type="qcurve"/>
      <point x="1120" y="-387" type="line"/>
      <point x="881" y="-371"/>
      <point x="881" y="-219" type="qcurve" smooth="yes"/>
      <point x="881" y="-105"/>
      <point x="1018" y="0" type="qcurve"/>
      <point x="174" y="0" type="line"/>
      <point x="174" y="1454" type="line"/>
      <point x="1143" y="1454" type="line"/>
      <point x="1143" y="1290" type="line"/>
      <point x="358" y="1290" type="line"/>
      <point x="358" y="819" type="line"/>
      <point x="1040" y="819" type="line"/>
      <point x="1040" y="666" type="line"/>
      <point x="358" y="666" type="line"/>
      <point x="358" y="164" type="line"/>
      <point x="1161" y="164" type="line"/>
    </contour>
  </outline>
</glyph>
<glyph name="Ecaron" format="2">
  <advance width="1239"/>
  <unicode hex="011A"/>
  <anchor x="0" y="0" name="Anchor-11"/>
  <anchor x="0" y="0" name="Anchor-10"/>
  <anchor x="684" y="1876" name="Anchor-9"/>
  <anchor x="1161" y="0" name="Anchor-8"/>
  <anchor x="684" y="0" name="Anchor-7"/>
  <outline>
    <contour>
      <point x="510" y="1876" type="line"/>
      <point x="684" y="1747" type="line"/>
      <point x="858" y="1876" type="line"/>
      <point x="956" y="1827" type="line"/>
      <point x="750" y="1642" type="line"/>
      <point x="618" y="1642" type="line"/>
      <point x="412" y="1827" type="line"/>
    </contour>
    <contour>
      <point x="1161" y="164" type="line"/>
      <point x="1161" y="0" type="line"/>
      <point x="174" y="0" type="line"/>
      <point x="174" y="1454" type="line"/>
      <point x="1143" y="1454" type="line"/>
      <point x="1143" y="1290" type="line"/>
      <point x="358" y="1290" type="line"/>
      <point x="358" y="819" type="line"/>
      <point x="1040" y="819" type="line"/>
      <point x="1040" y="666" type="line"/>
      <point x="358" y="666" type="line"/>
      <point x="358" y="164" type="line"/>
    </contour>
  </outline>
</glyph>
<glyph name="Gcircumflex" format="2">
  <advance width="1462"/>
  <unicode hex="011C"/>
  <anchor x="0" y="0" name="Anchor-11"/>
  <anchor x="0" y="0" name="Anchor-10"/>
  <anchor x="756" y="1876" name="Anchor-9"/>
  <anchor x="0" y="0" name="Anchor-8"/>
  <anchor x="768" y="0" name="Anchor-7"/>
  <outline>
    <contour>
      <point x="756" y="1772" type="line"/>
      <point x="582" y="1642" type="line"/>
      <point x="483" y="1692" type="line"/>
      <point x="690" y="1876" type="line"/>
      <point x="821" y="1876" type="line"/>
      <point x="1028" y="1692" type="line"/>
      <point x="930" y="1642" type="line"/>
    </contour>
    <contour>
      <point x="887" y="725" type="line"/>
      <point x="1356" y="725" type="line"/>
      <point x="1356" y="0" type="line"/>
      <point x="1200" y="0" type="line"/>
      <point x="1200" y="197" type="line"/>
      <point x="1011" y="-10"/>
      <point x="758" y="-10" type="qcurve" smooth="yes"/>
      <point x="618" y="-10"/>
      <point x="363" y="117"/>
      <point x="185" y="323"/>
      <point x="80" y="592"/>
      <point x="80" y="731" type="qcurve" smooth="yes"/>
      <point x="80" y="876"/>
      <point x="184" y="1144"/>
      <point x="361" y="1344"/>
      <point x="616" y="1464"/>
      <point x="758" y="1464" type="qcurve" smooth="yes"/>
      <point x="961" y="1464"/>
      <point x="1239" y="1295"/>
      <point x="1313" y="1147" type="qcurve"/>
      <point x="1171" y="1049" type="line"/>
      <point x="1108" y="1172"/>
      <point x="891" y="1298"/>
      <point x="754" y="1298" type="qcurve" smooth="yes"/>
      <point x="611" y="1298"/>
      <point x="384" y="1135"/>
      <point x="266" y="876"/>
      <point x="266" y="727" type="qcurve" smooth="yes"/>
      <point x="266" y="573"/>
      <point x="398" y="311"/>
      <point x="632" y="156"/>
      <point x="772" y="156" type="qcurve" smooth="yes"/>
      <point x="1011" y="156"/>
      <point x="1200" y="385" type="qcurve"/>
      <point x="1200" y="586" type="line"/>
      <point x="887" y="586" type="line"/>
    </contour>
  </outline>
</glyph>
<glyph name="Gbreve" format="2">
  <advance width="1462"/>
  <unicode hex="011E"/>
  <anchor x="0" y="0" name="Anchor-11"/>
  <anchor x="0" y="0" name="Anchor-10"/>
  <anchor x="756" y="1876" name="Anchor-9"/>
  <anchor x="0" y="0" name="Anchor-8"/>
  <anchor x="768" y="0" name="Anchor-7"/>
  <outline>
    <contour>
      <point x="662" y="1649"/>
      <point x="535" y="1779"/>
      <point x="535" y="1876" type="qcurve"/>
      <point x="639" y="1876" type="line"/>
      <point x="639" y="1821"/>
      <point x="710" y="1737"/>
      <point x="756" y="1737" type="qcurve" smooth="yes"/>
      <point x="800" y="1737"/>
      <point x="868" y="1816"/>
      <point x="874" y="1876" type="qcurve"/>
      <point x="977" y="1876" type="line"/>
      <point x="977" y="1779"/>
      <point x="850" y="1649"/>
    </contour>
    <contour>
      <point x="887" y="725" type="line"/>
      <point x="1356" y="725" type="line"/>
      <point x="1356" y="0" type="line"/>
      <point x="1200" y="0" type="line"/>
      <point x="1200" y="197" type="line"/>
      <point x="1011" y="-10"/>
      <point x="758" y="-10" type="qcurve" smooth="yes"/>
      <point x="618" y="-10"/>
      <point x="363" y="117"/>
      <point x="185" y="323"/>
      <point x="80" y="592"/>
      <point x="80" y="731" type="qcurve" smooth="yes"/>
      <point x="80" y="876"/>
      <point x="184" y="1144"/>
      <point x="361" y="1344"/>
      <point x="616" y="1464"/>
      <point x="758" y="1464" type="qcurve" smooth="yes"/>
      <point x="961" y="1464"/>
      <point x="1239" y="1295"/>
      <point x="1313" y="1147" type="qcurve"/>
      <point x="1171" y="1049" type="line"/>
      <point x="1108" y="1172"/>
      <point x="891" y="1298"/>
      <point x="754" y="1298" type="qcurve" smooth="yes"/>
      <point x="611" y="1298"/>
      <point x="384" y="1135"/>
      <point x="266" y="876"/>
      <point x="266" y="727" type="qcurve" smooth="yes"/>
      <point x="266" y="573"/>
      <point x="398" y="311"/>
      <point x="632" y="156"/>
      <point x="772" y="156" type="qcurve" smooth="yes"/>
      <point x="1011" y="156"/>
      <point x="1200" y="385" type="qcurve"/>
      <point x="1200" y="586" type="line"/>
      <point x="887" y="586" type="line"/>
    </contour>
  </outline>
</glyph>
<glyph name="Hcircumflex" format="2">
  <advance width="1517"/>
  <unicode hex="0124"/>
  <anchor x="0" y="0" name="Anchor-11"/>
  <anchor x="760" y="727" name="Anchor-10"/>
  <anchor x="764" y="1876" name="Anchor-9"/>
  <anchor x="0" y="0" name="Anchor-8"/>
  <anchor x="760" y="0" name="Anchor-7"/>
  <outline>
    <contour>
      <point x="492" y="1692" type="line"/>
      <point x="698" y="1876" type="line"/>
      <point x="829" y="1876" type="line"/>
      <point x="1036" y="1692" type="line"/>
      <point x="938" y="1642" type="line"/>
      <point x="764" y="1772" type="line"/>
      <point x="590" y="1642" type="line"/>
    </contour>
    <contour>
      <point x="1343" y="1454" type="line"/>
      <point x="1343" y="0" type="line"/>
      <point x="1159" y="0" type="line"/>
      <point x="1159" y="662" type="line"/>
      <point x="358" y="662" type="line"/>
      <point x="358" y="0" type="line"/>
      <point x="174" y="0" type="line"/>
      <point x="174" y="1454" type="line"/>
      <point x="358" y="1454" type="line"/>
      <point x="358" y="825" type="line"/>
      <point x="1159" y="825" type="line"/>
      <point x="1159" y="1454" type="line"/>
    </contour>
  </outline>
</glyph>
<glyph name="Hbar" format="2">
  <advance width="1538"/>
  <unicode hex="0126"/>
  <anchor x="0" y="0" name="Anchor-11"/>
  <anchor x="770" y="727" name="Anchor-10"/>
  <anchor x="774" y="1450" name="Anchor-9"/>
  <anchor x="0" y="0" name="Anchor-8"/>
  <anchor x="770" y="0" name="Anchor-7"/>
  <outline>
    <contour>
      <point x="1456" y="1219" type="line"/>
      <point x="1456" y="1083" type="line"/>
      <point x="1354" y="1083" type="line"/>
      <point x="1354" y="0" type="line"/>
      <point x="1169" y="0" type="line"/>
      <point x="1169" y="662" type="line"/>
      <point x="369" y="662" type="line"/>
      <point x="369" y="0" type="line"/>
      <point x="184" y="0" type="line"/>
      <point x="184" y="1083" type="line"/>
      <point x="82" y="1083" type="line"/>
      <point x="82" y="1219" type="line"/>
      <point x="184" y="1219" type="line"/>
      <point x="184" y="1454" type="line"/>
      <point x="369" y="1454" type="line"/>
      <point x="369" y="1219" type="line"/>
      <point x="1169" y="1219" type="line"/>
      <point x="1169" y="1454" type="line"/>
      <point x="1354" y="1454" type="line"/>
      <point x="1354" y="1219" type="line"/>
    </contour>
    <contour>
      <point x="1169" y="825" type="line"/>
      <point x="1169" y="1083" type="line"/>
      <point x="369" y="1083" type="line"/>
      <point x="369" y="825" type="line"/>
    </contour>
  </outline>
</glyph>
<glyph name="Itilde" format="2">
  <advance width="532"/>
  <unicode hex="0128"/>
  <anchor x="0" y="0" name="Anchor-11"/>
  <anchor x="0" y="0" name="Anchor-10"/>
  <anchor x="266" y="1876" name="Anchor-9"/>
  <anchor x="358" y="0" name="Anchor-8"/>
  <anchor x="266" y="0" name="Anchor-7"/>
  <outline>
    <contour>
      <point x="129" y="1751" type="qcurve" smooth="yes"/>
      <point x="98" y="1751"/>
      <point x="54" y="1724"/>
      <point x="36" y="1685"/>
      <point x="29" y="1660"/>
      <point x="29" y="1653" type="qcurve"/>
      <point x="-78" y="1653" type="line"/>
      <point x="-78" y="1671"/>
      <point x="-59" y="1732"/>
      <point x="-17" y="1809"/>
      <point x="69" y="1864"/>
      <point x="125" y="1864" type="qcurve" smooth="yes"/>
      <point x="174" y="1864"/>
      <point x="264" y="1820"/>
      <point x="348" y="1776"/>
      <point x="389" y="1776" type="qcurve" smooth="yes"/>
      <point x="418" y="1776"/>
      <point x="463" y="1796"/>
      <point x="486" y="1822"/>
      <point x="500" y="1853"/>
      <point x="504" y="1871"/>
      <point x="504" y="1876" type="qcurve"/>
      <point x="610" y="1876" type="line"/>
      <point x="610" y="1864"/>
      <point x="599" y="1820"/>
      <point x="568" y="1757"/>
      <point x="522" y="1703"/>
      <point x="442" y="1665"/>
      <point x="393" y="1665" type="qcurve" smooth="yes"/>
      <point x="341" y="1665"/>
      <point x="246" y="1708"/>
      <point x="165" y="1751"/>
    </contour>
    <contour>
      <point x="174" y="0" type="line"/>
      <point x="174" y="1454" type="line"/>
      <point x="358" y="1454" type="line"/>
      <point x="358" y="0" type="line"/>
    </contour>
  </outline>
</glyph>
<glyph name="itilde" format="2">
  <advance width="471"/>
  <unicode hex="0129"/>
  <anchor x="0" y="0" name="Anchor-11"/>
  <anchor x="0" y="0" name="Anchor-10"/>
  <anchor x="236" y="1495" name="Anchor-9"/>
  <anchor x="0" y="0" name="Anchor-8"/>
  <anchor x="0" y="0" name="Anchor-7"/>
  <outline>
    <contour>
      <point x="98" y="1370" type="qcurve" smooth="yes"/>
      <point x="67" y="1370"/>
      <point x="23" y="1343"/>
      <point x="5" y="1304"/>
      <point x="-2" y="1279"/>
      <point x="-2" y="1272" type="qcurve"/>
      <point x="-109" y="1272" type="line"/>
      <point x="-109" y="1290"/>
      <point x="-90" y="1351"/>
      <point x="-48" y="1428"/>
      <point x="38" y="1483"/>
      <point x="94" y="1483" type="qcurve" smooth="yes"/>
      <point x="143" y="1483"/>
      <point x="233" y="1439"/>
      <point x="317" y="1395"/>
      <point x="358" y="1395" type="qcurve" smooth="yes"/>
      <point x="387" y="1395"/>
      <point x="432" y="1415"/>
      <point x="455" y="1441"/>
      <point x="469" y="1472"/>
      <point x="473" y="1490"/>
      <point x="473" y="1495" type="qcurve"/>
      <point x="580" y="1495" type="line"/>
      <point x="580" y="1483"/>
      <point x="569" y="1439"/>
      <point x="537" y="1376"/>
      <point x="491" y="1322"/>
      <point x="411" y="1284"/>
      <point x="362" y="1284" type="qcurve" smooth="yes"/>
      <point x="310" y="1284"/>
      <point x="215" y="1327"/>
      <point x="134" y="1370"/>
    </contour>
    <contour>
      <point x="145" y="0" type="line"/>
      <point x="145" y="1069" type="line"/>
      <point x="326" y="1069" type="line"/>
      <point x="326" y="0" type="line"/>
    </contour>
  </outline>
</glyph>
<glyph name="Imacron" format="2">
  <advance width="532"/>
  <unicode hex="012A"/>
  <anchor x="0" y="0" name="Anchor-11"/>
  <anchor x="0" y="0" name="Anchor-10"/>
  <anchor x="268" y="1839" name="Anchor-9"/>
  <anchor x="358" y="0" name="Anchor-8"/>
  <anchor x="266" y="0" name="Anchor-7"/>
  <outline>
    <contour>
      <point x="-31" y="1720" type="line"/>
      <point x="-31" y="1839" type="line"/>
      <point x="567" y="1839" type="line"/>
      <point x="567" y="1720" type="line"/>
    </contour>
    <contour>
      <point x="174" y="0" type="line"/>
      <point x="174" y="1454" type="line"/>
      <point x="358" y="1454" type="line"/>
      <point x="358" y="0" type="line"/>
    </contour>
  </outline>
</glyph>
<glyph name="imacron" format="2">
  <advance width="471"/>
  <unicode hex="012B"/>
  <anchor x="0" y="0" name="Anchor-11"/>
  <anchor x="0" y="0" name="Anchor-10"/>
  <anchor x="238" y="1458" name="Anchor-9"/>
  <anchor x="0" y="0" name="Anchor-8"/>
  <anchor x="0" y="0" name="Anchor-7"/>
  <outline>
    <contour>
      <point x="-61" y="1339" type="line"/>
      <point x="-61" y="1458" type="line"/>
      <point x="537" y="1458" type="line"/>
      <point x="537" y="1339" type="line"/>
    </contour>
    <contour>
      <point x="145" y="0" type="line"/>
      <point x="145" y="1069" type="line"/>
      <point x="326" y="1069" type="line"/>
      <point x="326" y="0" type="line"/>
    </contour>
  </outline>
</glyph>
<glyph name="Ibreve" format="2">
  <advance width="532"/>
  <unicode hex="012C"/>
  <anchor x="0" y="0" name="Anchor-11"/>
  <anchor x="0" y="0" name="Anchor-10"/>
  <anchor x="266" y="1876" name="Anchor-9"/>
  <anchor x="358" y="0" name="Anchor-8"/>
  <anchor x="266" y="0" name="Anchor-7"/>
  <outline>
    <contour>
      <point x="385" y="1876" type="qcurve"/>
      <point x="487" y="1876" type="line"/>
      <point x="487" y="1779"/>
      <point x="360" y="1649"/>
      <point x="172" y="1649"/>
      <point x="45" y="1779"/>
      <point x="45" y="1876" type="qcurve"/>
      <point x="150" y="1876" type="line"/>
      <point x="150" y="1821"/>
      <point x="220" y="1737"/>
      <point x="266" y="1737" type="qcurve" smooth="yes"/>
      <point x="311" y="1737"/>
      <point x="379" y="1816"/>
    </contour>
    <contour>
      <point x="174" y="0" type="line"/>
      <point x="174" y="1454" type="line"/>
      <point x="358" y="1454" type="line"/>
      <point x="358" y="0" type="line"/>
    </contour>
  </outline>
</glyph>
<glyph name="ibreve" format="2">
  <advance width="471"/>
  <unicode hex="012D"/>
  <anchor x="0" y="0" name="Anchor-11"/>
  <anchor x="0" y="0" name="Anchor-10"/>
  <anchor x="236" y="1495" name="Anchor-9"/>
  <anchor x="0" y="0" name="Anchor-8"/>
  <anchor x="0" y="0" name="Anchor-7"/>
  <outline>
    <contour>
      <point x="354" y="1495" type="qcurve"/>
      <point x="457" y="1495" type="line"/>
      <point x="457" y="1398"/>
      <point x="330" y="1268"/>
      <point x="142" y="1268"/>
      <point x="14" y="1398"/>
      <point x="14" y="1495" type="qcurve"/>
      <point x="119" y="1495" type="line"/>
      <point x="119" y="1440"/>
      <point x="190" y="1356"/>
      <point x="236" y="1356" type="qcurve" smooth="yes"/>
      <point x="280" y="1356"/>
      <point x="348" y="1435"/>
    </contour>
    <contour>
      <point x="145" y="0" type="line"/>
      <point x="145" y="1069" type="line"/>
      <point x="326" y="1069" type="line"/>
      <point x="326" y="0" type="line"/>
    </contour>
  </outline>
</glyph>
<glyph name="Iogonek" format="2">
  <advance width="532"/>
  <unicode hex="012E"/>
  <anchor x="0" y="0" name="Anchor-11"/>
  <anchor x="0" y="0" name="Anchor-10"/>
  <anchor x="266" y="1450" name="Anchor-9"/>
  <anchor x="358" y="0" name="Anchor-8"/>
  <anchor x="266" y="0" name="Anchor-7"/>
  <outline>
    <contour>
      <point x="358" y="0" type="line"/>
      <point x="274" y="-64"/>
      <point x="199" y="-156"/>
      <point x="199" y="-234"/>
      <point x="278" y="-267"/>
      <point x="358" y="-272" type="qcurve"/>
      <point x="317" y="-387" type="line"/>
      <point x="78" y="-371"/>
      <point x="78" y="-219" type="qcurve" smooth="yes"/>
      <point x="78" y="-105"/>
      <point x="215" y="0" type="qcurve"/>
      <point x="174" y="0" type="line"/>
      <point x="174" y="1454" type="line"/>
      <point x="358" y="1454" type="line"/>
    </contour>
  </outline>
</glyph>
<glyph name="iogonek" format="2">
  <advance width="471"/>
  <unicode hex="012F"/>
  <anchor x="0" y="0" name="Anchor-11"/>
  <anchor x="0" y="0" name="Anchor-10"/>
  <anchor x="0" y="0" name="Anchor-9"/>
  <anchor x="326" y="0" name="Anchor-8"/>
  <anchor x="236" y="0" name="Anchor-7"/>
  <outline>
    <contour>
      <point x="145" y="1495" type="line"/>
      <point x="326" y="1495" type="line"/>
      <point x="326" y="1270" type="line"/>
      <point x="145" y="1270" type="line"/>
    </contour>
    <contour>
      <point x="145" y="0" type="line"/>
      <point x="145" y="1069" type="line"/>
      <point x="326" y="1069" type="line"/>
      <point x="326" y="0" type="line"/>
      <point x="242" y="-64"/>
      <point x="166" y="-157"/>
      <point x="166" y="-195" type="qcurve" smooth="yes"/>
      <point x="166" y="-234"/>
      <point x="246" y="-267"/>
      <point x="326" y="-272" type="qcurve"/>
      <point x="285" y="-387" type="line"/>
      <point x="45" y="-370"/>
      <point x="45" y="-219" type="qcurve" smooth="yes"/>
      <point x="45" y="-105"/>
      <point x="182" y="0" type="qcurve"/>
    </contour>
  </outline>
</glyph>
<glyph name="Idotaccent" format="2">
  <advance width="532"/>
  <unicode hex="0130"/>
  <anchor x="0" y="0" name="Anchor-11"/>
  <anchor x="0" y="0" name="Anchor-10"/>
  <anchor x="266" y="1876" name="Anchor-9"/>
  <anchor x="358" y="0" name="Anchor-8"/>
  <anchor x="266" y="0" name="Anchor-7"/>
  <outline>
    <contour>
      <point x="184" y="1659" type="line"/>
      <point x="184" y="1876" type="line"/>
      <point x="348" y="1876" type="line"/>
      <point x="348" y="1659" type="line"/>
    </contour>
    <contour>
      <point x="174" y="0" type="line"/>
      <point x="174" y="1454" type="line"/>
      <point x="358" y="1454" type="line"/>
      <point x="358" y="0" type="line"/>
    </contour>
  </outline>
</glyph>
<glyph name="jcircumflex" format="2">
  <advance width="471"/>
  <unicode hex="0135"/>
  <anchor x="0" y="0" name="Anchor-11"/>
  <anchor x="0" y="0" name="Anchor-10"/>
  <anchor x="236" y="1495" name="Anchor-9"/>
  <anchor x="0" y="0" name="Anchor-8"/>
  <anchor x="0" y="0" name="Anchor-7"/>
  <outline>
    <contour>
      <point x="-37" y="1311" type="line"/>
      <point x="170" y="1495" type="line"/>
      <point x="301" y="1495" type="line"/>
      <point x="508" y="1311" type="line"/>
      <point x="410" y="1262" type="line"/>
      <point x="236" y="1391" type="line"/>
      <point x="61" y="1262" type="line"/>
    </contour>
    <contour>
      <point x="-252" y="-295" type="qcurve"/>
      <point x="-168" y="-174" type="line"/>
      <point x="-116" y="-221"/>
      <point x="-27" y="-221" type="qcurve" smooth="yes"/>
      <point x="41" y="-221"/>
      <point x="145" y="-120"/>
      <point x="145" y="-47" type="qcurve" smooth="yes"/>
      <point x="145" y="1069" type="line"/>
      <point x="326" y="1069" type="line"/>
      <point x="326" y="-35" type="line" smooth="yes"/>
      <point x="326" y="-184"/>
      <point x="128" y="-381"/>
      <point x="-6" y="-381" type="qcurve" smooth="yes"/>
      <point x="-156" y="-381"/>
    </contour>
  </outline>
</glyph>
<glyph name="kcedilla" format="2">
  <advance width="1103"/>
  <unicode hex="0137"/>
  <anchor x="0" y="0" name="Anchor-11"/>
  <anchor x="0" y="0" name="Anchor-10"/>
  <anchor x="0" y="0" name="Anchor-9"/>
  <anchor x="0" y="0" name="Anchor-8"/>
  <anchor x="573" y="0" name="Anchor-7"/>
  <outline>
    <contour>
      <point x="899" y="0" type="line"/>
      <point x="528" y="520" type="line"/>
      <point x="326" y="330" type="line"/>
      <point x="326" y="0" type="line"/>
      <point x="145" y="0" type="line"/>
      <point x="145" y="1495" type="line"/>
      <point x="326" y="1495" type="line"/>
      <point x="326" y="518" type="line"/>
      <point x="879" y="1067" type="line"/>
      <point x="1073" y="1067" type="line"/>
      <point x="647" y="625" type="line"/>
      <point x="1094" y="0" type="line"/>
    </contour>
    <contour>
      <point x="498" y="-436" type="line"/>
      <point x="539" y="-270" type="line"/>
      <point x="487" y="-270" type="line"/>
      <point x="487" y="-98" type="line"/>
      <point x="647" y="-98" type="line"/>
      <point x="647" y="-270" type="line"/>
      <point x="586" y="-436" type="line"/>
    </contour>
  </outline>
</glyph>
<glyph name="kgreenlandic" format="2">
  <advance width="1103"/>
  <unicode hex="0138"/>
  <outline>
    <contour>
      <point x="899" y="0" type="line"/>
      <point x="530" y="522" type="line"/>
      <point x="326" y="330" type="line"/>
      <point x="326" y="0" type="line"/>
      <point x="145" y="0" type="line"/>
      <point x="145" y="1069" type="line"/>
      <point x="326" y="1069" type="line"/>
      <point x="326" y="512" type="line"/>
      <point x="874" y="1067" type="line"/>
      <point x="1073" y="1067" type="line"/>
      <point x="647" y="625" type="line"/>
      <point x="1094" y="0" type="line"/>
    </contour>
  </outline>
</glyph>
<glyph name="Lacute" format="2">
  <advance width="1196"/>
  <unicode hex="0139"/>
  <anchor x="788" y="1077" name="Anchor-11"/>
  <anchor x="598" y="727" name="Anchor-10"/>
  <anchor x="354" y="1876" name="Anchor-9"/>
  <anchor x="0" y="0" name="Anchor-8"/>
  <anchor x="686" y="0" name="Anchor-7"/>
  <outline>
    <contour>
      <point x="324" y="1628" type="line"/>
      <point x="205" y="1669" type="line"/>
      <point x="324" y="1876" type="line"/>
      <point x="504" y="1876" type="line"/>
    </contour>
    <contour>
      <point x="174" y="0" type="line"/>
      <point x="174" y="1454" type="line"/>
      <point x="358" y="1454" type="line"/>
      <point x="358" y="164" type="line"/>
      <point x="1169" y="164" type="line"/>
      <point x="1169" y="0" type="line"/>
    </contour>
  </outline>
</glyph>
<glyph name="lacute" format="2">
  <advance width="585"/>
  <unicode hex="013A"/>
  <anchor x="444" y="1069" name="Anchor-11"/>
  <anchor x="293" y="535" name="Anchor-10"/>
  <anchor x="334" y="1880" name="Anchor-9"/>
  <anchor x="0" y="0" name="Anchor-8"/>
  <anchor x="367" y="0" name="Anchor-7"/>
  <outline>
    <contour>
      <point x="303" y="1632" type="line"/>
      <point x="184" y="1673" type="line"/>
      <point x="303" y="1880" type="line"/>
      <point x="483" y="1880" type="line"/>
    </contour>
    <contour>
      <point x="150" y="1495" type="line"/>
      <point x="330" y="1495" type="line"/>
      <point x="330" y="276" type="line" smooth="yes"/>
      <point x="330" y="233"/>
      <point x="342" y="179"/>
      <point x="368" y="154"/>
      <point x="393" y="147"/>
      <point x="414" y="147" type="qcurve" smooth="yes"/>
      <point x="488" y="147"/>
      <point x="561" y="176" type="qcurve"/>
      <point x="590" y="29" type="line"/>
      <point x="546" y="10"/>
      <point x="423" y="-14"/>
      <point x="375" y="-14" type="qcurve" smooth="yes"/>
      <point x="270" y="-14"/>
      <point x="150" y="106"/>
      <point x="150" y="211" type="qcurve" smooth="yes"/>
    </contour>
  </outline>
</glyph>
<glyph name="Lslash" format="2">
  <advance width="1210"/>
  <unicode hex="0141"/>
  <anchor x="803" y="1077" name="Anchor-11"/>
  <anchor x="612" y="727" name="Anchor-10"/>
  <anchor x="274" y="1450" name="Anchor-9"/>
  <anchor x="0" y="0" name="Anchor-8"/>
  <anchor x="700" y="0" name="Anchor-7"/>
  <outline>
    <contour>
      <point x="373" y="164" type="line"/>
      <point x="1184" y="164" type="line"/>
      <point x="1184" y="0" type="line"/>
      <point x="188" y="0" type="line"/>
      <point x="188" y="565" type="line"/>
      <point x="74" y="477" type="line"/>
      <point x="20" y="580" type="line"/>
      <point x="188" y="709" type="line"/>
      <point x="188" y="1454" type="line"/>
      <point x="373" y="1454" type="line"/>
      <point x="373" y="848" type="line"/>
      <point x="664" y="1071" type="line"/>
      <point x="715" y="971" type="line"/>
      <point x="373" y="707" type="line"/>
    </contour>
  </outline>
</glyph>
<glyph name="lslash" format="2">
  <advance width="630"/>
  <unicode hex="0142"/>
  <anchor x="487" y="1069" name="Anchor-11"/>
  <anchor x="336" y="535" name="Anchor-10"/>
  <anchor x="283" y="1454" name="Anchor-9"/>
  <anchor x="0" y="0" name="Anchor-8"/>
  <anchor x="410" y="0" name="Anchor-7"/>
  <outline>
    <contour>
      <point x="604" y="176" type="qcurve"/>
      <point x="633" y="29" type="line"/>
      <point x="589" y="10"/>
      <point x="466" y="-14"/>
      <point x="418" y="-14" type="qcurve" smooth="yes"/>
      <point x="313" y="-14"/>
      <point x="193" y="106"/>
      <point x="193" y="211" type="qcurve" smooth="yes"/>
      <point x="193" y="668" type="line"/>
      <point x="70" y="580" type="line"/>
      <point x="16" y="680" type="line"/>
      <point x="193" y="807" type="line"/>
      <point x="193" y="1495" type="line"/>
      <point x="373" y="1495" type="line"/>
      <point x="373" y="938" type="line"/>
      <point x="553" y="1069" type="line"/>
      <point x="608" y="969" type="line"/>
      <point x="373" y="799" type="line"/>
      <point x="373" y="276" type="line" smooth="yes"/>
      <point x="373" y="233"/>
      <point x="385" y="179"/>
      <point x="411" y="154"/>
      <point x="436" y="147"/>
      <point x="457" y="147" type="qcurve" smooth="yes"/>
      <point x="532" y="147"/>
    </contour>
  </outline>
</glyph>
<glyph name="Ncedilla" format="2">
  <advance width="1576"/>
  <unicode hex="0145"/>
  <anchor x="0" y="0" name="Anchor-11"/>
  <anchor x="0" y="0" name="Anchor-10"/>
  <anchor x="793" y="1450" name="Anchor-9"/>
  <anchor x="0" y="0" name="Anchor-8"/>
  <anchor x="793" y="0" name="Anchor-7"/>
  <outline>
    <contour>
      <point x="358" y="1114" type="line"/>
      <point x="358" y="0" type="line"/>
      <point x="174" y="0" type="line"/>
      <point x="174" y="1454" type="line"/>
      <point x="330" y="1454" type="line"/>
      <point x="1219" y="317" type="line"/>
      <point x="1219" y="1452" type="line"/>
      <point x="1403" y="1452" type="line"/>
      <point x="1403" y="0" type="line"/>
      <point x="1235" y="0" type="line"/>
    </contour>
    <contour>
      <point x="717" y="-436" type="line"/>
      <point x="758" y="-270" type="line"/>
      <point x="707" y="-270" type="line"/>
      <point x="707" y="-98" type="line"/>
      <point x="866" y="-98" type="line"/>
      <point x="866" y="-270" type="line"/>
      <point x="805" y="-436" type="line"/>
    </contour>
  </outline>
</glyph>
<glyph name="Ncaron" format="2">
  <advance width="1576"/>
  <unicode hex="0147"/>
  <anchor x="0" y="0" name="Anchor-11"/>
  <anchor x="0" y="0" name="Anchor-10"/>
  <anchor x="793" y="1876" name="Anchor-9"/>
  <anchor x="0" y="0" name="Anchor-8"/>
  <anchor x="793" y="0" name="Anchor-7"/>
  <outline>
    <contour>
      <point x="618" y="1876" type="line"/>
      <point x="793" y="1747" type="line"/>
      <point x="967" y="1876" type="line"/>
      <point x="1065" y="1827" type="line"/>
      <point x="858" y="1642" type="line"/>
      <point x="727" y="1642" type="line"/>
      <point x="520" y="1827" type="line"/>
    </contour>
    <contour>
      <point x="358" y="1114" type="line"/>
      <point x="358" y="0" type="line"/>
      <point x="174" y="0" type="line"/>
      <point x="174" y="1454" type="line"/>
      <point x="330" y="1454" type="line"/>
      <point x="1219" y="317" type="line"/>
      <point x="1219" y="1452" type="line"/>
      <point x="1403" y="1452" type="line"/>
      <point x="1403" y="0" type="line"/>
      <point x="1235" y="0" type="line"/>
    </contour>
  </outline>
</glyph>
<glyph name="Eng" format="2">
  <advance width="1560"/>
  <unicode hex="014A"/>
  <outline>
    <contour>
      <point x="358" y="1106" type="line"/>
      <point x="358" y="0" type="line"/>
      <point x="174" y="0" type="line"/>
      <point x="174" y="1454" type="line"/>
      <point x="315" y="1454" type="line"/>
      <point x="1202" y="330" type="line"/>
      <point x="1202" y="1452" type="line"/>
      <point x="1386" y="1452" type="line"/>
      <point x="1386" y="-41" type="line" smooth="yes"/>
      <point x="1386" y="-187"/>
      <point x="1186" y="-381"/>
      <point x="1053" y="-381" type="qcurve" smooth="yes"/>
      <point x="905" y="-381"/>
      <point x="809" y="-295" type="qcurve"/>
      <point x="893" y="-174" type="line"/>
      <point x="943" y="-221"/>
      <point x="1032" y="-221" type="qcurve" smooth="yes"/>
      <point x="1100" y="-221"/>
      <point x="1206" y="-120"/>
      <point x="1206" y="-47" type="qcurve" smooth="yes"/>
      <point x="1206" y="31" type="line"/>
    </contour>
  </outline>
</glyph>
<glyph name="eng" format="2">
  <advance width="1208"/>
  <unicode hex="014B"/>
  <outline>
    <contour>
      <point x="496" y="-295" type="qcurve"/>
      <point x="580" y="-174" type="line"/>
      <point x="632" y="-221"/>
      <point x="721" y="-221" type="qcurve" smooth="yes"/>
      <point x="789" y="-221"/>
      <point x="893" y="-120"/>
      <point x="893" y="-47" type="qcurve" smooth="yes"/>
      <point x="893" y="598" type="line" smooth="yes"/>
      <point x="893" y="767"/>
      <point x="789" y="926"/>
      <point x="682" y="926" type="qcurve" smooth="yes"/>
      <point x="570" y="926"/>
      <point x="362" y="765"/>
      <point x="326" y="645" type="qcurve"/>
      <point x="326" y="0" type="line"/>
      <point x="145" y="0" type="line"/>
      <point x="145" y="1069" type="line"/>
      <point x="309" y="1069" type="line"/>
      <point x="309" y="840" type="line"/>
      <point x="372" y="953"/>
      <point x="613" y="1087"/>
      <point x="754" y="1087" type="qcurve" smooth="yes"/>
      <point x="844" y="1087"/>
      <point x="972" y="1021"/>
      <point x="1042" y="896"/>
      <point x="1073" y="741"/>
      <point x="1073" y="639" type="qcurve" smooth="yes"/>
      <point x="1073" y="-35" type="line" smooth="yes"/>
      <point x="1073" y="-184"/>
      <point x="875" y="-381"/>
      <point x="741" y="-381" type="qcurve" smooth="yes"/>
      <point x="592" y="-381"/>
    </contour>
  </outline>
</glyph>
<glyph name="obreve" format="2">
  <advance width="1226"/>
  <unicode hex="014F"/>
  <anchor x="899" y="938" name="Anchor-11"/>
  <anchor x="614" y="535" name="Anchor-10"/>
  <anchor x="612" y="1495" name="Anchor-9"/>
  <anchor x="762" y="0" name="Anchor-8"/>
  <anchor x="612" y="0" name="Anchor-7"/>
  <outline>
    <contour>
      <point x="731" y="1495" type="qcurve"/>
      <point x="834" y="1495" type="line"/>
      <point x="834" y="1398"/>
      <point x="706" y="1268"/>
      <point x="518" y="1268"/>
      <point x="391" y="1398"/>
      <point x="391" y="1495" type="qcurve"/>
      <point x="496" y="1495" type="line"/>
      <point x="496" y="1440"/>
      <point x="566" y="1356"/>
      <point x="612" y="1356" type="qcurve" smooth="yes"/>
      <point x="657" y="1356"/>
      <point x="725" y="1435"/>
    </contour>
    <contour>
      <point x="74" y="681"/>
      <point x="209" y="934"/>
      <point x="458" y="1087"/>
      <point x="612" y="1087" type="qcurve" smooth="yes"/>
      <point x="767" y="1087"/>
      <point x="1017" y="934"/>
      <point x="1153" y="681"/>
      <point x="1153" y="532" type="qcurve" smooth="yes"/>
      <point x="1153" y="421"/>
      <point x="1074" y="220"/>
      <point x="934" y="69"/>
      <point x="730" y="-20"/>
      <point x="612" y="-20" type="qcurve" smooth="yes"/>
      <point x="455" y="-20"/>
      <point x="207" y="132"/>
      <point x="74" y="383"/>
    </contour>
    <contour>
      <point x="760" y="135"/>
      <point x="969" y="368"/>
      <point x="969" y="535" type="qcurve" smooth="yes"/>
      <point x="969" y="700"/>
      <point x="760" y="932"/>
      <point x="612" y="932" type="qcurve" smooth="yes"/>
      <point x="466" y="932"/>
      <point x="258" y="697"/>
      <point x="258" y="363"/>
      <point x="464" y="135"/>
    </contour>
  </outline>
</glyph>
<glyph name="OE" format="2">
  <advance width="2316"/>
  <unicode hex="0152"/>
  <outline>
    <contour>
      <point x="2241" y="164" type="line"/>
      <point x="2241" y="0" type="line"/>
      <point x="1270" y="0" type="line"/>
      <point x="1270" y="322" type="line"/>
      <point x="1198" y="176"/>
      <point x="928" y="-10"/>
      <point x="766" y="-10" type="qcurve" smooth="yes"/>
      <point x="618" y="-10"/>
      <point x="357" y="116"/>
      <point x="181" y="322"/>
      <point x="80" y="587"/>
      <point x="80" y="727" type="qcurve" smooth="yes"/>
      <point x="80" y="919"/>
      <point x="258" y="1257"/>
      <point x="577" y="1464"/>
      <point x="768" y="1464" type="qcurve" smooth="yes"/>
      <point x="933" y="1464"/>
      <point x="1199" y="1278"/>
      <point x="1270" y="1133" type="qcurve"/>
      <point x="1270" y="1454" type="line"/>
      <point x="2222" y="1454" type="line"/>
      <point x="2222" y="1290" type="line"/>
      <point x="1454" y="1290" type="line"/>
      <point x="1454" y="823" type="line"/>
      <point x="2111" y="823" type="line"/>
      <point x="2111" y="659" type="line"/>
      <point x="1454" y="659" type="line"/>
      <point x="1454" y="164" type="line"/>
    </contour>
    <contour>
      <point x="1264" y="729" type="qcurve" smooth="yes"/>
      <point x="1264" y="877"/>
      <point x="1140" y="1136"/>
      <point x="909" y="1298"/>
      <point x="766" y="1298" type="qcurve" smooth="yes"/>
      <point x="654" y="1298"/>
      <point x="462" y="1199"/>
      <point x="337" y="1038"/>
      <point x="266" y="834"/>
      <point x="266" y="727" type="qcurve" smooth="yes"/>
      <point x="266" y="616"/>
      <point x="339" y="409"/>
      <point x="467" y="251"/>
      <point x="656" y="156"/>
      <point x="766" y="156" type="qcurve" smooth="yes"/>
      <point x="878" y="156"/>
      <point x="1069" y="255"/>
      <point x="1194" y="417"/>
      <point x="1264" y="621"/>
    </contour>
  </outline>
</glyph>
<glyph name="oe" format="2">
  <advance width="2105"/>
  <unicode hex="0153"/>
  <outline>
    <contour>
      <point x="74" y="530" type="qcurve" smooth="yes"/>
      <point x="74" y="685"/>
      <point x="215" y="941"/>
      <point x="462" y="1087"/>
      <point x="762" y="1087"/>
      <point x="999" y="921"/>
      <point x="1059" y="776" type="qcurve"/>
      <point x="1122" y="926"/>
      <point x="1355" y="1087"/>
      <point x="1511" y="1087" type="qcurve" smooth="yes"/>
      <point x="1740" y="1087"/>
      <point x="2034" y="784"/>
      <point x="2048" y="535" type="qcurve" smooth="yes"/>
      <point x="2048" y="485"/>
      <point x="2046" y="473" type="qcurve"/>
      <point x="1159" y="473" type="line"/>
      <point x="1171" y="320"/>
      <point x="1387" y="113"/>
      <point x="1534" y="113" type="qcurve" smooth="yes"/>
      <point x="1637" y="113"/>
      <point x="1810" y="214"/>
      <point x="1841" y="293" type="qcurve"/>
      <point x="1993" y="250" type="line"/>
      <point x="1938" y="129"/>
      <point x="1680" y="-20"/>
      <point x="1526" y="-20" type="qcurve" smooth="yes"/>
      <point x="1382" y="-20"/>
      <point x="1137" y="143"/>
      <point x="1061" y="285" type="qcurve"/>
      <point x="985" y="139"/>
      <point x="753" y="-20"/>
      <point x="610" y="-20" type="qcurve" smooth="yes"/>
      <point x="460" y="-20"/>
      <point x="214" y="124"/>
      <point x="74" y="377"/>
    </contour>
    <contour>
      <point x="1874" y="590" type="line"/>
      <point x="1867" y="694"/>
      <point x="1764" y="861"/>
      <point x="1601" y="952"/>
      <point x="1507" y="952" type="qcurve" smooth="yes"/>
      <point x="1362" y="952"/>
      <point x="1164" y="748"/>
      <point x="1155" y="590" type="qcurve"/>
    </contour>
    <contour>
      <point x="969" y="699"/>
      <point x="763" y="932"/>
      <point x="465" y="932"/>
      <point x="258" y="697"/>
      <point x="258" y="528" type="qcurve" smooth="yes"/>
      <point x="258" y="361"/>
      <point x="462" y="135"/>
      <point x="612" y="135" type="qcurve" smooth="yes"/>
      <point x="763" y="135"/>
      <point x="969" y="365"/>
    </contour>
  </outline>
</glyph>
<glyph name="racute" format="2">
  <advance width="743"/>
  <unicode hex="0155"/>
  <anchor x="0" y="0" name="Anchor-11"/>
  <anchor x="0" y="0" name="Anchor-10"/>
  <anchor x="526" y="1495" name="Anchor-9"/>
  <anchor x="0" y="0" name="Anchor-8"/>
  <anchor x="229" y="0" name="Anchor-7"/>
  <outline>
    <contour>
      <point x="496" y="1247" type="line"/>
      <point x="377" y="1288" type="line"/>
      <point x="496" y="1495" type="line"/>
      <point x="676" y="1495" type="line"/>
    </contour>
    <contour>
      <point x="711" y="911" type="line"/>
      <point x="575" y="908"/>
      <point x="368" y="775"/>
      <point x="326" y="659" type="qcurve"/>
      <point x="326" y="0" type="line"/>
      <point x="145" y="0" type="line"/>
      <point x="145" y="1069" type="line"/>
      <point x="313" y="1069" type="line"/>
      <point x="313" y="821" type="line"/>
      <point x="369" y="932"/>
      <point x="550" y="1070"/>
      <point x="651" y="1077" type="qcurve" smooth="yes"/>
      <point x="697" y="1077"/>
      <point x="711" y="1075" type="qcurve"/>
    </contour>
  </outline>
</glyph>
<glyph name="Rcedilla" format="2">
  <advance width="1345"/>
  <unicode hex="0156"/>
  <anchor x="0" y="0" name="Anchor-11"/>
  <anchor x="0" y="0" name="Anchor-10"/>
  <anchor x="631" y="1454" name="Anchor-9"/>
  <anchor x="0" y="0" name="Anchor-8"/>
  <anchor x="680" y="0" name="Anchor-7"/>
  <outline>
    <contour>
      <point x="174" y="0" type="line"/>
      <point x="174" y="1454" type="line"/>
      <point x="797" y="1454" type="line" smooth="yes"/>
      <point x="890" y="1454"/>
      <point x="1057" y="1373"/>
      <point x="1170" y="1242"/>
      <point x="1237" y="1075"/>
      <point x="1237" y="989" type="qcurve" smooth="yes"/>
      <point x="1237" y="835"/>
      <point x="1068" y="592"/>
      <point x="932" y="557" type="qcurve"/>
      <point x="1284" y="0" type="line"/>
      <point x="1075" y="0" type="line"/>
      <point x="743" y="522" type="line"/>
      <point x="358" y="522" type="line"/>
      <point x="358" y="0" type="line"/>
    </contour>
    <contour>
      <point x="358" y="686" type="line"/>
      <point x="799" y="686" type="line" smooth="yes"/>
      <point x="910" y="686"/>
      <point x="1051" y="865"/>
      <point x="1051" y="989" type="qcurve" smooth="yes"/>
      <point x="1051" y="1111"/>
      <point x="892" y="1290"/>
      <point x="786" y="1290" type="qcurve" smooth="yes"/>
      <point x="358" y="1290" type="line"/>
    </contour>
    <contour>
      <point x="604" y="-436" type="line"/>
      <point x="645" y="-270" type="line"/>
      <point x="594" y="-270" type="line"/>
      <point x="594" y="-98" type="line"/>
      <point x="754" y="-98" type="line"/>
      <point x="754" y="-270" type="line"/>
      <point x="692" y="-436" type="line"/>
    </contour>
  </outline>
</glyph>
<glyph name="rcaron" format="2">
  <advance width="743"/>
  <unicode hex="0159"/>
  <anchor x="0" y="0" name="Anchor-11"/>
  <anchor x="0" y="0" name="Anchor-10"/>
  <anchor x="432" y="1495" name="Anchor-9"/>
  <anchor x="0" y="0" name="Anchor-8"/>
  <anchor x="229" y="0" name="Anchor-7"/>
  <outline>
    <contour>
      <point x="258" y="1495" type="line"/>
      <point x="432" y="1366" type="line"/>
      <point x="606" y="1495" type="line"/>
      <point x="705" y="1446" type="line"/>
      <point x="498" y="1262" type="line"/>
      <point x="367" y="1262" type="line"/>
      <point x="160" y="1446" type="line"/>
    </contour>
    <contour>
      <point x="711" y="911" type="line"/>
      <point x="575" y="908"/>
      <point x="368" y="775"/>
      <point x="326" y="659" type="qcurve"/>
      <point x="326" y="0" type="line"/>
      <point x="145" y="0" type="line"/>
      <point x="145" y="1069" type="line"/>
      <point x="313" y="1069" type="line"/>
      <point x="313" y="821" type="line"/>
      <point x="369" y="932"/>
      <point x="550" y="1070"/>
      <point x="651" y="1077" type="qcurve" smooth="yes"/>
      <point x="697" y="1077"/>
      <point x="711" y="1075" type="qcurve"/>
    </contour>
  </outline>
</glyph>
<glyph name="Scedilla" format="2">
  <advance width="1247"/>
  <unicode hex="015E"/>
  <anchor x="0" y="0" name="Anchor-11"/>
  <anchor x="0" y="0" name="Anchor-10"/>
  <anchor x="643" y="1477" name="Anchor-9"/>
  <anchor x="0" y="0" name="Anchor-8"/>
  <anchor x="649" y="0" name="Anchor-7"/>
  <outline>
    <contour>
      <point x="1180" y="391" type="qcurve" smooth="yes"/>
      <point x="1180" y="210"/>
      <point x="940" y="8"/>
      <point x="739" y="-10" type="qcurve"/>
      <point x="842" y="-93"/>
      <point x="842" y="-199" type="qcurve" smooth="yes"/>
      <point x="842" y="-284"/>
      <point x="727" y="-381"/>
      <point x="625" y="-381" type="qcurve" smooth="yes"/>
      <point x="501" y="-381"/>
      <point x="387" y="-324" type="qcurve"/>
      <point x="436" y="-223" type="line"/>
      <point x="524" y="-268"/>
      <point x="594" y="-268" type="qcurve" smooth="yes"/>
      <point x="658" y="-268"/>
      <point x="727" y="-217"/>
      <point x="727" y="-168" type="qcurve" smooth="yes"/>
      <point x="727" y="-84"/>
      <point x="612" y="-14" type="qcurve"/>
      <point x="295" y="-2"/>
      <point x="59" y="190" type="qcurve"/>
      <point x="147" y="346" type="line"/>
      <point x="220" y="269"/>
      <point x="500" y="152"/>
      <point x="655" y="152" type="qcurve" smooth="yes"/>
      <point x="812" y="152"/>
      <point x="983" y="265"/>
      <point x="983" y="373" type="qcurve" smooth="yes"/>
      <point x="983" y="408"/>
      <point x="963" y="466"/>
      <point x="932" y="511"/>
      <point x="872" y="551"/>
      <point x="812" y="580"/>
      <point x="715" y="612"/>
      <point x="629" y="635"/>
      <point x="563" y="651" type="qcurve" smooth="yes"/>
      <point x="468" y="674"/>
      <point x="336" y="719"/>
      <point x="221" y="782"/>
      <point x="153" y="859"/>
      <point x="115" y="965"/>
      <point x="115" y="1034" type="qcurve" smooth="yes"/>
      <point x="115" y="1170"/>
      <point x="251" y="1367"/>
      <point x="485" y="1464"/>
      <point x="637" y="1464" type="qcurve" smooth="yes"/>
      <point x="910" y="1464"/>
      <point x="1114" y="1298" type="qcurve"/>
      <point x="1028" y="1149" type="line"/>
      <point x="973" y="1211"/>
      <point x="756" y="1300"/>
      <point x="633" y="1300" type="qcurve" smooth="yes"/>
      <point x="468" y="1300"/>
      <point x="305" y="1176"/>
      <point x="305" y="1063" type="qcurve" smooth="yes"/>
      <point x="305" y="1024"/>
      <point x="324" y="964"/>
      <point x="370" y="916"/>
      <point x="425" y="881"/>
      <point x="521" y="848"/>
      <point x="615" y="824"/>
      <point x="688" y="807" type="qcurve" smooth="yes"/>
      <point x="786" y="785"/>
      <point x="926" y="740"/>
      <point x="1056" y="673"/>
      <point x="1134" y="589"/>
      <point x="1180" y="468"/>
    </contour>
  </outline>
</glyph>
